MerriweatherSans-LightItalic.ufo
<glyph name="exclam" format="2">
  <advance width="606"/>
  <unicode hex="0021"/>
  <note>
exclam
</note>
  <outline>
    <contour>
      <point x="230" y="476" type="line"/>
      <point x="348" y="476" type="line"/>
      <point x="558" y="1736" type="line"/>
      <point x="390" y="1736" type="line"/>
    </contour>
    <contour>
      <point x="216" y="-16" type="curve" smooth="yes"/>
      <point x="292" y="-16"/>
      <point x="350" y="42"/>
      <point x="350" y="118" type="curve" smooth="yes"/>
      <point x="350" y="168"/>
      <point x="322" y="198"/>
      <point x="260" y="198" type="curve" smooth="yes"/>
      <point x="190" y="198"/>
      <point x="128" y="140"/>
      <point x="128" y="66" type="curve" smooth="yes"/>
      <point x="128" y="16"/>
      <point x="166" y="-16"/>
    </contour>
  </outline>
</glyph>
<glyph name="numbersign" format="2">
  <advance width="1360"/>
  <unicode hex="0023"/>
  <note>
numbersign
</note>
  <outline>
    <contour>
      <point x="260" y="0" type="line"/>
      <point x="382" y="0" type="line"/>
      <point x="442" y="356" type="line"/>
      <point x="824" y="356" type="line"/>
      <point x="772" y="0" type="line"/>
      <point x="892" y="0" type="line"/>
      <point x="948" y="356" type="line"/>
      <point x="1180" y="356" type="line"/>
      <point x="1186" y="452" type="line"/>
      <point x="962" y="452" type="line"/>
      <point x="1034" y="904" type="line"/>
      <point x="1270" y="904" type="line"/>
      <point x="1276" y="1000" type="line"/>
      <point x="1048" y="1000" type="line"/>
      <point x="1102" y="1326" type="line"/>
      <point x="978" y="1326" type="line"/>
      <point x="924" y="1000" type="line"/>
      <point x="544" y="1000" type="line"/>
      <point x="594" y="1326" type="line"/>
      <point x="472" y="1326" type="line"/>
      <point x="420" y="1000" type="line"/>
      <point x="194" y="1000" type="line"/>
      <point x="188" y="904" type="line"/>
      <point x="404" y="904" type="line"/>
      <point x="334" y="452" type="line"/>
      <point x="116" y="452" type="line"/>
      <point x="110" y="356" type="line"/>
      <point x="318" y="356" type="line"/>
    </contour>
    <contour>
      <point x="458" y="452" type="line"/>
      <point x="530" y="904" type="line"/>
      <point x="908" y="904" type="line"/>
      <point x="838" y="452" type="line"/>
    </contour>
  </outline>
</glyph>
<glyph name="dollar" format="2">
  <advance width="1176"/>
  <unicode hex="0024"/>
  <note>
dollar
</note>
  <outline>
    <contour>
      <point x="396" y="-224" type="line"/>
      <point x="530" y="-224" type="line"/>
      <point x="564" y="-18" type="line"/>
      <point x="812" y="6"/>
      <point x="996" y="142"/>
      <point x="996" y="392" type="curve" smooth="yes"/>
      <point x="996" y="580"/>
      <point x="882" y="676"/>
      <point x="694" y="804" type="curve" smooth="yes"/>
      <point x="520" y="916"/>
      <point x="420" y="996"/>
      <point x="426" y="1162" type="curve" smooth="yes"/>
      <point x="428" y="1294"/>
      <point x="564" y="1396"/>
      <point x="736" y="1396" type="curve" smooth="yes"/>
      <point x="848" y="1396"/>
      <point x="964" y="1368"/>
      <point x="1018" y="1314" type="curve"/>
      <point x="1064" y="1426" type="line"/>
      <point x="1006" y="1470"/>
      <point x="922" y="1496"/>
      <point x="812" y="1504" type="curve"/>
      <point x="842" y="1688" type="line"/>
      <point x="708" y="1688" type="line"/>
      <point x="678" y="1506" type="line"/>
      <point x="488" y="1494"/>
      <point x="280" y="1354"/>
      <point x="280" y="1132" type="curve" smooth="yes"/>
      <point x="280" y="932"/>
      <point x="404" y="814"/>
      <point x="606" y="686" type="curve" smooth="yes"/>
      <point x="772" y="582"/>
      <point x="844" y="494"/>
      <point x="844" y="366" type="curve" smooth="yes"/>
      <point x="844" y="188"/>
      <point x="688" y="94"/>
      <point x="494" y="94" type="curve" smooth="yes"/>
      <point x="384" y="94"/>
      <point x="206" y="140"/>
      <point x="166" y="186" type="curve"/>
      <point x="126" y="66" type="line"/>
      <point x="166" y="34"/>
      <point x="296" y="-8"/>
      <point x="430" y="-18" type="curve"/>
    </contour>
  </outline>
</glyph>
<glyph name="percent" format="2">
  <advance width="1792"/>
  <unicode hex="0025"/>
  <note>
percent
</note>
  <outline>
    <contour>
      <point x="330" y="0" type="line"/>
      <point x="450" y="0" type="line"/>
      <point x="1376" y="1494" type="line"/>
      <point x="1256" y="1494" type="line"/>
    </contour>
    <contour>
      <point x="396" y="728" type="curve" smooth="yes"/>
      <point x="628" y="728"/>
      <point x="796" y="922"/>
      <point x="796" y="1158" type="curve" smooth="yes"/>
      <point x="796" y="1314"/>
      <point x="710" y="1446"/>
      <point x="514" y="1446" type="curve" smooth="yes"/>
      <point x="294" y="1446"/>
      <point x="122" y="1250"/>
      <point x="122" y="1030" type="curve" smooth="yes"/>
      <point x="122" y="854"/>
      <point x="226" y="728"/>
    </contour>
    <contour>
      <point x="418" y="820" type="curve" smooth="yes"/>
      <point x="308" y="820"/>
      <point x="242" y="904"/>
      <point x="242" y="1032" type="curve" smooth="yes"/>
      <point x="242" y="1210"/>
      <point x="366" y="1354"/>
      <point x="494" y="1354" type="curve" smooth="yes"/>
      <point x="614" y="1354"/>
      <point x="670" y="1278"/>
      <point x="670" y="1152" type="curve" smooth="yes"/>
      <point x="670" y="966"/>
      <point x="548" y="820"/>
    </contour>
    <contour>
      <point x="1220" y="112" type="curve" smooth="yes"/>
      <point x="1452" y="112"/>
      <point x="1620" y="306"/>
      <point x="1620" y="542" type="curve" smooth="yes"/>
      <point x="1620" y="698"/>
      <point x="1534" y="830"/>
      <point x="1338" y="830" type="curve" smooth="yes"/>
      <point x="1118" y="830"/>
      <point x="946" y="634"/>
      <point x="946" y="414" type="curve" smooth="yes"/>
      <point x="946" y="238"/>
      <point x="1050" y="112"/>
    </contour>
    <contour>
      <point x="1242" y="204" type="curve" smooth="yes"/>
      <point x="1132" y="204"/>
      <point x="1066" y="288"/>
      <point x="1066" y="416" type="curve" smooth="yes"/>
      <point x="1066" y="594"/>
      <point x="1190" y="738"/>
      <point x="1318" y="738" type="curve" smooth="yes"/>
      <point x="1438" y="738"/>
      <point x="1494" y="662"/>
      <point x="1494" y="536" type="curve" smooth="yes"/>
      <point x="1494" y="350"/>
      <point x="1372" y="204"/>
    </contour>
  </outline>
</glyph>
<glyph name="ampersand" format="2">
  <advance width="1498"/>
  <unicode hex="0026"/>
  <note>
ampersand
</note>
  <outline>
    <contour>
      <point x="608" y="-16" type="curve" smooth="yes"/>
      <point x="742" y="-16"/>
      <point x="860" y="10"/>
      <point x="958" y="62" type="curve"/>
      <point x="1024" y="8"/>
      <point x="1126" y="-20"/>
      <point x="1212" y="-20" type="curve" smooth="yes"/>
      <point x="1270" y="-20"/>
      <point x="1318" y="-16"/>
      <point x="1356" y="-6" type="curve"/>
      <point x="1370" y="84" type="line"/>
      <point x="1280" y="72"/>
      <point x="1154" y="86"/>
      <point x="1070" y="142" type="curve"/>
      <point x="1180" y="244"/>
      <point x="1238" y="390"/>
      <point x="1238" y="572" type="curve" smooth="yes"/>
      <point x="1238" y="610"/>
      <point x="1234" y="646"/>
      <point x="1224" y="678" type="curve"/>
      <point x="1402" y="678" type="line"/>
      <point x="1410" y="786" type="line"/>
      <point x="1134" y="788" type="line" smooth="yes"/>
      <point x="1068" y="788"/>
      <point x="986" y="774"/>
      <point x="970" y="758" type="curve"/>
      <point x="960" y="656" type="line"/>
      <point x="984" y="670"/>
      <point x="1032" y="676"/>
      <point x="1082" y="678" type="curve"/>
      <point x="1096" y="634"/>
      <point x="1104" y="588"/>
      <point x="1104" y="540" type="curve" smooth="yes"/>
      <point x="1104" y="406"/>
      <point x="1058" y="296"/>
      <point x="976" y="218" type="curve"/>
      <point x="842" y="340"/>
      <point x="714" y="508"/>
      <point x="590" y="722" type="curve"/>
      <point x="956" y="918"/>
      <point x="1066" y="1018"/>
      <point x="1066" y="1216" type="curve" smooth="yes"/>
      <point x="1066" y="1458"/>
      <point x="892" y="1510"/>
      <point x="736" y="1510" type="curve" smooth="yes"/>
      <point x="508" y="1510"/>
      <point x="334" y="1350"/>
      <point x="334" y="1110" type="curve" smooth="yes"/>
      <point x="334" y="1006"/>
      <point x="374" y="864"/>
      <point x="428" y="752" type="curve"/>
      <point x="240" y="652"/>
      <point x="102" y="538"/>
      <point x="102" y="356" type="curve" smooth="yes"/>
      <point x="102" y="100"/>
      <point x="322" y="-16"/>
    </contour>
    <contour>
      <point x="620" y="88" type="curve" smooth="yes"/>
      <point x="420" y="88"/>
      <point x="254" y="174"/>
      <point x="254" y="360" type="curve" smooth="yes"/>
      <point x="254" y="482"/>
      <point x="336" y="570"/>
      <point x="478" y="658" type="curve"/>
      <point x="600" y="448"/>
      <point x="698" y="308"/>
      <point x="868" y="142" type="curve"/>
      <point x="794" y="106"/>
      <point x="712" y="88"/>
    </contour>
    <contour>
      <point x="542" y="814" type="curve"/>
      <point x="500" y="894"/>
      <point x="468" y="1004"/>
      <point x="468" y="1114" type="curve" smooth="yes"/>
      <point x="468" y="1236"/>
      <point x="552" y="1412"/>
      <point x="732" y="1412" type="curve" smooth="yes"/>
      <point x="862" y="1412"/>
      <point x="928" y="1322"/>
      <point x="928" y="1200" type="curve" smooth="yes"/>
      <point x="928" y="1026"/>
      <point x="766" y="934"/>
    </contour>
  </outline>
</glyph>
<glyph name="quotesingle" format="2">
  <advance width="512"/>
  <unicode hex="0027"/>
  <note>
quotesingle
</note>
  <outline>
    <contour>
      <point x="234" y="944" type="line"/>
      <point x="340" y="944" type="line"/>
      <point x="490" y="1648" type="line"/>
      <point x="320" y="1648" type="line"/>
    </contour>
  </outline>
</glyph>
<glyph name="parenleft" format="2">
  <advance width="834"/>
  <unicode hex="0028"/>
  <note>
parenleft
</note>
  <outline>
    <contour>
      <point x="548" y="-312" type="curve"/>
      <point x="642" y="-264" type="line"/>
      <point x="462" y="-120"/>
      <point x="372" y="228"/>
      <point x="372" y="498" type="curve" smooth="yes"/>
      <point x="372" y="898"/>
      <point x="586" y="1458"/>
      <point x="890" y="1656" type="curve"/>
      <point x="826" y="1700" type="line"/>
      <point x="478" y="1522"/>
      <point x="216" y="916"/>
      <point x="216" y="494" type="curve" smooth="yes"/>
      <point x="216" y="186"/>
      <point x="336" y="-158"/>
    </contour>
  </outline>
</glyph>
<glyph name="parenright" format="2">
  <advance width="844"/>
  <unicode hex="0029"/>
  <note>
parenright
</note>
  <outline>
    <contour>
      <point x="46" y="-306" type="line"/>
      <point x="402" y="-108"/>
      <point x="656" y="396"/>
      <point x="656" y="826" type="curve" smooth="yes"/>
      <point x="656" y="1182"/>
      <point x="538" y="1552"/>
      <point x="324" y="1706" type="curve"/>
      <point x="230" y="1660" type="line"/>
      <point x="410" y="1510"/>
      <point x="500" y="1146"/>
      <point x="500" y="826" type="curve" smooth="yes"/>
      <point x="500" y="424"/>
      <point x="288" y="-62"/>
      <point x="-18" y="-260" type="curve"/>
    </contour>
  </outline>
</glyph>
<glyph name="asterisk" format="2">
  <advance width="1272"/>
  <unicode hex="002A"/>
  <note>
asterisk
</note>
  <outline>
    <contour>
      <point x="594" y="632" type="line"/>
      <point x="742" y="632" type="line"/>
      <point x="748" y="928" type="line"/>
      <point x="740" y="1070" type="line"/>
      <point x="842" y="976" type="line"/>
      <point x="1064" y="808" type="line"/>
      <point x="1150" y="930" type="line"/>
      <point x="902" y="1062" type="line"/>
      <point x="776" y="1120" type="line"/>
      <point x="916" y="1176" type="line"/>
      <point x="1194" y="1308" type="line"/>
      <point x="1136" y="1432" type="line"/>
      <point x="876" y="1264" type="line"/>
      <point x="750" y="1172" type="line"/>
      <point x="786" y="1318" type="line"/>
      <point x="836" y="1614" type="line"/>
      <point x="692" y="1614" type="line"/>
      <point x="684" y="1318" type="line"/>
      <point x="690" y="1172" type="line"/>
      <point x="584" y="1264" type="line"/>
      <point x="356" y="1436" type="line"/>
      <point x="272" y="1312" type="line"/>
      <point x="526" y="1176" type="line"/>
      <point x="656" y="1120" type="line"/>
      <point x="514" y="1064" type="line"/>
      <point x="234" y="938" type="line"/>
      <point x="292" y="812" type="line"/>
      <point x="554" y="978" type="line"/>
      <point x="680" y="1070" type="line"/>
      <point x="644" y="928" type="line"/>
    </contour>
  </outline>
</glyph>
<glyph name="plus" format="2">
  <advance width="1334"/>
  <unicode hex="002B"/>
  <note>
plus
</note>
  <outline>
    <contour>
      <point x="558" y="288" type="line"/>
      <point x="694" y="288" type="line"/>
      <point x="722" y="524" type="line"/>
      <point x="736" y="700" type="line"/>
      <point x="864" y="696" type="line"/>
      <point x="1114" y="696" type="line"/>
      <point x="1128" y="814" type="line"/>
      <point x="878" y="814" type="line"/>
      <point x="748" y="806" type="line"/>
      <point x="776" y="982" type="line"/>
      <point x="802" y="1206" type="line"/>
      <point x="668" y="1206" type="line"/>
      <point x="642" y="982" type="line"/>
      <point x="626" y="804" type="line"/>
      <point x="472" y="814" type="line"/>
      <point x="250" y="814" type="line"/>
      <point x="238" y="696" type="line"/>
      <point x="458" y="696" type="line"/>
      <point x="614" y="700" type="line"/>
      <point x="586" y="524" type="line"/>
    </contour>
  </outline>
</glyph>
<glyph name="comma" format="2">
  <advance width="492"/>
  <unicode hex="002C"/>
  <note>
comma
</note>
  <outline>
    <contour>
      <point x="32" y="-490" type="line"/>
      <point x="152" y="-442"/>
      <point x="246" y="-352"/>
      <point x="296" y="-230" type="curve" smooth="yes"/>
      <point x="322" y="-168"/>
      <point x="334" y="-102"/>
      <point x="334" y="-30" type="curve" smooth="yes"/>
      <point x="334" y="88"/>
      <point x="288" y="208"/>
      <point x="170" y="258" type="curve"/>
      <point x="94" y="164" type="line"/>
      <point x="88" y="124" type="line"/>
      <point x="142" y="100"/>
      <point x="180" y="22"/>
      <point x="180" y="-80" type="curve" smooth="yes"/>
      <point x="180" y="-230"/>
      <point x="94" y="-350"/>
      <point x="-20" y="-406" type="curve"/>
      <point x="-22" y="-424" type="line"/>
    </contour>
  </outline>
</glyph>
<glyph name="hyphen" format="2">
  <advance width="1218"/>
  <unicode hex="002D"/>
  <note>
hyphen
</note>
  <outline>
    <contour>
      <point x="214" y="656" type="line"/>
      <point x="1032" y="656" type="line"/>
      <point x="1046" y="774" type="line"/>
      <point x="228" y="774" type="line"/>
    </contour>
  </outline>
</glyph>
<glyph name="period" format="2">
  <advance width="492"/>
  <unicode hex="002E"/>
  <note>
period
</note>
  <outline>
    <contour>
      <point x="186" y="-16" type="curve" smooth="yes"/>
      <point x="258" y="-16"/>
      <point x="304" y="30"/>
      <point x="304" y="112" type="curve" smooth="yes"/>
      <point x="304" y="166"/>
      <point x="278" y="198"/>
      <point x="216" y="198" type="curve" smooth="yes"/>
      <point x="146" y="198"/>
      <point x="98" y="144"/>
      <point x="98" y="72" type="curve" smooth="yes"/>
      <point x="98" y="18"/>
      <point x="136" y="-16"/>
    </contour>
  </outline>
</glyph>
<glyph name="zero" format="2">
  <advance width="1230"/>
  <unicode hex="0030"/>
  <outline>
    <contour>
      <point x="530" y="-16" type="curve" smooth="yes"/>
      <point x="900" y="-16"/>
      <point x="1168" y="430"/>
      <point x="1168" y="908" type="curve" smooth="yes"/>
      <point x="1168" y="1250"/>
      <point x="1042" y="1496"/>
      <point x="748" y="1496" type="curve" smooth="yes"/>
      <point x="392" y="1496"/>
      <point x="114" y="1094"/>
      <point x="114" y="584" type="curve" smooth="yes"/>
      <point x="114" y="266"/>
      <point x="238" y="-16"/>
    </contour>
    <contour>
      <point x="552" y="96" type="curve" smooth="yes"/>
      <point x="356" y="96"/>
      <point x="266" y="320"/>
      <point x="266" y="596" type="curve" smooth="yes"/>
      <point x="266" y="920"/>
      <point x="410" y="1388"/>
      <point x="736" y="1384" type="curve" smooth="yes"/>
      <point x="930" y="1382"/>
      <point x="1008" y="1190"/>
      <point x="1008" y="894" type="curve" smooth="yes"/>
      <point x="1008" y="520"/>
      <point x="842" y="96"/>
    </contour>
  </outline>
</glyph>
<glyph name="one" format="2">
  <advance width="908"/>
  <unicode hex="0031"/>
  <outline>
    <contour>
      <point x="326" y="0" type="line"/>
      <point x="476" y="0" type="line"/>
      <point x="702" y="1494" type="line"/>
      <point x="636" y="1510" type="line"/>
      <point x="634" y="1510" type="line"/>
      <point x="536" y="1432"/>
      <point x="364" y="1328"/>
      <point x="226" y="1296" type="curve"/>
      <point x="244" y="1202" type="line"/>
      <point x="352" y="1224"/>
      <point x="452" y="1264"/>
      <point x="522" y="1292" type="curve"/>
    </contour>
  </outline>
</glyph>
<glyph name="two" format="2">
  <advance width="1164"/>
  <unicode hex="0032"/>
  <outline>
    <contour>
      <point x="60" y="0" type="line"/>
      <point x="992" y="0" type="line"/>
      <point x="990" y="128" type="line"/>
      <point x="216" y="100" type="line"/>
      <point x="562" y="290"/>
      <point x="1052" y="746"/>
      <point x="1052" y="1114" type="curve" smooth="yes"/>
      <point x="1052" y="1274"/>
      <point x="968" y="1508"/>
      <point x="620" y="1508" type="curve" smooth="yes"/>
      <point x="420" y="1508"/>
      <point x="240" y="1408"/>
      <point x="164" y="1310" type="curve"/>
      <point x="218" y="1226" type="line"/>
      <point x="292" y="1292"/>
      <point x="416" y="1388"/>
      <point x="578" y="1388" type="curve" smooth="yes"/>
      <point x="816" y="1388"/>
      <point x="888" y="1240"/>
      <point x="888" y="1072" type="curve" smooth="yes"/>
      <point x="888" y="736"/>
      <point x="400" y="308"/>
      <point x="34" y="90" type="curve"/>
    </contour>
  </outline>
</glyph>
<glyph name="three" format="2">
  <advance width="1116"/>
  <unicode hex="0033"/>
  <outline>
    <contour>
      <point x="270" y="-14" type="curve" smooth="yes"/>
      <point x="612" y="-14"/>
      <point x="964" y="184"/>
      <point x="964" y="486" type="curve" smooth="yes"/>
      <point x="964" y="644"/>
      <point x="852" y="790"/>
      <point x="596" y="784" type="curve"/>
      <point x="788" y="850"/>
      <point x="976" y="1008"/>
      <point x="976" y="1192" type="curve" smooth="yes"/>
      <point x="976" y="1404"/>
      <point x="812" y="1508"/>
      <point x="636" y="1508" type="curve" smooth="yes"/>
      <point x="426" y="1508"/>
      <point x="258" y="1418"/>
      <point x="192" y="1354" type="curve"/>
      <point x="238" y="1250" type="line"/>
      <point x="320" y="1314"/>
      <point x="436" y="1388"/>
      <point x="602" y="1388" type="curve" smooth="yes"/>
      <point x="738" y="1388"/>
      <point x="828" y="1314"/>
      <point x="828" y="1190" type="curve" smooth="yes"/>
      <point x="828" y="1008"/>
      <point x="580" y="850"/>
      <point x="318" y="788" type="curve"/>
      <point x="306" y="660" type="line"/>
      <point x="478" y="710" type="line"/>
      <point x="716" y="708"/>
      <point x="806" y="608"/>
      <point x="806" y="472" type="curve" smooth="yes"/>
      <point x="806" y="242"/>
      <point x="534" y="100"/>
      <point x="260" y="100" type="curve" smooth="yes"/>
      <point x="212" y="100"/>
      <point x="146" y="104"/>
      <point x="82" y="110" type="curve"/>
      <point x="70" y="-2" type="line"/>
      <point x="146" y="-8"/>
      <point x="210" y="-14"/>
    </contour>
  </outline>
</glyph>
<glyph name="four" format="2">
  <advance width="1220"/>
  <unicode hex="0034"/>
  <outline>
    <contour>
      <point x="672" y="0" type="line"/>
      <point x="812" y="0" type="line"/>
      <point x="850" y="316" type="line"/>
      <point x="1118" y="316" type="line"/>
      <point x="1134" y="446" type="line"/>
      <point x="864" y="436" type="line"/>
      <point x="926" y="882" type="line"/>
      <point x="782" y="850" type="line"/>
      <point x="724" y="426" type="line"/>
      <point x="210" y="414" type="line"/>
      <point x="322" y="570" type="line"/>
      <point x="876" y="1428" type="line"/>
      <point x="782" y="1494" type="line"/>
      <point x="738" y="1494" type="line"/>
      <point x="480" y="1052"/>
      <point x="274" y="728"/>
      <point x="48" y="386" type="curve"/>
      <point x="76" y="316" type="line"/>
      <point x="710" y="316" type="line"/>
    </contour>
  </outline>
</glyph>
<glyph name="five" format="2">
  <advance width="1168"/>
  <unicode hex="0035"/>
  <outline>
    <contour>
      <point x="226" y="-14" type="curve" smooth="yes"/>
      <point x="646" y="-14"/>
      <point x="1018" y="230"/>
      <point x="1018" y="586" type="curve" smooth="yes"/>
      <point x="1018" y="794"/>
      <point x="894" y="942"/>
      <point x="614" y="942" type="curve" smooth="yes"/>
      <point x="528" y="942"/>
      <point x="422" y="916"/>
      <point x="360" y="890" type="curve"/>
      <point x="478" y="1370" type="line"/>
      <point x="1050" y="1370" type="line"/>
      <point x="1080" y="1510" type="line"/>
      <point x="968" y="1510" type="line"/>
      <point x="950" y="1494" type="line"/>
      <point x="364" y="1494" type="line"/>
      <point x="208" y="814" type="line"/>
      <point x="264" y="756" type="line"/>
      <point x="330" y="788"/>
      <point x="480" y="828"/>
      <point x="576" y="828" type="curve" smooth="yes"/>
      <point x="774" y="828"/>
      <point x="856" y="724"/>
      <point x="856" y="560" type="curve" smooth="yes"/>
      <point x="856" y="256"/>
      <point x="522" y="98"/>
      <point x="206" y="98" type="curve" smooth="yes"/>
      <point x="174" y="98"/>
      <point x="148" y="102"/>
      <point x="114" y="108" type="curve"/>
      <point x="96" y="2" type="line"/>
      <point x="136" y="-12"/>
      <point x="194" y="-14"/>
    </contour>
  </outline>
</glyph>
<glyph name="six" format="2">
  <advance width="1236"/>
  <unicode hex="0036"/>
  <outline>
    <contour>
      <point x="586" y="-18" type="curve" smooth="yes"/>
      <point x="936" y="-18"/>
      <point x="1122" y="304"/>
      <point x="1122" y="588" type="curve" smooth="yes"/>
      <point x="1122" y="778"/>
      <point x="996" y="966"/>
      <point x="736" y="966" type="curve" smooth="yes"/>
      <point x="542" y="966"/>
      <point x="436" y="880"/>
      <point x="372" y="822" type="curve"/>
      <point x="468" y="1102"/>
      <point x="692" y="1318"/>
      <point x="1002" y="1424" type="curve"/>
      <point x="968" y="1510" type="line"/>
      <point x="482" y="1376"/>
      <point x="160" y="976"/>
      <point x="160" y="482" type="curve" smooth="yes"/>
      <point x="160" y="214"/>
      <point x="304" y="-18"/>
    </contour>
    <contour>
      <point x="600" y="86" type="curve" smooth="yes"/>
      <point x="394" y="86"/>
      <point x="308" y="244"/>
      <point x="308" y="460" type="curve" smooth="yes"/>
      <point x="308" y="546"/>
      <point x="316" y="610"/>
      <point x="332" y="684" type="curve"/>
      <point x="376" y="732"/>
      <point x="482" y="850"/>
      <point x="702" y="850" type="curve" smooth="yes"/>
      <point x="850" y="850"/>
      <point x="976" y="752"/>
      <point x="976" y="568" type="curve" smooth="yes"/>
      <point x="976" y="340"/>
      <point x="830" y="86"/>
    </contour>
  </outline>
</glyph>
<glyph name="seven" format="2">
  <advance width="1048"/>
  <unicode hex="0037"/>
  <outline>
    <contour>
      <point x="176" y="2" type="line"/>
      <point x="348" y="0" type="line"/>
      <point x="1032" y="1458" type="line"/>
      <point x="1004" y="1494" type="line"/>
      <point x="152" y="1494" type="line"/>
      <point x="136" y="1374" type="line"/>
      <point x="864" y="1376" type="line"/>
    </contour>
  </outline>
</glyph>
<glyph name="eight" format="2">
  <advance width="1270"/>
  <unicode hex="0038"/>
  <outline>
    <contour>
      <point x="566" y="-18" type="curve" smooth="yes"/>
      <point x="840" y="-18"/>
      <point x="1072" y="136"/>
      <point x="1072" y="390" type="curve" smooth="yes"/>
      <point x="1072" y="558"/>
      <point x="912" y="666"/>
      <point x="770" y="766" type="curve"/>
      <point x="966" y="836"/>
      <point x="1132" y="1002"/>
      <point x="1132" y="1196" type="curve" smooth="yes"/>
      <point x="1132" y="1392"/>
      <point x="970" y="1516"/>
      <point x="762" y="1516" type="curve" smooth="yes"/>
      <point x="504" y="1516"/>
      <point x="314" y="1378"/>
      <point x="314" y="1126" type="curve" smooth="yes"/>
      <point x="314" y="970"/>
      <point x="420" y="856"/>
      <point x="524" y="774" type="curve"/>
      <point x="336" y="696"/>
      <point x="146" y="556"/>
      <point x="146" y="340" type="curve" smooth="yes"/>
      <point x="146" y="98"/>
      <point x="366" y="-18"/>
    </contour>
    <contour>
      <point x="590" y="84" type="curve" smooth="yes"/>
      <point x="412" y="84"/>
      <point x="304" y="202"/>
      <point x="304" y="358" type="curve"/>
      <point x="306" y="538"/>
      <point x="466" y="654"/>
      <point x="608" y="718" type="curve"/>
      <point x="776" y="604"/>
      <point x="912" y="512"/>
      <point x="912" y="364" type="curve" smooth="yes"/>
      <point x="912" y="198"/>
      <point x="766" y="84"/>
    </contour>
    <contour>
      <point x="692" y="824" type="curve"/>
      <point x="570" y="914"/>
      <point x="462" y="1010"/>
      <point x="462" y="1152" type="curve" smooth="yes"/>
      <point x="462" y="1310"/>
      <point x="580" y="1420"/>
      <point x="744" y="1420" type="curve" smooth="yes"/>
      <point x="874" y="1420"/>
      <point x="984" y="1336"/>
      <point x="984" y="1186" type="curve" smooth="yes"/>
      <point x="984" y="1024"/>
      <point x="860" y="896"/>
    </contour>
  </outline>
</glyph>
<glyph name="nine" format="2">
  <advance width="1238"/>
  <unicode hex="0039"/>
  <outline>
    <contour>
      <point x="326" y="-14" type="line"/>
      <point x="806" y="120"/>
      <point x="1126" y="500"/>
      <point x="1126" y="996" type="curve" smooth="yes"/>
      <point x="1126" y="1262"/>
      <point x="996" y="1494"/>
      <point x="708" y="1494" type="curve" smooth="yes"/>
      <point x="364" y="1494"/>
      <point x="172" y="1194"/>
      <point x="172" y="910" type="curve" smooth="yes"/>
      <point x="172" y="716"/>
      <point x="290" y="506"/>
      <point x="562" y="506" type="curve" smooth="yes"/>
      <point x="748" y="506"/>
      <point x="862" y="578"/>
      <point x="922" y="640" type="curve"/>
      <point x="826" y="360"/>
      <point x="602" y="178"/>
      <point x="294" y="72" type="curve"/>
    </contour>
    <contour>
      <point x="598" y="620" type="curve" smooth="yes"/>
      <point x="436" y="620"/>
      <point x="318" y="726"/>
      <point x="318" y="930" type="curve" smooth="yes"/>
      <point x="318" y="1130"/>
      <point x="444" y="1390"/>
      <point x="688" y="1390" type="curve" smooth="yes"/>
      <point x="880" y="1390"/>
      <point x="978" y="1226"/>
      <point x="978" y="1008" type="curve" smooth="yes"/>
      <point x="978" y="922"/>
      <point x="972" y="860"/>
      <point x="954" y="786" type="curve"/>
      <point x="912" y="736"/>
      <point x="806" y="620"/>
    </contour>
  </outline>
</glyph>
<glyph name="less" format="2">
  <advance width="1336"/>
  <unicode hex="003C"/>
  <note>
less
</note>
  <outline>
    <contour>
      <point x="1060" y="172" type="line"/>
      <point x="1074" y="304" type="line"/>
      <point x="360" y="726" type="line"/>
      <point x="1172" y="1148" type="line"/>
      <point x="1192" y="1292" type="line"/>
      <point x="204" y="782" type="line"/>
      <point x="192" y="686" type="line"/>
    </contour>
  </outline>
</glyph>
<glyph name="equal" format="2">
  <advance width="1038"/>
  <unicode hex="003D"/>
  <note>
equal
</note>
  <outline>
    <contour>
      <point x="166" y="846" type="line"/>
      <point x="960" y="846" type="line"/>
      <point x="974" y="964" type="line"/>
      <point x="178" y="964" type="line"/>
    </contour>
    <contour>
      <point x="96" y="350" type="line"/>
      <point x="892" y="350" type="line"/>
      <point x="906" y="466" type="line"/>
      <point x="110" y="466" type="line"/>
    </contour>
  </outline>
</glyph>
<glyph name="greater" format="2">
  <advance width="1336"/>
  <unicode hex="003E"/>
  <note>
greater
</note>
  <outline>
    <contour>
      <point x="244" y="174" type="line"/>
      <point x="1232" y="686" type="line"/>
      <point x="1244" y="782" type="line"/>
      <point x="376" y="1296" type="line"/>
      <point x="362" y="1164" type="line"/>
      <point x="1076" y="742" type="line"/>
      <point x="262" y="320" type="line"/>
    </contour>
  </outline>
</glyph>
<glyph name="question" format="2">
  <advance width="840"/>
  <unicode hex="003F"/>
  <note>
question
</note>
  <outline>
    <contour>
      <point x="268" y="514" type="curve"/>
      <point x="398" y="514" type="line"/>
      <point x="380" y="570"/>
      <point x="380" y="610"/>
      <point x="382" y="660" type="curve" smooth="yes"/>
      <point x="386" y="768"/>
      <point x="488" y="820"/>
      <point x="608" y="892" type="curve" smooth="yes"/>
      <point x="782" y="998"/>
      <point x="900" y="1150"/>
      <point x="900" y="1348" type="curve" smooth="yes"/>
      <point x="900" y="1598"/>
      <point x="750" y="1738"/>
      <point x="480" y="1738" type="curve" smooth="yes"/>
      <point x="364" y="1738"/>
      <point x="272" y="1716"/>
      <point x="246" y="1686" type="curve"/>
      <point x="224" y="1580" type="line"/>
      <point x="294" y="1604"/>
      <point x="352" y="1618"/>
      <point x="434" y="1618" type="curve" smooth="yes"/>
      <point x="640" y="1618"/>
      <point x="764" y="1516"/>
      <point x="764" y="1330" type="curve" smooth="yes"/>
      <point x="764" y="1202"/>
      <point x="692" y="1068"/>
      <point x="524" y="972" type="curve" smooth="yes"/>
      <point x="388" y="894"/>
      <point x="248" y="808"/>
      <point x="248" y="674" type="curve" smooth="yes"/>
      <point x="248" y="576"/>
      <point x="268" y="546"/>
    </contour>
    <contour>
      <point x="304" y="-12" type="curve" smooth="yes"/>
      <point x="378" y="-12"/>
      <point x="420" y="32"/>
      <point x="420" y="118" type="curve" smooth="yes"/>
      <point x="420" y="168"/>
      <point x="392" y="202"/>
      <point x="334" y="202" type="curve" smooth="yes"/>
      <point x="264" y="202"/>
      <point x="216" y="146"/>
      <point x="216" y="74" type="curve" smooth="yes"/>
      <point x="216" y="20"/>
      <point x="254" y="-12"/>
    </contour>
  </outline>
</glyph>
<glyph name="at" format="2">
  <advance width="1922"/>
  <unicode hex="0040"/>
  <note>
at
</note>
  <outline>
    <contour>
      <point x="876" y="-430" type="curve" smooth="yes"/>
      <point x="1044" y="-430"/>
      <point x="1204" y="-386"/>
      <point x="1292" y="-316" type="curve"/>
      <point x="1268" y="-242" type="line"/>
      <point x="1202" y="-278"/>
      <point x="1000" y="-326"/>
      <point x="888" y="-326" type="curve" smooth="yes"/>
      <point x="476" y="-326"/>
      <point x="232" y="-54"/>
      <point x="232" y="382" type="curve" smooth="yes"/>
      <point x="232" y="926"/>
      <point x="596" y="1410"/>
      <point x="1134" y="1410" type="curve" smooth="yes"/>
      <point x="1486" y="1410"/>
      <point x="1710" y="1242"/>
      <point x="1710" y="844" type="curve" smooth="yes"/>
      <point x="1710" y="568"/>
      <point x="1538" y="138"/>
      <point x="1322" y="138" type="curve" smooth="yes"/>
      <point x="1294" y="138"/>
      <point x="1282" y="184"/>
      <point x="1282" y="258" type="curve" smooth="yes"/>
      <point x="1282" y="462"/>
      <point x="1368" y="868"/>
      <point x="1414" y="1038" type="curve"/>
      <point x="1288" y="1014" type="line"/>
      <point x="1238" y="1046"/>
      <point x="1126" y="1066"/>
      <point x="1060" y="1066" type="curve" smooth="yes"/>
      <point x="734" y="1066"/>
      <point x="530" y="776"/>
      <point x="530" y="408" type="curve" smooth="yes"/>
      <point x="530" y="172"/>
      <point x="658" y="4"/>
      <point x="804" y="4" type="curve" smooth="yes"/>
      <point x="946" y="4"/>
      <point x="1078" y="196"/>
      <point x="1182" y="450" type="curve"/>
      <point x="1164" y="356"/>
      <point x="1152" y="258"/>
      <point x="1152" y="208" type="curve" smooth="yes"/>
      <point x="1152" y="98"/>
      <point x="1162" y="8"/>
      <point x="1248" y="8" type="curve" smooth="yes"/>
      <point x="1594" y="8"/>
      <point x="1826" y="466"/>
      <point x="1826" y="868" type="curve" smooth="yes"/>
      <point x="1826" y="1260"/>
      <point x="1570" y="1508"/>
      <point x="1162" y="1508" type="curve" smooth="yes"/>
      <point x="540" y="1508"/>
      <point x="118" y="1020"/>
      <point x="118" y="364" type="curve" smooth="yes"/>
      <point x="118" y="-112"/>
      <point x="410" y="-430"/>
    </contour>
    <contour>
      <point x="828" y="120" type="curve" smooth="yes"/>
      <point x="724" y="120"/>
      <point x="666" y="304"/>
      <point x="666" y="434" type="curve" smooth="yes"/>
      <point x="666" y="724"/>
      <point x="808" y="972"/>
      <point x="1054" y="972" type="curve" smooth="yes"/>
      <point x="1120" y="972"/>
      <point x="1218" y="944"/>
      <point x="1252" y="904" type="curve"/>
      <point x="1196" y="658"/>
      <point x="986" y="120"/>
    </contour>
  </outline>
</glyph>
<glyph name="A" format="2">
  <advance width="1236"/>
  <unicode hex="0041"/>
  <note>
A
</note>
  <anchor x="544" y="0" name="bottom"/>
  <anchor x="1126" y="0" name="ogonek"/>
  <anchor x="742" y="1494" name="top"/>
  <outline>
    <contour>
      <point x="-48" y="0" type="line"/>
      <point x="108" y="0" type="line"/>
      <point x="304" y="420" type="line"/>
      <point x="904" y="420" type="line"/>
      <point x="978" y="0" type="line"/>
      <point x="1126" y="0" type="line"/>
      <point x="842" y="1494" type="line"/>
      <point x="678" y="1494" type="line"/>
    </contour>
    <contour>
      <point x="358" y="534" type="line"/>
      <point x="690" y="1246" type="line"/>
      <point x="744" y="1362" type="line"/>
      <point x="758" y="1250" type="line"/>
      <point x="884" y="534" type="line"/>
    </contour>
  </outline>
</glyph>
<glyph name="B" format="2">
  <advance width="1210"/>
  <unicode hex="0042"/>
  <note>
B
</note>
  <anchor x="532" y="0" name="bottom"/>
  <anchor x="730" y="1494" name="top"/>
  <outline>
    <contour>
      <point x="448" y="-14" type="curve" smooth="yes"/>
      <point x="822" y="-14"/>
      <point x="1112" y="124"/>
      <point x="1104" y="478" type="curve" smooth="yes"/>
      <point x="1104" y="642"/>
      <point x="970" y="762"/>
      <point x="800" y="782" type="curve"/>
      <point x="994" y="836"/>
      <point x="1112" y="978"/>
      <point x="1112" y="1180" type="curve" smooth="yes"/>
      <point x="1112" y="1374"/>
      <point x="992" y="1510"/>
      <point x="674" y="1510" type="curve" smooth="yes"/>
      <point x="626" y="1510"/>
      <point x="410" y="1494"/>
      <point x="374" y="1494" type="curve" smooth="yes"/>
      <point x="306" y="1494" type="line"/>
      <point x="118" y="0" type="line"/>
      <point x="186" y="0" type="line" smooth="yes"/>
      <point x="262" y="0"/>
      <point x="380" y="-14"/>
    </contour>
    <contour>
      <point x="480" y="92" type="curve" smooth="yes"/>
      <point x="432" y="92"/>
      <point x="314" y="102"/>
      <point x="280" y="112" type="curve"/>
      <point x="356" y="716" type="line"/>
      <point x="424" y="720"/>
      <point x="510" y="722"/>
      <point x="612" y="722" type="curve" smooth="yes"/>
      <point x="820" y="722"/>
      <point x="948" y="630"/>
      <point x="948" y="456" type="curve" smooth="yes"/>
      <point x="948" y="200"/>
      <point x="766" y="92"/>
    </contour>
    <contour>
      <point x="370" y="828" type="curve"/>
      <point x="440" y="1394" type="line"/>
      <point x="496" y="1402"/>
      <point x="602" y="1408"/>
      <point x="640" y="1408" type="curve" smooth="yes"/>
      <point x="872" y="1408"/>
      <point x="964" y="1326"/>
      <point x="964" y="1166" type="curve" smooth="yes"/>
      <point x="964" y="956"/>
      <point x="812" y="828"/>
      <point x="598" y="828" type="curve" smooth="yes"/>
      <point x="452" y="826"/>
      <point x="398" y="826"/>
    </contour>
  </outline>
</glyph>
<glyph name="C" format="2">
  <advance width="1114"/>
  <unicode hex="0043"/>
  <note>
C
</note>
  <anchor x="604" y="0" name="bottom"/>
  <anchor x="800" y="1494" name="top"/>
  <outline>
    <contour>
      <point x="608" y="-14" type="curve" smooth="yes"/>
      <point x="776" y="-14"/>
      <point x="912" y="18"/>
      <point x="1014" y="82" type="curve"/>
      <point x="992" y="206" type="line"/>
      <point x="920" y="158"/>
      <point x="768" y="102"/>
      <point x="634" y="102" type="curve" smooth="yes"/>
      <point x="370" y="102"/>
      <point x="258" y="348"/>
      <point x="258" y="648" type="curve" smooth="yes"/>
      <point x="258" y="888"/>
      <point x="336" y="1130"/>
      <point x="500" y="1276" type="curve" smooth="yes"/>
      <point x="582" y="1350"/>
      <point x="680" y="1386"/>
      <point x="798" y="1386" type="curve" smooth="yes"/>
      <point x="924" y="1386"/>
      <point x="1002" y="1360"/>
      <point x="1068" y="1326" type="curve"/>
      <point x="1120" y="1450" type="line"/>
      <point x="958" y="1500"/>
      <point x="904" y="1510"/>
      <point x="804" y="1510" type="curve" smooth="yes"/>
      <point x="546" y="1510"/>
      <point x="322" y="1356"/>
      <point x="200" y="1092" type="curve" smooth="yes"/>
      <point x="138" y="958"/>
      <point x="108" y="806"/>
      <point x="108" y="636" type="curve" smooth="yes"/>
      <point x="108" y="410"/>
      <point x="166" y="204"/>
      <point x="316" y="80" type="curve" smooth="yes"/>
      <point x="390" y="18"/>
      <point x="488" y="-14"/>
    </contour>
  </outline>
</glyph>
<glyph name="D" format="2">
  <advance width="1344"/>
  <unicode hex="0044"/>
  <note>
D
</note>
  <anchor x="598" y="0" name="bottom"/>
  <anchor x="698" y="748" name="center"/>
  <anchor x="796" y="1494" name="top"/>
  <outline>
    <contour>
      <point x="510" y="-16" type="curve" smooth="yes"/>
      <point x="970" y="-28"/>
      <point x="1268" y="382"/>
      <point x="1268" y="884" type="curve" smooth="yes"/>
      <point x="1268" y="1274"/>
      <point x="1092" y="1510"/>
      <point x="706" y="1510" type="curve" smooth="yes"/>
      <point x="608" y="1510"/>
      <point x="498" y="1494"/>
      <point x="420" y="1494" type="curve"/>
      <point x="306" y="1494" type="line"/>
      <point x="118" y="0" type="line"/>
      <point x="194" y="0" type="line" smooth="yes"/>
      <point x="324" y="0"/>
      <point x="396" y="-12"/>
    </contour>
    <contour>
      <point x="530" y="96" type="curve" smooth="yes"/>
      <point x="460" y="96"/>
      <point x="378" y="104"/>
      <point x="280" y="122" type="curve"/>
      <point x="438" y="1382" type="line"/>
      <point x="528" y="1394"/>
      <point x="602" y="1400"/>
      <point x="664" y="1400" type="curve" smooth="yes"/>
      <point x="880" y="1400"/>
      <point x="1008" y="1328"/>
      <point x="1070" y="1176" type="curve" smooth="yes"/>
      <point x="1100" y="1100"/>
      <point x="1116" y="1000"/>
      <point x="1116" y="876" type="curve" smooth="yes"/>
      <point x="1116" y="606"/>
      <point x="1024" y="356"/>
      <point x="848" y="208" type="curve" smooth="yes"/>
      <point x="760" y="134"/>
      <point x="654" y="96"/>
    </contour>
  </outline>
</glyph>
<glyph name="E" format="2">
  <advance width="1112"/>
  <unicode hex="0045"/>
  <note>
E
</note>
  <anchor x="576" y="0" name="bottom"/>
  <anchor x="902" y="0" name="ogonek"/>
  <anchor x="696" y="1494" name="top"/>
  <anchor x="164" y="1494" name="topleft"/>
  <outline>
    <contour>
      <point x="118" y="0" type="line"/>
      <point x="988" y="0" type="line"/>
      <point x="998" y="124" type="line"/>
      <point x="278" y="112" type="line"/>
      <point x="354" y="710" type="line"/>
      <point x="822" y="700" type="line"/>
      <point x="832" y="824" type="line"/>
      <point x="368" y="818" type="line"/>
      <point x="440" y="1384" type="line"/>
      <point x="1040" y="1376" type="line"/>
      <point x="1044" y="1494" type="line"/>
      <point x="306" y="1494" type="line"/>
    </contour>
  </outline>
</glyph>
<glyph name="F" format="2">
  <advance width="1032"/>
  <unicode hex="0046"/>
  <note>
F
</note>
  <anchor x="442" y="0" name="bottom"/>
  <anchor x="640" y="1494" name="top"/>
  <outline>
    <contour>
      <point x="118" y="0" type="line"/>
      <point x="264" y="0" type="line"/>
      <point x="354" y="708" type="line"/>
      <point x="854" y="696" type="line"/>
      <point x="864" y="824" type="line"/>
      <point x="368" y="816" type="line"/>
      <point x="440" y="1384" type="line"/>
      <point x="1056" y="1376" type="line"/>
      <point x="1068" y="1494" type="line"/>
      <point x="306" y="1494" type="line"/>
    </contour>
  </outline>
</glyph>
<glyph name="G" format="2">
  <advance width="1308"/>
  <unicode hex="0047"/>
  <note>
G
</note>
  <anchor x="580" y="0" name="bottom"/>
  <anchor x="778" y="1494" name="top"/>
  <outline>
    <contour>
      <point x="602" y="-16" type="curve" smooth="yes"/>
      <point x="724" y="-16"/>
      <point x="824" y="10"/>
      <point x="958" y="50" type="curve" smooth="yes"/>
      <point x="1048" y="76"/>
      <point x="1082" y="86"/>
      <point x="1124" y="92" type="curve"/>
      <point x="1204" y="712" type="line"/>
      <point x="784" y="712" type="line"/>
      <point x="768" y="594" type="line"/>
      <point x="1042" y="592" type="line"/>
      <point x="992" y="182" type="line"/>
      <point x="864" y="134"/>
      <point x="732" y="98"/>
      <point x="628" y="98" type="curve" smooth="yes"/>
      <point x="370" y="98"/>
      <point x="258" y="350"/>
      <point x="258" y="640" type="curve" smooth="yes"/>
      <point x="258" y="890"/>
      <point x="346" y="1136"/>
      <point x="516" y="1282" type="curve" smooth="yes"/>
      <point x="602" y="1354"/>
      <point x="704" y="1390"/>
      <point x="824" y="1390" type="curve" smooth="yes"/>
      <point x="982" y="1390"/>
      <point x="1098" y="1352"/>
      <point x="1170" y="1310" type="curve"/>
      <point x="1218" y="1444" type="line"/>
      <point x="1068" y="1492"/>
      <point x="974" y="1510"/>
      <point x="826" y="1510" type="curve" smooth="yes"/>
      <point x="556" y="1510"/>
      <point x="324" y="1352"/>
      <point x="198" y="1080" type="curve" smooth="yes"/>
      <point x="136" y="942"/>
      <point x="106" y="786"/>
      <point x="110" y="612" type="curve" smooth="yes"/>
      <point x="112" y="396"/>
      <point x="180" y="194"/>
      <point x="326" y="74" type="curve" smooth="yes"/>
      <point x="400" y="14"/>
      <point x="492" y="-16"/>
    </contour>
  </outline>
</glyph>
<glyph name="H" format="2">
  <advance width="1376"/>
  <unicode hex="0048"/>
  <note>
H
</note>
  <anchor x="616" y="0" name="bottom"/>
  <anchor x="816" y="1494" name="top"/>
  <outline>
    <contour>
      <point x="118" y="0" type="line"/>
      <point x="264" y="0" type="line"/>
      <point x="352" y="698" type="line"/>
      <point x="1062" y="698" type="line"/>
      <point x="974" y="0" type="line"/>
      <point x="1122" y="0" type="line"/>
      <point x="1308" y="1494" type="line"/>
      <point x="1162" y="1494" type="line"/>
      <point x="1076" y="810" type="line"/>
      <point x="368" y="810" type="line"/>
      <point x="454" y="1494" type="line"/>
      <point x="306" y="1494" type="line"/>
    </contour>
  </outline>
</glyph>
<glyph name="I" format="2">
  <advance width="558"/>
  <unicode hex="0049"/>
  <note>
I
</note>
  <anchor x="206" y="0" name="bottom"/>
  <anchor x="290" y="0" name="ogonek"/>
  <anchor x="408" y="1494" name="top"/>
  <anchor x="164" y="1494" name="topleft"/>
  <outline>
    <contour>
      <point x="142" y="0" type="line"/>
      <point x="290" y="0" type="line"/>
      <point x="478" y="1494" type="line"/>
      <point x="330" y="1494" type="line"/>
    </contour>
  </outline>
</glyph>
<glyph name="J" format="2">
  <advance width="570"/>
  <unicode hex="004A"/>
  <note>
J
</note>
  <anchor x="212" y="0" name="bottom"/>
  <anchor x="430" y="1494" name="top"/>
  <outline>
    <contour>
      <point x="-138" y="-316" type="line"/>
      <point x="100" y="-272"/>
      <point x="234" y="-156"/>
      <point x="302" y="74" type="curve" smooth="yes"/>
      <point x="316" y="120"/>
      <point x="342" y="286"/>
      <point x="380" y="572" type="curve" smooth="yes"/>
      <point x="490" y="1494" type="line"/>
      <point x="342" y="1494" type="line"/>
      <point x="236" y="524"/>
      <point x="210" y="314"/>
      <point x="160" y="84" type="curve" smooth="yes"/>
      <point x="128" y="-72"/>
      <point x="4" y="-202"/>
      <point x="-166" y="-250" type="curve"/>
    </contour>
  </outline>
</glyph>
<glyph name="K" format="2">
  <advance width="1216"/>
  <unicode hex="004B"/>
  <anchor x="594" y="0" name="bottom"/>
  <anchor x="732" y="1494" name="top"/>
  <outline>
    <contour>
      <point x="118" y="0" type="line"/>
      <point x="258" y="0" type="line"/>
      <point x="322" y="492" type="line"/>
      <point x="550" y="738" type="line"/>
      <point x="728" y="414" type="line" smooth="yes"/>
      <point x="812" y="262"/>
      <point x="946" y="16"/>
      <point x="958" y="0" type="curve"/>
      <point x="1136" y="0" type="line"/>
      <point x="1088" y="66"/>
      <point x="1048" y="134"/>
      <point x="882" y="428" type="curve" smooth="yes"/>
      <point x="766" y="632"/>
      <point x="694" y="754"/>
      <point x="646" y="834" type="curve"/>
      <point x="1252" y="1494" type="line"/>
      <point x="1080" y="1494" type="line"/>
      <point x="348" y="692" type="line"/>
      <point x="448" y="1494" type="line"/>
      <point x="306" y="1494" type="line"/>
    </contour>
  </outline>
</glyph>
<glyph name="L" format="2">
  <advance width="956"/>
  <unicode hex="004C"/>
  <note>
L
</note>
  <anchor x="484" y="0" name="bottom"/>
  <anchor x="504" y="748" name="center"/>
  <anchor x="386" y="1494" name="top"/>
  <anchor x="1040" y="1494" name="topright"/>
  <outline>
    <contour>
      <point x="118" y="0" type="line"/>
      <point x="844" y="0" type="line"/>
      <point x="860" y="126" type="line"/>
      <point x="280" y="124" type="line"/>
      <point x="454" y="1494" type="line"/>
      <point x="306" y="1494" type="line"/>
    </contour>
  </outline>
</glyph>
<glyph name="M" format="2">
  <advance width="1750"/>
  <unicode hex="004D"/>
  <note>
M
</note>
  <anchor x="802" y="0" name="bottom"/>
  <anchor x="1000" y="1494" name="top"/>
  <outline>
    <contour>
      <point x="748" y="-18" type="line"/>
      <point x="852" y="-4" type="line"/>
      <point x="1306" y="1044" type="line"/>
      <point x="1460" y="1398" type="line"/>
      <point x="1438" y="998" type="line"/>
      <point x="1390" y="0" type="line"/>
      <point x="1540" y="0" type="line"/>
      <point x="1582" y="1494" type="line"/>
      <point x="1370" y="1494" type="line"/>
      <point x="920" y="450" type="line"/>
      <point x="830" y="220" type="line"/>
      <point x="800" y="452" type="line"/>
      <point x="630" y="1494" type="line"/>
      <point x="442" y="1494" type="line"/>
      <point x="70" y="0" type="line"/>
      <point x="220" y="0" type="line"/>
      <point x="458" y="1012" type="line"/>
      <point x="532" y="1398" type="line"/>
      <point x="582" y="1020" type="line"/>
    </contour>
  </outline>
</glyph>
<glyph name="N" format="2">
  <advance width="1370"/>
  <unicode hex="004E"/>
  <note>
N
</note>
  <anchor x="612" y="0" name="bottom"/>
  <anchor x="810" y="1494" name="top"/>
  <outline>
    <contour>
      <point x="118" y="0" type="line"/>
      <point x="256" y="0" type="line"/>
      <point x="386" y="1048" type="line"/>
      <point x="416" y="1330" type="line"/>
      <point x="486" y="1096" type="line"/>
      <point x="968" y="0" type="line"/>
      <point x="1114" y="0" type="line"/>
      <point x="1302" y="1494" type="line"/>
      <point x="1162" y="1494" type="line"/>
      <point x="1032" y="424" type="line"/>
      <point x="1010" y="192" type="line"/>
      <point x="940" y="394" type="line"/>
      <point x="460" y="1494" type="line"/>
      <point x="306" y="1494" type="line"/>
    </contour>
  </outline>
</glyph>
<glyph name="O" format="2">
  <advance width="1336"/>
  <unicode hex="004F"/>
  <note>
O
</note>
  <anchor x="600" y="0" name="bottom"/>
  <anchor x="700" y="748" name="center"/>
  <anchor x="730" y="0" name="ogonek"/>
  <anchor x="810" y="1494" name="top"/>
  <anchor x="164" y="1494" name="topleft"/>
  <anchor x="1430" y="1494" name="topright"/>
  <outline>
    <contour>
      <point x="596" y="-16" type="curve" smooth="yes"/>
      <point x="1016" y="-16"/>
      <point x="1276" y="398"/>
      <point x="1276" y="872" type="curve" smooth="yes"/>
      <point x="1276" y="1212"/>
      <point x="1126" y="1510"/>
      <point x="800" y="1510" type="curve" smooth="yes"/>
      <point x="384" y="1510"/>
      <point x="116" y="1092"/>
      <point x="116" y="624" type="curve" smooth="yes"/>
      <point x="116" y="272"/>
      <point x="276" y="-16"/>
    </contour>
    <contour>
      <point x="620" y="96" type="curve" smooth="yes"/>
      <point x="394" y="96"/>
      <point x="268" y="282"/>
      <point x="268" y="644" type="curve" smooth="yes"/>
      <point x="268" y="1008"/>
      <point x="460" y="1394"/>
      <point x="776" y="1394" type="curve" smooth="yes"/>
      <point x="1008" y="1394"/>
      <point x="1122" y="1206"/>
      <point x="1122" y="844" type="curve" smooth="yes"/>
      <point x="1122" y="476"/>
      <point x="940" y="96"/>
    </contour>
  </outline>
</glyph>
<glyph name="P" format="2">
  <advance width="1152"/>
  <unicode hex="0050"/>
  <note>
P
</note>
  <anchor x="502" y="0" name="bottom"/>
  <anchor x="700" y="1494" name="top"/>
  <outline>
    <contour>
      <point x="118" y="0" type="line"/>
      <point x="264" y="0" type="line"/>
      <point x="332" y="528" type="line"/>
      <point x="400" y="518"/>
      <point x="470" y="514"/>
      <point x="540" y="514" type="curve" smooth="yes"/>
      <point x="772" y="514"/>
      <point x="960" y="616"/>
      <point x="1062" y="796" type="curve" smooth="yes"/>
      <point x="1112" y="886"/>
      <point x="1138" y="992"/>
      <point x="1138" y="1114" type="curve" smooth="yes"/>
      <point x="1138" y="1380"/>
      <point x="986" y="1510"/>
      <point x="692" y="1510" type="curve" smooth="yes"/>
      <point x="648" y="1510"/>
      <point x="436" y="1494"/>
      <point x="392" y="1494" type="curve" smooth="yes"/>
      <point x="306" y="1494" type="line"/>
    </contour>
    <contour>
      <point x="536" y="630" type="curve" smooth="yes"/>
      <point x="478" y="630"/>
      <point x="386" y="638"/>
      <point x="346" y="646" type="curve"/>
      <point x="438" y="1380" type="line"/>
      <point x="540" y="1394"/>
      <point x="616" y="1400"/>
      <point x="670" y="1400" type="curve" smooth="yes"/>
      <point x="884" y="1400"/>
      <point x="990" y="1304"/>
      <point x="990" y="1122" type="curve" smooth="yes"/>
      <point x="990" y="802"/>
      <point x="832" y="630"/>
    </contour>
  </outline>
</glyph>
<glyph name="Q" format="2">
  <advance width="1346"/>
  <unicode hex="0051"/>
  <note>
Q
</note>
  <outline>
    <contour>
      <point x="890" y="-350" type="curve" smooth="yes"/>
      <point x="1008" y="-350"/>
      <point x="1138" y="-328"/>
      <point x="1188" y="-294" type="curve"/>
      <point x="1188" y="-180" type="line"/>
      <point x="1132" y="-204"/>
      <point x="1042" y="-214"/>
      <point x="976" y="-214" type="curve" smooth="yes"/>
      <point x="800" y="-214"/>
      <point x="670" y="-162"/>
      <point x="670" y="-22" type="curve" smooth="yes"/>
      <point x="670" y="-10"/>
      <point x="670" y="18"/>
      <point x="670" y="22" type="curve"/>
      <point x="564" y="22" type="line"/>
      <point x="562" y="4"/>
      <point x="562" y="-48"/>
      <point x="562" y="-62" type="curve" smooth="yes"/>
      <point x="562" y="-244"/>
      <point x="702" y="-350"/>
    </contour>
    <component base="O"/>
  </outline>
</glyph>
<glyph name="R" format="2">
  <advance width="1226"/>
  <unicode hex="0052"/>
  <note>
R
</note>
  <anchor x="540" y="0" name="bottom"/>
  <anchor x="684" y="1494" name="top"/>
  <outline>
    <contour>
      <point x="118" y="0" type="line"/>
      <point x="264" y="0" type="line"/>
      <point x="344" y="642" type="line"/>
      <point x="590" y="640" type="line" smooth="yes"/>
      <point x="684" y="640"/>
      <point x="776" y="434"/>
      <point x="808" y="330" type="curve" smooth="yes"/>
      <point x="888" y="122"/>
      <point x="926" y="38"/>
      <point x="950" y="0" type="curve"/>
      <point x="1118" y="0" type="line"/>
      <point x="1080" y="48"/>
      <point x="1034" y="164"/>
      <point x="962" y="330" type="curve" smooth="yes"/>
      <point x="920" y="442"/>
      <point x="838" y="612"/>
      <point x="780" y="662" type="curve"/>
      <point x="1006" y="724"/>
      <point x="1142" y="916"/>
      <point x="1142" y="1154" type="curve" smooth="yes"/>
      <point x="1142" y="1386"/>
      <point x="980" y="1510"/>
      <point x="682" y="1510" type="curve" smooth="yes"/>
      <point x="628" y="1510"/>
      <point x="488" y="1494"/>
      <point x="378" y="1494" type="curve" smooth="yes"/>
      <point x="304" y="1494" type="line"/>
    </contour>
    <contour>
      <point x="622" y="758" type="curve" smooth="yes"/>
      <point x="460" y="758"/>
      <point x="390" y="758"/>
      <point x="360" y="760" type="curve"/>
      <point x="438" y="1380" type="line"/>
      <point x="492" y="1388"/>
      <point x="614" y="1396"/>
      <point x="662" y="1396" type="curve" smooth="yes"/>
      <point x="876" y="1396"/>
      <point x="982" y="1314"/>
      <point x="982" y="1148" type="curve" smooth="yes"/>
      <point x="982" y="928"/>
      <point x="850" y="758"/>
    </contour>
  </outline>
</glyph>
<glyph name="S" format="2">
  <advance width="1020"/>
  <unicode hex="0053"/>
  <note>
S
</note>
  <anchor x="436" y="0" name="bottom"/>
  <anchor x="628" y="1494" name="top"/>
  <outline>
    <contour>
      <point x="394" y="-16" type="curve" smooth="yes"/>
      <point x="672" y="-16"/>
      <point x="900" y="116"/>
      <point x="900" y="392" type="curve" smooth="yes"/>
      <point x="900" y="580"/>
      <point x="788" y="678"/>
      <point x="596" y="804" type="curve" smooth="yes"/>
      <point x="426" y="916"/>
      <point x="330" y="988"/>
      <point x="330" y="1152" type="curve" smooth="yes"/>
      <point x="330" y="1336"/>
      <point x="478" y="1398"/>
      <point x="640" y="1398" type="curve" smooth="yes"/>
      <point x="752" y="1398"/>
      <point x="866" y="1368"/>
      <point x="920" y="1314" type="curve"/>
      <point x="968" y="1428" type="line"/>
      <point x="890" y="1482"/>
      <point x="776" y="1510"/>
      <point x="630" y="1510" type="curve" smooth="yes"/>
      <point x="384" y="1510"/>
      <point x="182" y="1380"/>
      <point x="182" y="1132" type="curve" smooth="yes"/>
      <point x="182" y="932"/>
      <point x="308" y="818"/>
      <point x="510" y="686" type="curve" smooth="yes"/>
      <point x="672" y="582"/>
      <point x="748" y="494"/>
      <point x="748" y="366" type="curve" smooth="yes"/>
      <point x="748" y="188"/>
      <point x="592" y="100"/>
      <point x="398" y="100" type="curve" smooth="yes"/>
      <point x="284" y="100"/>
      <point x="110" y="142"/>
      <point x="70" y="192" type="curve"/>
      <point x="28" y="72" type="line"/>
      <point x="82" y="28"/>
      <point x="276" y="-16"/>
    </contour>
  </outline>
</glyph>
<glyph name="T" format="2">
  <advance width="1096"/>
  <unicode hex="0054"/>
  <note>
T
</note>
  <anchor x="474" y="0" name="bottom"/>
  <anchor x="574" y="748" name="center"/>
  <anchor x="672" y="1494" name="top"/>
  <outline>
    <contour>
      <point x="400" y="0" type="line"/>
      <point x="546" y="0" type="line"/>
      <point x="722" y="1386" type="line"/>
      <point x="1154" y="1376" type="line"/>
      <point x="1170" y="1494" type="line"/>
      <point x="152" y="1494" type="line"/>
      <point x="134" y="1376" type="line"/>
      <point x="576" y="1386" type="line"/>
    </contour>
  </outline>
</glyph>
<glyph name="U" format="2">
  <advance width="1328"/>
  <unicode hex="0055"/>
  <note>
U
</note>
  <anchor x="590" y="0" name="bottom"/>
  <anchor x="736" y="0" name="ogonek"/>
  <anchor x="768" y="1494" name="top"/>
  <anchor x="1412" y="1494" name="topright"/>
  <outline>
    <contour>
      <point x="588" y="-16" type="curve" smooth="yes"/>
      <point x="818" y="-16"/>
      <point x="974" y="62"/>
      <point x="1072" y="246" type="curve" smooth="yes"/>
      <point x="1120" y="338"/>
      <point x="1154" y="460"/>
      <point x="1174" y="612" type="curve" smooth="yes"/>
      <point x="1286" y="1494" type="line"/>
      <point x="1142" y="1494" type="line"/>
      <point x="1032" y="626" type="line" smooth="yes"/>
      <point x="992" y="306"/>
      <point x="888" y="104"/>
      <point x="608" y="104" type="curve" smooth="yes"/>
      <point x="402" y="104"/>
      <point x="300" y="224"/>
      <point x="300" y="434" type="curve" smooth="yes"/>
      <point x="300" y="484"/>
      <point x="304" y="542"/>
      <point x="312" y="604" type="curve" smooth="yes"/>
      <point x="424" y="1494" type="line"/>
      <point x="278" y="1494" type="line"/>
      <point x="162" y="580" type="line" smooth="yes"/>
      <point x="154" y="508"/>
      <point x="150" y="456"/>
      <point x="150" y="424" type="curve" smooth="yes"/>
      <point x="150" y="142"/>
      <point x="302" y="-16"/>
    </contour>
  </outline>
</glyph>
<glyph name="V" format="2">
  <advance width="1142"/>
  <unicode hex="0056"/>
  <note>
V
</note>
  <anchor x="498" y="0" name="bottom"/>
  <anchor x="696" y="1494" name="top"/>
  <outline>
    <contour>
      <point x="398" y="-4" type="line"/>
      <point x="556" y="-4" type="line"/>
      <point x="1234" y="1494" type="line"/>
      <point x="1078" y="1494" type="line"/>
      <point x="612" y="424" type="line"/>
      <point x="500" y="148" type="line"/>
      <point x="460" y="424" type="line"/>
      <point x="296" y="1494" type="line"/>
      <point x="150" y="1494" type="line"/>
    </contour>
  </outline>
</glyph>
<glyph name="W" format="2">
  <advance width="1728"/>
  <unicode hex="0057"/>
  <note>
W
</note>
  <anchor x="790" y="0" name="bottom"/>
  <anchor x="988" y="1494" name="top"/>
  <outline>
    <contour>
      <point x="372" y="-10" type="line"/>
      <point x="522" y="-10" type="line"/>
      <point x="854" y="830" type="line"/>
      <point x="936" y="1060" type="line"/>
      <point x="954" y="830" type="line"/>
      <point x="1042" y="-10" type="line"/>
      <point x="1192" y="-10" type="line"/>
      <point x="1824" y="1494" type="line"/>
      <point x="1674" y="1494" type="line"/>
      <point x="1242" y="416" type="line"/>
      <point x="1146" y="162" type="line"/>
      <point x="1126" y="424" type="line"/>
      <point x="1020" y="1494" type="line"/>
      <point x="878" y="1494" type="line"/>
      <point x="902" y="1274" type="line"/>
      <point x="558" y="416" type="line"/>
      <point x="474" y="162" type="line"/>
      <point x="434" y="424" type="line"/>
      <point x="292" y="1494" type="line"/>
      <point x="146" y="1494" type="line"/>
    </contour>
  </outline>
</glyph>
<glyph name="X" format="2">
  <advance width="1120"/>
  <unicode hex="0058"/>
  <note>
X
</note>
  <anchor x="486" y="0" name="bottom"/>
  <anchor x="684" y="1494" name="top"/>
  <outline>
    <contour>
      <point x="-34" y="0" type="line"/>
      <point x="144" y="0" type="line"/>
      <point x="564" y="640" type="line"/>
      <point x="832" y="0" type="line"/>
      <point x="1000" y="0" type="line"/>
      <point x="660" y="740" type="line"/>
      <point x="1184" y="1494" type="line"/>
      <point x="1018" y="1494" type="line"/>
      <point x="604" y="874" type="line"/>
      <point x="354" y="1494" type="line"/>
      <point x="192" y="1494" type="line"/>
      <point x="508" y="770" type="line"/>
    </contour>
  </outline>
</glyph>
<glyph name="Y" format="2">
  <advance width="1058"/>
  <unicode hex="0059"/>
  <note>
Y
</note>
  <anchor x="456" y="0" name="bottom"/>
  <anchor x="654" y="1494" name="top"/>
  <anchor x="164" y="1494" name="topleft"/>
  <outline>
    <contour>
      <point x="392" y="0" type="line"/>
      <point x="534" y="0" type="line"/>
      <point x="606" y="572" type="line"/>
      <point x="1184" y="1494" type="line"/>
      <point x="1026" y="1494" type="line"/>
      <point x="608" y="800" type="line"/>
      <point x="554" y="700" type="line"/>
      <point x="514" y="800" type="line"/>
      <point x="260" y="1494" type="line"/>
      <point x="102" y="1494" type="line"/>
      <point x="466" y="572" type="line"/>
    </contour>
  </outline>
</glyph>
<glyph name="Z" format="2">
  <advance width="1130"/>
  <unicode hex="005A"/>
  <note>
Z
</note>
  <anchor x="492" y="0" name="bottom"/>
  <anchor x="592" y="748" name="center"/>
  <anchor x="730" y="1494" name="top"/>
  <outline>
    <contour>
      <point x="36" y="0" type="line"/>
      <point x="982" y="0" type="line"/>
      <point x="1002" y="126" type="line"/>
      <point x="210" y="118" type="line"/>
      <point x="332" y="262" type="line"/>
      <point x="1154" y="1430" type="line"/>
      <point x="1136" y="1494" type="line"/>
      <point x="254" y="1494" type="line"/>
      <point x="238" y="1370" type="line"/>
      <point x="964" y="1380" type="line"/>
      <point x="818" y="1198" type="line"/>
      <point x="14" y="68" type="line"/>
    </contour>
  </outline>
</glyph>
<glyph name="bracketleft" format="2">
  <advance width="698"/>
  <unicode hex="005B"/>
  <note>
bracketleft
</note>
  <outline>
    <contour>
      <point x="214" y="-168" type="curve" smooth="yes"/>
      <point x="302" y="-168"/>
      <point x="414" y="-154"/>
      <point x="504" y="-132" type="curve"/>
      <point x="510" y="-68" type="line"/>
      <point x="222" y="-66" type="line"/>
      <point x="446" y="1570" type="line"/>
      <point x="732" y="1570" type="line"/>
      <point x="740" y="1634" type="line"/>
      <point x="658" y="1652"/>
      <point x="526" y="1670"/>
      <point x="468" y="1670" type="curve" smooth="yes"/>
      <point x="346" y="1670"/>
      <point x="314" y="1622"/>
      <point x="296" y="1484" type="curve" smooth="yes"/>
      <point x="90" y="20" type="line" smooth="yes"/>
      <point x="88" y="-10"/>
      <point x="84" y="-40"/>
      <point x="84" y="-64" type="curve" smooth="yes"/>
      <point x="84" y="-144"/>
      <point x="120" y="-168"/>
    </contour>
  </outline>
</glyph>
<glyph name="bracketright" format="2">
  <advance width="698"/>
  <unicode hex="005D"/>
  <note>
bracketright
</note>
  <outline>
    <contour>
      <point x="536" y="1676" type="curve" smooth="yes"/>
      <point x="448" y="1676"/>
      <point x="336" y="1662"/>
      <point x="246" y="1640" type="curve"/>
      <point x="240" y="1576" type="line"/>
      <point x="528" y="1574" type="line"/>
      <point x="304" y="-62" type="line"/>
      <point x="18" y="-62" type="line"/>
      <point x="10" y="-126" type="line"/>
      <point x="92" y="-144"/>
      <point x="224" y="-162"/>
      <point x="282" y="-162" type="curve" smooth="yes"/>
      <point x="404" y="-162"/>
      <point x="436" y="-114"/>
      <point x="454" y="24" type="curve" smooth="yes"/>
      <point x="660" y="1488" type="line" smooth="yes"/>
      <point x="662" y="1518"/>
      <point x="666" y="1548"/>
      <point x="666" y="1572" type="curve" smooth="yes"/>
      <point x="666" y="1652"/>
      <point x="630" y="1676"/>
    </contour>
  </outline>
</glyph>
<glyph name="asciicircum" format="2">
  <advance width="1326"/>
  <unicode hex="005E"/>
  <note>
asciicircum
</note>
  <outline>
    <contour>
      <point x="182" y="498" type="line"/>
      <point x="314" y="498" type="line"/>
      <point x="750" y="1352" type="line"/>
      <point x="970" y="498" type="line"/>
      <point x="1098" y="498" type="line"/>
      <point x="836" y="1494" type="line"/>
      <point x="688" y="1494" type="line"/>
    </contour>
  </outline>
</glyph>
<glyph name="underscore" format="2">
  <advance width="1304"/>
  <unicode hex="005F"/>
  <note>
underscore
</note>
  <outline>
    <contour>
      <point x="-108" y="-330" type="line"/>
      <point x="1238" y="-330" type="line"/>
      <point x="1252" y="-218" type="line"/>
      <point x="-94" y="-218" type="line"/>
    </contour>
  </outline>
</glyph>
<glyph name="grave" format="2">
  <advance width="528"/>
  <unicode hex="0060"/>
  <note>
grave
</note>
  <outline>
    <contour>
      <point x="406" y="1220" type="curve"/>
      <point x="470" y="1274" type="line"/>
      <point x="182" y="1662" type="line"/>
      <point x="70" y="1560" type="line"/>
      <point x="130" y="1462"/>
      <point x="302" y="1296"/>
    </contour>
  </outline>
</glyph>
<glyph name="a" format="2">
  <advance width="1104"/>
  <unicode hex="0061"/>
  <note>
a
</note>
  <anchor x="418" y="0" name="bottom"/>
  <anchor x="864" y="0" name="ogonek"/>
  <anchor x="684" y="1114" name="top"/>
  <outline>
    <contour>
      <point x="390" y="-16" type="curve" smooth="yes"/>
      <point x="536" y="-16"/>
      <point x="672" y="82"/>
      <point x="754" y="198" type="curve"/>
      <point x="736" y="0" type="line"/>
      <point x="864" y="0" type="line"/>
      <point x="1016" y="1128" type="line"/>
      <point x="906" y="1094" type="line"/>
      <point x="840" y="1116"/>
      <point x="760" y="1128"/>
      <point x="698" y="1128" type="curve" smooth="yes"/>
      <point x="324" y="1128"/>
      <point x="80" y="792"/>
      <point x="80" y="406" type="curve" smooth="yes"/>
      <point x="80" y="144"/>
      <point x="184" y="-16"/>
    </contour>
    <contour>
      <point x="414" y="98" type="curve" smooth="yes"/>
      <point x="294" y="98"/>
      <point x="230" y="206"/>
      <point x="230" y="422" type="curve" smooth="yes"/>
      <point x="230" y="608"/>
      <point x="300" y="810"/>
      <point x="434" y="932" type="curve" smooth="yes"/>
      <point x="500" y="992"/>
      <point x="580" y="1022"/>
      <point x="674" y="1022" type="curve" smooth="yes"/>
      <point x="736" y="1022"/>
      <point x="804" y="1008"/>
      <point x="854" y="984" type="curve"/>
      <point x="772" y="364" type="line"/>
      <point x="698" y="236"/>
      <point x="564" y="98"/>
    </contour>
  </outline>
</glyph>
<glyph name="b" format="2">
  <advance width="1132"/>
  <unicode hex="0062"/>
  <note>
b
</note>
  <anchor x="492" y="0" name="bottom"/>
  <anchor x="734" y="1114" name="top"/>
  <outline>
    <contour>
      <point x="410" y="-16" type="curve" smooth="yes"/>
      <point x="676" y="-16"/>
      <point x="870" y="152"/>
      <point x="966" y="376" type="curve" smooth="yes"/>
      <point x="1012" y="486"/>
      <point x="1036" y="596"/>
      <point x="1036" y="706" type="curve" smooth="yes"/>
      <point x="1036" y="968"/>
      <point x="930" y="1128"/>
      <point x="724" y="1128" type="curve" smooth="yes"/>
      <point x="574" y="1128"/>
      <point x="438" y="1034"/>
      <point x="352" y="916" type="curve"/>
      <point x="386" y="1120" type="line"/>
      <point x="444" y="1598" type="line"/>
      <point x="306" y="1598" type="line"/>
      <point x="92" y="2" type="line"/>
      <point x="174" y="28" type="line"/>
      <point x="240" y="4"/>
      <point x="338" y="-16"/>
    </contour>
    <contour>
      <point x="432" y="92" type="curve" smooth="yes"/>
      <point x="370" y="92"/>
      <point x="304" y="104"/>
      <point x="254" y="126" type="curve"/>
      <point x="340" y="766" type="line"/>
      <point x="416" y="888"/>
      <point x="550" y="1016"/>
      <point x="700" y="1016" type="curve" smooth="yes"/>
      <point x="820" y="1016"/>
      <point x="884" y="906"/>
      <point x="884" y="690" type="curve" smooth="yes"/>
      <point x="884" y="512"/>
      <point x="816" y="310"/>
      <point x="680" y="186" type="curve" smooth="yes"/>
      <point x="610" y="124"/>
      <point x="528" y="92"/>
    </contour>
  </outline>
</glyph>
<glyph name="c" format="2">
  <advance width="890"/>
  <unicode hex="0063"/>
  <note>
c
</note>
  <anchor x="450" y="0" name="bottom"/>
  <anchor x="638" y="1114" name="top"/>
  <outline>
    <contour>
      <point x="450" y="-16" type="curve" smooth="yes"/>
      <point x="608" y="-16"/>
      <point x="734" y="72"/>
      <point x="800" y="160" type="curve"/>
      <point x="750" y="240" type="line"/>
      <point x="656" y="144"/>
      <point x="576" y="96"/>
      <point x="472" y="96" type="curve" smooth="yes"/>
      <point x="314" y="96"/>
      <point x="236" y="204"/>
      <point x="236" y="438" type="curve" smooth="yes"/>
      <point x="236" y="640"/>
      <point x="316" y="834"/>
      <point x="438" y="940" type="curve" smooth="yes"/>
      <point x="500" y="994"/>
      <point x="564" y="1020"/>
      <point x="634" y="1020" type="curve" smooth="yes"/>
      <point x="708" y="1020"/>
      <point x="778" y="1002"/>
      <point x="824" y="964" type="curve"/>
      <point x="862" y="1088" type="line"/>
      <point x="812" y="1114"/>
      <point x="726" y="1128"/>
      <point x="648" y="1128" type="curve" smooth="yes"/>
      <point x="416" y="1128"/>
      <point x="240" y="970"/>
      <point x="152" y="750" type="curve" smooth="yes"/>
      <point x="108" y="640"/>
      <point x="86" y="530"/>
      <point x="86" y="422" type="curve" smooth="yes"/>
      <point x="86" y="148"/>
      <point x="216" y="-16"/>
    </contour>
  </outline>
</glyph>
<glyph name="d" format="2">
  <advance width="1122"/>
  <unicode hex="0064"/>
  <note>
d
</note>
  <anchor x="488" y="0" name="bottom"/>
  <anchor x="562" y="558" name="center"/>
  <anchor x="530" y="1114" name="top"/>
  <anchor x="1156" y="1114" name="topright"/>
  <outline>
    <contour>
      <point x="388" y="-16" type="curve" smooth="yes"/>
      <point x="538" y="-16"/>
      <point x="678" y="84"/>
      <point x="760" y="204" type="curve"/>
      <point x="740" y="0" type="line"/>
      <point x="870" y="0" type="line"/>
      <point x="1088" y="1598" type="line"/>
      <point x="944" y="1598" type="line"/>
      <point x="876" y="1104" type="line"/>
      <point x="810" y="1120"/>
      <point x="752" y="1128"/>
      <point x="702" y="1128" type="curve" smooth="yes"/>
      <point x="432" y="1128"/>
      <point x="242" y="962"/>
      <point x="148" y="738" type="curve" smooth="yes"/>
      <point x="102" y="626"/>
      <point x="78" y="516"/>
      <point x="78" y="406" type="curve" smooth="yes"/>
      <point x="78" y="144"/>
      <point x="182" y="-16"/>
    </contour>
    <contour>
      <point x="414" y="98" type="curve" smooth="yes"/>
      <point x="294" y="98"/>
      <point x="228" y="208"/>
      <point x="228" y="424" type="curve" smooth="yes"/>
      <point x="228" y="602"/>
      <point x="298" y="806"/>
      <point x="436" y="930" type="curve" smooth="yes"/>
      <point x="504" y="992"/>
      <point x="586" y="1022"/>
      <point x="680" y="1022" type="curve" smooth="yes"/>
      <point x="742" y="1022"/>
      <point x="806" y="1010"/>
      <point x="860" y="988" type="curve"/>
      <point x="772" y="354" type="line"/>
      <point x="696" y="230"/>
      <point x="562" y="98"/>
    </contour>
  </outline>
</glyph>
<glyph name="e" format="2">
  <advance width="1006"/>
  <unicode hex="0065"/>
  <note>
e
</note>
  <anchor x="490" y="0" name="bottom"/>
  <anchor x="562" y="0" name="ogonek"/>
  <anchor x="658" y="1114" name="top"/>
  <outline>
    <contour>
      <point x="468" y="-16" type="curve" smooth="yes"/>
      <point x="600" y="-16"/>
      <point x="806" y="100"/>
      <point x="866" y="182" type="curve"/>
      <point x="824" y="266" type="line"/>
      <point x="718" y="156"/>
      <point x="594" y="100"/>
      <point x="484" y="100" type="curve" smooth="yes"/>
      <point x="308" y="100"/>
      <point x="240" y="232"/>
      <point x="240" y="400" type="curve" smooth="yes"/>
      <point x="240" y="414"/>
      <point x="240" y="426"/>
      <point x="242" y="432" type="curve"/>
      <point x="594" y="468"/>
      <point x="936" y="618"/>
      <point x="936" y="884" type="curve" smooth="yes"/>
      <point x="936" y="1038"/>
      <point x="810" y="1128"/>
      <point x="664" y="1128" type="curve" smooth="yes"/>
      <point x="446" y="1128"/>
      <point x="268" y="998"/>
      <point x="168" y="786" type="curve" smooth="yes"/>
      <point x="118" y="680"/>
      <point x="90" y="560"/>
      <point x="88" y="430" type="curve" smooth="yes"/>
      <point x="82" y="276"/>
      <point x="134" y="134"/>
      <point x="248" y="48" type="curve" smooth="yes"/>
      <point x="306" y="6"/>
      <point x="378" y="-16"/>
    </contour>
    <contour>
      <point x="246" y="538" type="curve"/>
      <point x="260" y="690"/>
      <point x="332" y="852"/>
      <point x="446" y="948" type="curve" smooth="yes"/>
      <point x="502" y="994"/>
      <point x="564" y="1018"/>
      <point x="632" y="1018" type="curve" smooth="yes"/>
      <point x="734" y="1018"/>
      <point x="792" y="970"/>
      <point x="792" y="872" type="curve" smooth="yes"/>
      <point x="792" y="674"/>
      <point x="478" y="544"/>
    </contour>
  </outline>
</glyph>
<glyph name="f" format="2">
  <advance width="678"/>
  <unicode hex="0066"/>
  <note>
f
</note>
  <anchor x="266" y="0" name="bottom"/>
  <anchor x="620" y="1612" name="top"/>
  <outline>
    <contour>
      <point x="164" y="0" type="line"/>
      <point x="308" y="0" type="line"/>
      <point x="442" y="998" type="line"/>
      <point x="686" y="998" type="line"/>
      <point x="696" y="1114" type="line"/>
      <point x="458" y="1114" type="line"/>
      <point x="478" y="1272" type="line" smooth="yes"/>
      <point x="498" y="1408"/>
      <point x="580" y="1526"/>
      <point x="702" y="1526" type="curve" smooth="yes"/>
      <point x="758" y="1526"/>
      <point x="802" y="1516"/>
      <point x="832" y="1496" type="curve"/>
      <point x="868" y="1614" type="line"/>
      <point x="822" y="1632"/>
      <point x="778" y="1638"/>
      <point x="720" y="1638" type="curve" smooth="yes"/>
      <point x="576" y="1638"/>
      <point x="462" y="1568"/>
      <point x="396" y="1448" type="curve" smooth="yes"/>
      <point x="362" y="1386"/>
      <point x="340" y="1316"/>
      <point x="330" y="1234" type="curve" smooth="yes"/>
      <point x="312" y="1114" type="line"/>
      <point x="170" y="1112" type="line"/>
      <point x="148" y="998" type="line"/>
      <point x="296" y="998" type="line"/>
    </contour>
  </outline>
</glyph>
<glyph name="g" format="2">
  <advance width="1122"/>
  <unicode hex="0067"/>
  <note>
g
</note>
  <anchor x="416" y="-546" name="bottom"/>
  <anchor x="700" y="1114" name="top"/>
  <outline>
    <contour>
      <point x="362" y="-494" type="curve" smooth="yes"/>
      <point x="506" y="-494"/>
      <point x="654" y="-444"/>
      <point x="760" y="-324" type="curve" smooth="yes"/>
      <point x="812" y="-262"/>
      <point x="844" y="-184"/>
      <point x="858" y="-86" type="curve" smooth="yes"/>
      <point x="1030" y="1128" type="line"/>
      <point x="916" y="1094" type="line"/>
      <point x="852" y="1112"/>
      <point x="766" y="1128"/>
      <point x="702" y="1128" type="curve" smooth="yes"/>
      <point x="432" y="1128"/>
      <point x="242" y="962"/>
      <point x="148" y="738" type="curve" smooth="yes"/>
      <point x="102" y="626"/>
      <point x="78" y="516"/>
      <point x="78" y="406" type="curve" smooth="yes"/>
      <point x="78" y="144"/>
      <point x="182" y="-16"/>
      <point x="388" y="-16" type="curve" smooth="yes"/>
      <point x="538" y="-16"/>
      <point x="678" y="84"/>
      <point x="760" y="204" type="curve"/>
      <point x="712" y="-90" type="line" smooth="yes"/>
      <point x="680" y="-280"/>
      <point x="568" y="-382"/>
      <point x="390" y="-382" type="curve" smooth="yes"/>
      <point x="300" y="-382"/>
      <point x="208" y="-362"/>
      <point x="150" y="-336" type="curve"/>
      <point x="112" y="-458" type="line"/>
      <point x="152" y="-476"/>
      <point x="276" y="-494"/>
    </contour>
    <contour>
      <point x="414" y="98" type="curve" smooth="yes"/>
      <point x="294" y="98"/>
      <point x="228" y="208"/>
      <point x="228" y="424" type="curve" smooth="yes"/>
      <point x="228" y="602"/>
      <point x="298" y="802"/>
      <point x="436" y="928" type="curve" smooth="yes"/>
      <point x="504" y="990"/>
      <point x="586" y="1022"/>
      <point x="680" y="1022" type="curve" smooth="yes"/>
      <point x="742" y="1022"/>
      <point x="810" y="1008"/>
      <point x="864" y="986" type="curve"/>
      <point x="770" y="350" type="line"/>
      <point x="694" y="228"/>
      <point x="556" y="98"/>
    </contour>
  </outline>
</glyph>
<glyph name="h" format="2">
  <advance width="1170"/>
  <unicode hex="0068"/>
  <note>
h
</note>
  <anchor x="512" y="0" name="bottom"/>
  <anchor x="642" y="984" name="center"/>
  <anchor x="370" y="1516" name="top"/>
  <outline>
    <contour>
      <point x="94" y="0" type="line"/>
      <point x="240" y="0" type="line"/>
      <point x="334" y="704" type="line"/>
      <point x="426" y="830"/>
      <point x="612" y="994"/>
      <point x="754" y="994" type="curve" smooth="yes"/>
      <point x="856" y="994"/>
      <point x="890" y="948"/>
      <point x="890" y="842" type="curve" smooth="yes"/>
      <point x="890" y="776"/>
      <point x="876" y="686"/>
      <point x="850" y="500" type="curve" smooth="yes"/>
      <point x="846" y="476"/>
      <point x="782" y="44"/>
      <point x="774" y="0" type="curve"/>
      <point x="920" y="0" type="line"/>
      <point x="1002" y="522"/>
      <point x="1038" y="782"/>
      <point x="1038" y="854" type="curve" smooth="yes"/>
      <point x="1038" y="1040"/>
      <point x="970" y="1128"/>
      <point x="812" y="1128" type="curve" smooth="yes"/>
      <point x="652" y="1128"/>
      <point x="474" y="1008"/>
      <point x="348" y="850" type="curve"/>
      <point x="392" y="1130" type="line"/>
      <point x="446" y="1598" type="line"/>
      <point x="300" y="1598" type="line"/>
    </contour>
  </outline>
</glyph>
<glyph name="i" format="2">
  <advance width="550"/>
  <unicode hex="0069"/>
  <note>
i
</note>
  <anchor x="202" y="0" name="bottom"/>
  <outline>
    <contour>
      <point x="130" y="0" type="line"/>
      <point x="274" y="0" type="line"/>
      <point x="426" y="1118" type="line"/>
      <point x="280" y="1118" type="line"/>
    </contour>
    <contour>
      <point x="394" y="1374" type="curve" smooth="yes"/>
      <point x="454" y="1374"/>
      <point x="508" y="1432"/>
      <point x="508" y="1498" type="curve" smooth="yes"/>
      <point x="508" y="1548"/>
      <point x="472" y="1584"/>
      <point x="418" y="1584" type="curve" smooth="yes"/>
      <point x="360" y="1584"/>
      <point x="310" y="1528"/>
      <point x="310" y="1464" type="curve" smooth="yes"/>
      <point x="310" y="1410"/>
      <point x="346" y="1374"/>
    </contour>
  </outline>
</glyph>
<glyph name="j" format="2">
  <advance width="562"/>
  <unicode hex="006A"/>
  <note>
j
</note>
  <outline>
    <contour>
      <point x="-106" y="-502" type="curve" smooth="yes"/>
      <point x="104" y="-502"/>
      <point x="242" y="-318"/>
      <point x="284" y="4" type="curve" smooth="yes"/>
      <point x="434" y="1118" type="line"/>
      <point x="288" y="1118" type="line"/>
      <point x="146" y="58" type="line" smooth="yes"/>
      <point x="114" y="-192"/>
      <point x="62" y="-402"/>
      <point x="-126" y="-402" type="curve" smooth="yes"/>
      <point x="-152" y="-402"/>
      <point x="-186" y="-392"/>
      <point x="-200" y="-382" type="curve"/>
      <point x="-238" y="-466" type="line"/>
      <point x="-212" y="-488"/>
      <point x="-164" y="-502"/>
    </contour>
    <contour>
      <point x="384" y="1374" type="curve" smooth="yes"/>
      <point x="444" y="1374"/>
      <point x="498" y="1432"/>
      <point x="498" y="1498" type="curve" smooth="yes"/>
      <point x="498" y="1548"/>
      <point x="462" y="1584"/>
      <point x="408" y="1584" type="curve" smooth="yes"/>
      <point x="350" y="1584"/>
      <point x="300" y="1528"/>
      <point x="300" y="1464" type="curve" smooth="yes"/>
      <point x="300" y="1410"/>
      <point x="336" y="1374"/>
    </contour>
  </outline>
</glyph>
<glyph name="k" format="2">
  <advance width="1000"/>
  <unicode hex="006B"/>
  <note>
k
</note>
  <anchor x="426" y="0" name="bottom"/>
  <anchor x="686" y="1966" name="top"/>
  <outline>
    <contour>
      <point x="94" y="0" type="line"/>
      <point x="240" y="0" type="line"/>
      <point x="442" y="1598" type="line"/>
      <point x="298" y="1598" type="line"/>
    </contour>
    <contour>
      <point x="776" y="2" type="line"/>
      <point x="944" y="2" type="line"/>
      <point x="534" y="592" type="line"/>
      <point x="752" y="696"/>
      <point x="958" y="894"/>
      <point x="980" y="1114" type="curve"/>
      <point x="840" y="1114" type="line"/>
      <point x="764" y="874"/>
      <point x="604" y="750"/>
      <point x="366" y="614" type="curve"/>
    </contour>
  </outline>
</glyph>
<glyph name="l" format="2">
  <advance width="550"/>
  <unicode hex="006C"/>
  <note>
l
</note>
  <anchor x="208" y="0" name="bottom"/>
  <anchor x="332" y="984" name="center"/>
  <anchor x="414" y="1556" name="top"/>
  <anchor x="634" y="1422" name="topright"/>
  <outline>
    <contour>
      <point x="130" y="2" type="line"/>
      <point x="276" y="2" type="line"/>
      <point x="492" y="1598" type="line"/>
      <point x="348" y="1598" type="line"/>
    </contour>
  </outline>
</glyph>
<glyph name="m" format="2">
  <advance width="1740"/>
  <unicode hex="006D"/>
  <note>
m
</note>
  <anchor x="796" y="0" name="bottom"/>
  <anchor x="944" y="1114" name="top"/>
  <outline>
    <contour>
      <point x="90" y="2" type="line"/>
      <point x="236" y="2" type="line"/>
      <point x="332" y="708" type="line"/>
      <point x="404" y="820"/>
      <point x="606" y="996"/>
      <point x="714" y="996" type="curve" smooth="yes"/>
      <point x="810" y="996"/>
      <point x="846" y="952"/>
      <point x="846" y="842" type="curve" smooth="yes"/>
      <point x="846" y="776"/>
      <point x="832" y="684"/>
      <point x="806" y="500" type="curve" smooth="yes"/>
      <point x="760" y="194"/>
      <point x="742" y="76"/>
      <point x="732" y="2" type="curve"/>
      <point x="876" y="2" type="line"/>
      <point x="928" y="342"/>
      <point x="950" y="474"/>
      <point x="956" y="528" type="curve" smooth="yes"/>
      <point x="974" y="642"/>
      <point x="984" y="724"/>
      <point x="988" y="772" type="curve"/>
      <point x="1092" y="898"/>
      <point x="1232" y="994"/>
      <point x="1330" y="994" type="curve" smooth="yes"/>
      <point x="1426" y="994"/>
      <point x="1462" y="948"/>
      <point x="1462" y="842" type="curve" smooth="yes"/>
      <point x="1462" y="780"/>
      <point x="1448" y="666"/>
      <point x="1422" y="500" type="curve" smooth="yes"/>
      <point x="1422" y="498"/>
      <point x="1360" y="88"/>
      <point x="1348" y="2" type="curve"/>
      <point x="1494" y="2" type="line"/>
      <point x="1540" y="296"/>
      <point x="1562" y="436"/>
      <point x="1570" y="500" type="curve" smooth="yes"/>
      <point x="1596" y="674"/>
      <point x="1610" y="792"/>
      <point x="1610" y="852" type="curve" smooth="yes"/>
      <point x="1610" y="1050"/>
      <point x="1538" y="1128"/>
      <point x="1388" y="1128" type="curve" smooth="yes"/>
      <point x="1252" y="1128"/>
      <point x="1104" y="1034"/>
      <point x="992" y="904" type="curve"/>
      <point x="982" y="1056"/>
      <point x="912" y="1128"/>
      <point x="774" y="1128" type="curve" smooth="yes"/>
      <point x="628" y="1128"/>
      <point x="466" y="1018"/>
      <point x="352" y="866" type="curve"/>
      <point x="380" y="1114" type="line"/>
      <point x="242" y="1114" type="line"/>
    </contour>
  </outline>
</glyph>
<glyph name="n" format="2">
  <advance width="1166"/>
  <unicode hex="006E"/>
  <note>
n
</note>
  <anchor x="510" y="0" name="bottom"/>
  <anchor x="658" y="1114" name="top"/>
  <outline>
    <contour>
      <point x="90" y="0" type="line"/>
      <point x="236" y="0" type="line"/>
      <point x="330" y="700" type="line"/>
      <point x="418" y="826"/>
      <point x="608" y="994"/>
      <point x="750" y="994" type="curve" smooth="yes"/>
      <point x="852" y="994"/>
      <point x="888" y="952"/>
      <point x="888" y="842" type="curve" smooth="yes"/>
      <point x="888" y="776"/>
      <point x="874" y="684"/>
      <point x="848" y="500" type="curve" smooth="yes"/>
      <point x="800" y="190"/>
      <point x="784" y="70"/>
      <point x="774" y="0" type="curve"/>
      <point x="918" y="0" type="line"/>
      <point x="970" y="338"/>
      <point x="984" y="438"/>
      <point x="994" y="500" type="curve" smooth="yes"/>
      <point x="1020" y="682"/>
      <point x="1036" y="792"/>
      <point x="1036" y="856" type="curve" smooth="yes"/>
      <point x="1036" y="1042"/>
      <point x="968" y="1128"/>
      <point x="810" y="1128" type="curve" smooth="yes"/>
      <point x="652" y="1128"/>
      <point x="476" y="1012"/>
      <point x="350" y="854" type="curve"/>
      <point x="378" y="1114" type="line"/>
      <point x="242" y="1114" type="line"/>
    </contour>
  </outline>
</glyph>
<glyph name="o" format="2">
  <advance width="1108"/>
  <unicode hex="006F"/>
  <note>
o
</note>
  <anchor x="480" y="0" name="bottom"/>
  <anchor x="554" y="558" name="center"/>
  <anchor x="587" y="0" name="ogonek"/>
  <anchor x="652" y="1114" name="top"/>
  <anchor x="1142" y="1114" name="topright"/>
  <outline>
    <contour>
      <point x="470" y="-16" type="curve" smooth="yes"/>
      <point x="678" y="-16"/>
      <point x="850" y="124"/>
      <point x="942" y="334" type="curve" smooth="yes"/>
      <point x="988" y="440"/>
      <point x="1010" y="550"/>
      <point x="1010" y="666" type="curve" smooth="yes"/>
      <point x="1010" y="962"/>
      <point x="886" y="1128"/>
      <point x="644" y="1128" type="curve" smooth="yes"/>
      <point x="436" y="1128"/>
      <point x="262" y="988"/>
      <point x="168" y="780" type="curve" smooth="yes"/>
      <point x="120" y="674"/>
      <point x="96" y="564"/>
      <point x="96" y="448" type="curve" smooth="yes"/>
      <point x="96" y="152"/>
      <point x="224" y="-16"/>
    </contour>
    <contour>
      <point x="494" y="94" type="curve" smooth="yes"/>
      <point x="328" y="94"/>
      <point x="246" y="220"/>
      <point x="246" y="450" type="curve" smooth="yes"/>
      <point x="246" y="708"/>
      <point x="374" y="1020"/>
      <point x="620" y="1020" type="curve" smooth="yes"/>
      <point x="786" y="1020"/>
      <point x="858" y="892"/>
      <point x="858" y="666" type="curve" smooth="yes"/>
      <point x="858" y="402"/>
      <point x="730" y="94"/>
    </contour>
  </outline>
</glyph>
<glyph name="p" format="2">
  <advance width="1134"/>
  <unicode hex="0070"/>
  <note>
p
</note>
  <anchor x="494" y="0" name="bottom"/>
  <anchor x="642" y="1114" name="top"/>
  <outline>
    <contour>
      <point x="26" y="-502" type="line"/>
      <point x="170" y="-502" type="line"/>
      <point x="238" y="8" type="line"/>
      <point x="302" y="-8"/>
      <point x="358" y="-16"/>
      <point x="406" y="-16" type="curve" smooth="yes"/>
      <point x="676" y="-16"/>
      <point x="868" y="150"/>
      <point x="962" y="374" type="curve" smooth="yes"/>
      <point x="1008" y="484"/>
      <point x="1032" y="596"/>
      <point x="1032" y="706" type="curve" smooth="yes"/>
      <point x="1032" y="968"/>
      <point x="928" y="1128"/>
      <point x="722" y="1128" type="curve" smooth="yes"/>
      <point x="570" y="1128"/>
      <point x="434" y="1028"/>
      <point x="348" y="914" type="curve"/>
      <point x="370" y="1114" type="line"/>
      <point x="240" y="1114" type="line"/>
    </contour>
    <contour>
      <point x="430" y="92" type="curve" smooth="yes"/>
      <point x="368" y="92"/>
      <point x="306" y="104"/>
      <point x="252" y="126" type="curve"/>
      <point x="336" y="762" type="line"/>
      <point x="410" y="884"/>
      <point x="550" y="1016"/>
      <point x="696" y="1016" type="curve" smooth="yes"/>
      <point x="814" y="1016"/>
      <point x="880" y="908"/>
      <point x="880" y="690" type="curve" smooth="yes"/>
      <point x="880" y="504"/>
      <point x="808" y="302"/>
      <point x="672" y="182" type="curve" smooth="yes"/>
      <point x="604" y="122"/>
      <point x="524" y="92"/>
    </contour>
  </outline>
</glyph>
<glyph name="q" format="2">
  <advance width="1120"/>
  <unicode hex="0071"/>
  <note>
q
</note>
  <anchor x="486" y="0" name="bottom"/>
  <anchor x="634" y="1114" name="top"/>
  <outline>
    <contour>
      <point x="658" y="-496" type="line"/>
      <point x="802" y="-496" type="line"/>
      <point x="1018" y="1132" type="line"/>
      <point x="902" y="1096" type="line"/>
      <point x="838" y="1114"/>
      <point x="764" y="1128"/>
      <point x="702" y="1128" type="curve" smooth="yes"/>
      <point x="330" y="1128"/>
      <point x="78" y="788"/>
      <point x="78" y="406" type="curve" smooth="yes"/>
      <point x="78" y="144"/>
      <point x="182" y="-16"/>
      <point x="388" y="-16" type="curve" smooth="yes"/>
      <point x="538" y="-16"/>
      <point x="672" y="82"/>
      <point x="758" y="200" type="curve"/>
      <point x="734" y="72" type="line"/>
    </contour>
    <contour>
      <point x="414" y="98" type="curve" smooth="yes"/>
      <point x="296" y="98"/>
      <point x="228" y="202"/>
      <point x="228" y="424" type="curve" smooth="yes"/>
      <point x="228" y="712"/>
      <point x="396" y="1022"/>
      <point x="680" y="1022" type="curve" smooth="yes"/>
      <point x="738" y="1022"/>
      <point x="804" y="1006"/>
      <point x="854" y="988" type="curve"/>
      <point x="772" y="362" type="line"/>
      <point x="700" y="238"/>
      <point x="562" y="98"/>
    </contour>
  </outline>
</glyph>
<glyph name="r" format="2">
  <advance width="760"/>
  <unicode hex="0072"/>
  <note>
r
</note>
  <anchor x="168" y="0" name="bottom"/>
  <anchor x="514" y="1114" name="top"/>
  <outline>
    <contour>
      <point x="90" y="0" type="line"/>
      <point x="236" y="0" type="line"/>
      <point x="324" y="664" type="line"/>
      <point x="378" y="800"/>
      <point x="528" y="974"/>
      <point x="666" y="974" type="curve" smooth="yes"/>
      <point x="708" y="974"/>
      <point x="736" y="970"/>
      <point x="754" y="962" type="curve"/>
      <point x="788" y="1116" type="line"/>
      <point x="778" y="1124"/>
      <point x="758" y="1128"/>
      <point x="724" y="1128" type="curve" smooth="yes"/>
      <point x="572" y="1128"/>
      <point x="418" y="1006"/>
      <point x="352" y="868" type="curve"/>
      <point x="376" y="1114" type="line"/>
      <point x="240" y="1114" type="line"/>
    </contour>
  </outline>
</glyph>
<glyph name="s" format="2">
  <advance width="852"/>
  <unicode hex="0073"/>
  <note>
s
</note>
  <anchor x="344" y="0" name="bottom"/>
  <anchor x="540" y="1114" name="top"/>
  <outline>
    <contour>
      <point x="332" y="-16" type="curve" smooth="yes"/>
      <point x="538" y="-16"/>
      <point x="712" y="78"/>
      <point x="712" y="282" type="curve" smooth="yes"/>
      <point x="712" y="404"/>
      <point x="654" y="480"/>
      <point x="478" y="614" type="curve" smooth="yes"/>
      <point x="348" y="718"/>
      <point x="308" y="760"/>
      <point x="308" y="852" type="curve" smooth="yes"/>
      <point x="308" y="954"/>
      <point x="396" y="1020"/>
      <point x="538" y="1020" type="curve" smooth="yes"/>
      <point x="622" y="1020"/>
      <point x="736" y="984"/>
      <point x="756" y="950" type="curve"/>
      <point x="786" y="1086" type="line"/>
      <point x="746" y="1108"/>
      <point x="644" y="1128"/>
      <point x="538" y="1128" type="curve" smooth="yes"/>
      <point x="344" y="1128"/>
      <point x="168" y="1030"/>
      <point x="168" y="834" type="curve" smooth="yes"/>
      <point x="168" y="682"/>
      <point x="262" y="600"/>
      <point x="380" y="508" type="curve" smooth="yes"/>
      <point x="488" y="430"/>
      <point x="568" y="362"/>
      <point x="568" y="266" type="curve" smooth="yes"/>
      <point x="568" y="152"/>
      <point x="474" y="94"/>
      <point x="338" y="94" type="curve" smooth="yes"/>
      <point x="226" y="94"/>
      <point x="126" y="134"/>
      <point x="72" y="174" type="curve"/>
      <point x="44" y="46" type="line"/>
      <point x="82" y="14"/>
      <point x="210" y="-16"/>
    </contour>
  </outline>
</glyph>
<glyph name="t" format="2">
  <advance width="720"/>
  <unicode hex="0074"/>
  <note>
t
</note>
  <anchor x="278" y="0" name="bottom"/>
  <anchor x="352" y="558" name="center"/>
  <anchor x="400" y="1316" name="top"/>
  <anchor x="746" y="1114" name="topright"/>
  <outline>
    <contour>
      <point x="324" y="-16" type="curve" smooth="yes"/>
      <point x="418" y="-16"/>
      <point x="568" y="64"/>
      <point x="614" y="118" type="curve"/>
      <point x="594" y="200" type="line"/>
      <point x="544" y="158"/>
      <point x="436" y="100"/>
      <point x="380" y="100" type="curve" smooth="yes"/>
      <point x="322" y="100"/>
      <point x="302" y="148"/>
      <point x="302" y="214" type="curve" smooth="yes"/>
      <point x="302" y="238"/>
      <point x="312" y="306"/>
      <point x="404" y="998" type="curve"/>
      <point x="686" y="998" type="line"/>
      <point x="704" y="1114" type="line"/>
      <point x="420" y="1114" type="line"/>
      <point x="454" y="1386" type="line"/>
      <point x="332" y="1386" type="line"/>
      <point x="278" y="1114" type="line"/>
      <point x="154" y="1112" type="line"/>
      <point x="122" y="998" type="line"/>
      <point x="254" y="998" type="line"/>
      <point x="164" y="284" type="line" smooth="yes"/>
      <point x="156" y="220"/>
      <point x="152" y="176"/>
      <point x="152" y="152" type="curve" smooth="yes"/>
      <point x="152" y="42"/>
      <point x="212" y="-16"/>
    </contour>
  </outline>
</glyph>
<glyph name="u" format="2">
  <advance width="1146"/>
  <unicode hex="0075"/>
  <note>
u
</note>
  <anchor x="500" y="0" name="bottom"/>
  <anchor x="896" y="0" name="ogonek"/>
  <anchor x="618" y="1114" name="top"/>
  <anchor x="1180" y="1114" name="topright"/>
  <outline>
    <contour>
      <point x="360" y="-18" type="curve" smooth="yes"/>
      <point x="514" y="-18"/>
      <point x="678" y="98"/>
      <point x="790" y="256" type="curve"/>
      <point x="762" y="0" type="line"/>
      <point x="896" y="0" type="line"/>
      <point x="1044" y="1114" type="line"/>
      <point x="900" y="1114" type="line"/>
      <point x="806" y="406" type="line"/>
      <point x="718" y="270"/>
      <point x="548" y="108"/>
      <point x="412" y="108" type="curve" smooth="yes"/>
      <point x="308" y="108"/>
      <point x="258" y="150"/>
      <point x="258" y="270" type="curve" smooth="yes"/>
      <point x="258" y="328"/>
      <point x="266" y="402"/>
      <point x="282" y="520" type="curve" smooth="yes"/>
      <point x="288" y="568"/>
      <point x="310" y="712"/>
      <point x="364" y="1114" type="curve"/>
      <point x="218" y="1114" type="line"/>
      <point x="182" y="860"/>
      <point x="154" y="664"/>
      <point x="136" y="522" type="curve" smooth="yes"/>
      <point x="122" y="400"/>
      <point x="110" y="292"/>
      <point x="110" y="260" type="curve" smooth="yes"/>
      <point x="110" y="60"/>
      <point x="190" y="-18"/>
    </contour>
  </outline>
</glyph>
<glyph name="v" format="2">
  <advance width="984"/>
  <unicode hex="0076"/>
  <note>
v
</note>
  <anchor x="418" y="0" name="bottom"/>
  <anchor x="566" y="1114" name="top"/>
  <outline>
    <contour>
      <point x="280" y="-14" type="line"/>
      <point x="412" y="-4" type="line"/>
      <point x="798" y="414"/>
      <point x="934" y="668"/>
      <point x="956" y="980" type="curve" smooth="yes"/>
      <point x="958" y="1016"/>
      <point x="958" y="1064"/>
      <point x="954" y="1114" type="curve"/>
      <point x="816" y="1114" type="line"/>
      <point x="816" y="1060"/>
      <point x="802" y="934"/>
      <point x="792" y="872" type="curve" smooth="yes"/>
      <point x="756" y="664"/>
      <point x="676" y="512"/>
      <point x="538" y="318" type="curve" smooth="yes"/>
      <point x="374" y="114" type="line"/>
      <point x="352" y="346" type="line"/>
      <point x="272" y="1114" type="line"/>
      <point x="112" y="1114" type="line"/>
      <point x="222" y="346" type="line"/>
    </contour>
  </outline>
</glyph>
<glyph name="w" format="2">
  <advance width="1594"/>
  <unicode hex="0077"/>
  <note>
w
</note>
  <anchor x="724" y="0" name="bottom"/>
  <anchor x="872" y="1114" name="top"/>
  <outline>
    <contour>
      <point x="286" y="-12" type="line"/>
      <point x="416" y="-4" type="line"/>
      <point x="632" y="226"/>
      <point x="764" y="376"/>
      <point x="818" y="586" type="curve"/>
      <point x="846" y="346" type="line"/>
      <point x="902" y="-12" type="line"/>
      <point x="1036" y="-4" type="line"/>
      <point x="1332" y="264"/>
      <point x="1520" y="604"/>
      <point x="1544" y="996" type="curve" smooth="yes"/>
      <point x="1546" y="1036"/>
      <point x="1546" y="1078"/>
      <point x="1542" y="1114" type="curve"/>
      <point x="1400" y="1114" type="line"/>
      <point x="1408" y="1098"/>
      <point x="1396" y="1002"/>
      <point x="1382" y="890" type="curve" smooth="yes"/>
      <point x="1354" y="658"/>
      <point x="1274" y="454"/>
      <point x="1132" y="278" type="curve" smooth="yes"/>
      <point x="1000" y="114" type="line"/>
      <point x="978" y="346" type="line"/>
      <point x="898" y="1114" type="line"/>
      <point x="738" y="1114" type="line"/>
      <point x="780" y="834" type="line"/>
      <point x="752" y="712"/>
      <point x="658" y="478"/>
      <point x="558" y="346" type="curve" smooth="yes"/>
      <point x="380" y="114" type="line"/>
      <point x="360" y="346" type="line"/>
      <point x="278" y="1114" type="line"/>
      <point x="116" y="1114" type="line"/>
      <point x="230" y="346" type="line"/>
    </contour>
  </outline>
</glyph>
<glyph name="x" format="2">
  <advance width="926"/>
  <unicode hex="0078"/>
  <note>
x
</note>
  <anchor x="390" y="0" name="bottom"/>
  <anchor x="538" y="1114" name="top"/>
  <outline>
    <contour>
      <point x="-42" y="2" type="line"/>
      <point x="114" y="2" type="line"/>
      <point x="434" y="464" type="line"/>
      <point x="632" y="2" type="line"/>
      <point x="802" y="2" type="line"/>
      <point x="526" y="560" type="line"/>
      <point x="944" y="1114" type="line"/>
      <point x="784" y="1114" type="line"/>
      <point x="476" y="674" type="line"/>
      <point x="304" y="1114" type="line"/>
      <point x="130" y="1114" type="line"/>
      <point x="384" y="578" type="line"/>
    </contour>
  </outline>
</glyph>
<glyph name="y" format="2">
  <advance width="1024"/>
  <unicode hex="0079"/>
  <note>
y
</note>
  <anchor x="718" y="0" name="bottom"/>
  <anchor x="586" y="1114" name="top"/>
  <outline>
    <contour>
      <point x="-48" y="-490" type="curve" smooth="yes"/>
      <point x="106" y="-490"/>
      <point x="232" y="-416"/>
      <point x="314" y="-334" type="curve" smooth="yes"/>
      <point x="446" y="-202"/>
      <point x="600" y="26"/>
      <point x="700" y="210" type="curve" smooth="yes"/>
      <point x="842" y="476"/>
      <point x="950" y="752"/>
      <point x="960" y="982" type="curve" smooth="yes"/>
      <point x="962" y="1020"/>
      <point x="962" y="1066"/>
      <point x="958" y="1114" type="curve"/>
      <point x="816" y="1114" type="line"/>
      <point x="816" y="1040"/>
      <point x="816" y="1018"/>
      <point x="814" y="982" type="curve"/>
      <point x="796" y="734"/>
      <point x="706" y="468"/>
      <point x="556" y="218" type="curve" smooth="yes"/>
      <point x="514" y="144"/>
      <point x="470" y="72"/>
      <point x="428" y="-2" type="curve"/>
      <point x="386" y="292" type="line"/>
      <point x="280" y="1114" type="line"/>
      <point x="120" y="1114" type="line"/>
      <point x="244" y="292" type="line"/>
      <point x="304" y="-54" type="line"/>
      <point x="396" y="-54" type="line"/>
      <point x="238" y="-286"/>
      <point x="114" y="-372"/>
      <point x="-24" y="-372" type="curve" smooth="yes"/>
      <point x="-84" y="-372"/>
      <point x="-124" y="-354"/>
      <point x="-154" y="-340" type="curve"/>
      <point x="-196" y="-460" type="line"/>
      <point x="-154" y="-476"/>
      <point x="-96" y="-490"/>
    </contour>
  </outline>
</glyph>
<glyph name="z" format="2">
  <advance width="940"/>
  <unicode hex="007A"/>
  <note>
z
</note>
  <anchor x="396" y="0" name="bottom"/>
  <anchor x="470" y="558" name="center"/>
  <anchor x="556" y="1114" name="top"/>
  <outline>
    <contour>
      <point x="24" y="0" type="line"/>
      <point x="782" y="0" type="line"/>
      <point x="792" y="116" type="line"/>
      <point x="166" y="116" type="line"/>
      <point x="304" y="264" type="line"/>
      <point x="938" y="1074" type="line"/>
      <point x="902" y="1114" type="line"/>
      <point x="196" y="1114" type="line"/>
      <point x="180" y="998" type="line"/>
      <point x="750" y="998" type="line"/>
      <point x="586" y="818" type="line"/>
      <point x="-20" y="44" type="line"/>
    </contour>
  </outline>
</glyph>
<glyph name="bar" format="2">
  <advance width="834"/>
  <unicode hex="007C"/>
  <note>
bar
</note>
  <outline>
    <contour>
      <point x="366" y="-182" type="line"/>
      <point x="494" y="-182" type="line"/>
      <point x="494" y="1738" type="line"/>
      <point x="366" y="1738" type="line"/>
    </contour>
  </outline>
</glyph>
<glyph name="braceright" format="2">
  <advance width="856"/>
  <unicode hex="007D"/>
  <note>
braceleft
</note>
  <outline>
    <contour>
      <point x="540" y="1660" type="curve" smooth="yes"/>
      <point x="442" y="1660"/>
      <point x="378" y="1648"/>
      <point x="272" y="1624" type="curve"/>
      <point x="264" y="1558" type="line"/>
      <point x="532" y="1558" type="line"/>
      <point x="448" y="890" type="line" smooth="yes"/>
      <point x="434" y="786"/>
      <point x="554" y="760"/>
      <point x="660" y="712" type="curve"/>
      <point x="582" y="690"/>
      <point x="412" y="640"/>
      <point x="400" y="548" type="curve" smooth="yes"/>
      <point x="320" y="-66" type="line"/>
      <point x="40" y="-66" type="line"/>
      <point x="30" y="-130" type="line"/>
      <point x="66" y="-142"/>
      <point x="240" y="-166"/>
      <point x="298" y="-166" type="curve" smooth="yes"/>
      <point x="420" y="-166"/>
      <point x="446" y="-120"/>
      <point x="466" y="20" type="curve" smooth="yes"/>
      <point x="536" y="524" type="line" smooth="yes"/>
      <point x="546" y="592"/>
      <point x="676" y="630"/>
      <point x="808" y="664" type="curve"/>
      <point x="822" y="760" type="line"/>
      <point x="732" y="784"/>
      <point x="578" y="838"/>
      <point x="586" y="904" type="curve" smooth="yes"/>
      <point x="666" y="1550" type="line" smooth="yes"/>
      <point x="676" y="1634"/>
      <point x="630" y="1660"/>
    </contour>
  </outline>
</glyph>
<glyph name="asciitilde" format="2">
  <advance width="1110"/>
  <unicode hex="007E"/>
  <note>
asciitilde
</note>
  <outline>
    <contour>
      <point x="740" y="724" type="curve" smooth="yes"/>
      <point x="872" y="724"/>
      <point x="992" y="818"/>
      <point x="1028" y="918" type="curve"/>
      <point x="972" y="974" type="line"/>
      <point x="926" y="902"/>
      <point x="856" y="848"/>
      <point x="768" y="848" type="curve" smooth="yes"/>
      <point x="718" y="848"/>
      <point x="682" y="874"/>
      <point x="620" y="924" type="curve" smooth="yes"/>
      <point x="548" y="986"/>
      <point x="502" y="1016"/>
      <point x="432" y="1016" type="curve" smooth="yes"/>
      <point x="300" y="1016"/>
      <point x="168" y="920"/>
      <point x="136" y="824" type="curve"/>
      <point x="190" y="768" type="line"/>
      <point x="244" y="848"/>
      <point x="316" y="894"/>
      <point x="404" y="894" type="curve" smooth="yes"/>
      <point x="452" y="894"/>
      <point x="488" y="870"/>
      <point x="550" y="816" type="curve" smooth="yes"/>
      <point x="622" y="754"/>
      <point x="668" y="724"/>
    </contour>
  </outline>
</glyph>
<glyph name="exclamdown" format="2">
  <advance width="606"/>
  <unicode hex="00A1"/>
  <note>
exclamdown
</note>
  <outline>
    <contour>
      <point x="82" y="-424" type="line"/>
      <point x="250" y="-424" type="line"/>
      <point x="410" y="836" type="line"/>
      <point x="292" y="836" type="line"/>
    </contour>
    <contour>
      <point x="378" y="1114" type="curve" smooth="yes"/>
      <point x="448" y="1114"/>
      <point x="512" y="1172"/>
      <point x="512" y="1246" type="curve" smooth="yes"/>
      <point x="512" y="1300"/>
      <point x="474" y="1330"/>
      <point x="424" y="1330" type="curve" smooth="yes"/>
      <point x="346" y="1330"/>
      <point x="290" y="1272"/>
      <point x="290" y="1194" type="curve" smooth="yes"/>
      <point x="290" y="1146"/>
      <point x="320" y="1114"/>
    </contour>
  </outline>
</glyph>
<glyph name="cent" format="2">
  <advance width="1032"/>
  <unicode hex="00A2"/>
  <note>
cent
</note>
  <outline>
    <contour>
      <point x="366" y="-210" type="line"/>
      <point x="478" y="-210" type="line"/>
      <point x="514" y="-16" type="line"/>
      <point x="664" y="-8"/>
      <point x="784" y="74"/>
      <point x="850" y="160" type="curve"/>
      <point x="800" y="240" type="line"/>
      <point x="706" y="144"/>
      <point x="626" y="96"/>
      <point x="522" y="96" type="curve" smooth="yes"/>
      <point x="364" y="96"/>
      <point x="286" y="204"/>
      <point x="286" y="438" type="curve" smooth="yes"/>
      <point x="286" y="712"/>
      <point x="448" y="1020"/>
      <point x="684" y="1020" type="curve" smooth="yes"/>
      <point x="758" y="1020"/>
      <point x="826" y="1002"/>
      <point x="874" y="964" type="curve"/>
      <point x="912" y="1088" type="line"/>
      <point x="866" y="1112"/>
      <point x="796" y="1126"/>
      <point x="726" y="1128" type="curve"/>
      <point x="776" y="1326" type="line"/>
      <point x="662" y="1326" type="line"/>
      <point x="614" y="1122" type="line"/>
      <point x="320" y="1072"/>
      <point x="136" y="740"/>
      <point x="136" y="422" type="curve" smooth="yes"/>
      <point x="136" y="190"/>
      <point x="230" y="34"/>
      <point x="404" y="-6" type="curve"/>
    </contour>
  </outline>
</glyph>
<glyph name="sterling" format="2">
  <advance width="1346"/>
  <unicode hex="00A3"/>
  <note>
sterling
</note>
  <outline>
    <contour>
      <point x="72" y="-14" type="curve" smooth="yes"/>
      <point x="138" y="-14"/>
      <point x="224" y="34"/>
      <point x="270" y="90" type="curve"/>
      <point x="526" y="2"/>
      <point x="632" y="-24"/>
      <point x="788" y="-24" type="curve" smooth="yes"/>
      <point x="1118" y="-24"/>
      <point x="1228" y="128"/>
      <point x="1228" y="310" type="curve" smooth="yes"/>
      <point x="1228" y="414"/>
      <point x="1176" y="508"/>
      <point x="1096" y="574" type="curve"/>
      <point x="980" y="484" type="line"/>
      <point x="1034" y="450"/>
      <point x="1074" y="376"/>
      <point x="1074" y="304" type="curve" smooth="yes"/>
      <point x="1074" y="166"/>
      <point x="978" y="82"/>
      <point x="770" y="82" type="curve" smooth="yes"/>
      <point x="650" y="82"/>
      <point x="552" y="112"/>
      <point x="360" y="176" type="curve"/>
      <point x="448" y="306"/>
      <point x="476" y="428"/>
      <point x="508" y="624" type="curve" smooth="yes"/>
      <point x="514" y="660"/>
      <point x="518" y="698"/>
      <point x="524" y="734" type="curve"/>
      <point x="850" y="734" type="line"/>
      <point x="862" y="832" type="line"/>
      <point x="542" y="832" type="line"/>
      <point x="564" y="958" type="line" smooth="yes"/>
      <point x="602" y="1192"/>
      <point x="718" y="1404"/>
      <point x="910" y="1404" type="curve" smooth="yes"/>
      <point x="1012" y="1404"/>
      <point x="1086" y="1364"/>
      <point x="1116" y="1326" type="curve"/>
      <point x="1184" y="1430" type="line"/>
      <point x="1126" y="1492"/>
      <point x="1056" y="1508"/>
      <point x="930" y="1508" type="curve" smooth="yes"/>
      <point x="638" y="1508"/>
      <point x="458" y="1266"/>
      <point x="414" y="958" type="curve" smooth="yes"/>
      <point x="392" y="832" type="line"/>
      <point x="206" y="832" type="line"/>
      <point x="192" y="734" type="line"/>
      <point x="376" y="734" type="line"/>
      <point x="332" y="476" type="line" smooth="yes"/>
      <point x="314" y="358"/>
      <point x="274" y="236"/>
      <point x="216" y="188" type="curve"/>
      <point x="146" y="188"/>
      <point x="14" y="120"/>
      <point x="14" y="38" type="curve" smooth="yes"/>
      <point x="14" y="4"/>
      <point x="34" y="-14"/>
    </contour>
  </outline>
</glyph>
<glyph name="currency" format="2">
  <advance width="1424"/>
  <unicode hex="00A4"/>
  <note>
currency
</note>
  <outline>
    <contour>
      <point x="286" y="140" type="line"/>
      <point x="472" y="326" type="line"/>
      <point x="544" y="276"/>
      <point x="634" y="246"/>
      <point x="724" y="246" type="curve" smooth="yes"/>
      <point x="820" y="246"/>
      <point x="910" y="278"/>
      <point x="984" y="332" type="curve"/>
      <point x="1170" y="146" type="line"/>
      <point x="1256" y="230" type="line"/>
      <point x="1068" y="416" type="line"/>
      <point x="1122" y="490"/>
      <point x="1154" y="578"/>
      <point x="1154" y="674" type="curve" smooth="yes"/>
      <point x="1154" y="768"/>
      <point x="1126" y="854"/>
      <point x="1072" y="924" type="curve"/>
      <point x="1258" y="1110" type="line"/>
      <point x="1172" y="1194" type="line"/>
      <point x="990" y="1010" type="line"/>
      <point x="916" y="1068"/>
      <point x="822" y="1102"/>
      <point x="724" y="1102" type="curve" smooth="yes"/>
      <point x="630" y="1102"/>
      <point x="542" y="1072"/>
      <point x="470" y="1018" type="curve"/>
      <point x="282" y="1208" type="line"/>
      <point x="198" y="1122" type="line"/>
      <point x="384" y="936" type="line"/>
      <point x="328" y="862"/>
      <point x="294" y="772"/>
      <point x="294" y="674" type="curve" smooth="yes"/>
      <point x="294" y="576"/>
      <point x="328" y="482"/>
      <point x="386" y="410" type="curve"/>
      <point x="200" y="224" type="line"/>
    </contour>
    <contour>
      <point x="724" y="346" type="curve" smooth="yes"/>
      <point x="550" y="346"/>
      <point x="406" y="496"/>
      <point x="406" y="674" type="curve" smooth="yes"/>
      <point x="406" y="852"/>
      <point x="548" y="1002"/>
      <point x="724" y="1002" type="curve" smooth="yes"/>
      <point x="904" y="1002"/>
      <point x="1042" y="854"/>
      <point x="1042" y="674" type="curve" smooth="yes"/>
      <point x="1042" y="492"/>
      <point x="902" y="346"/>
    </contour>
  </outline>
</glyph>
<glyph name="yen" format="2">
  <advance width="1448"/>
  <unicode hex="00A5"/>
  <note>
yen
</note>
  <outline>
    <contour>
      <point x="598" y="0" type="line"/>
      <point x="730" y="0" type="line"/>
      <point x="774" y="374" type="line"/>
      <point x="1188" y="374" type="line"/>
      <point x="1200" y="470" type="line"/>
      <point x="784" y="470" type="line"/>
      <point x="814" y="718" type="line"/>
      <point x="1230" y="718" type="line"/>
      <point x="1244" y="818" type="line"/>
      <point x="876" y="818" type="line"/>
      <point x="1378" y="1494" type="line"/>
      <point x="1234" y="1494" type="line"/>
      <point x="850" y="940" type="line"/>
      <point x="776" y="818" type="line"/>
      <point x="728" y="934" type="line"/>
      <point x="462" y="1494" type="line"/>
      <point x="320" y="1494" type="line"/>
      <point x="648" y="818" type="line"/>
      <point x="288" y="818" type="line"/>
      <point x="276" y="718" type="line"/>
      <point x="680" y="718" type="line"/>
      <point x="652" y="470" type="line"/>
      <point x="244" y="470" type="line"/>
      <point x="232" y="374" type="line"/>
      <point x="642" y="374" type="line"/>
    </contour>
  </outline>
</glyph>
<glyph name="brokenbar" format="2">
  <advance width="834"/>
  <unicode hex="00A6"/>
  <note>
brokenbar
</note>
  <outline>
    <contour>
      <point x="366" y="-182" type="line"/>
      <point x="494" y="-182" type="line"/>
      <point x="494" y="692" type="line"/>
      <point x="366" y="692" type="line"/>
    </contour>
    <contour>
      <point x="366" y="866" type="line"/>
      <point x="494" y="866" type="line"/>
      <point x="494" y="1738" type="line"/>
      <point x="366" y="1738" type="line"/>
    </contour>
  </outline>
</glyph>
<glyph name="section" format="2">
  <advance width="1326"/>
  <unicode hex="00A7"/>
  <outline>
    <contour>
      <point x="306" y="1310" type="curve" smooth="yes"/>
      <point x="246" y="880"/>
      <point x="1002" y="958"/>
      <point x="950" y="590" type="curve" smooth="yes"/>
      <point x="938" y="504"/>
      <point x="868" y="392"/>
      <point x="814" y="338" type="curve"/>
      <point x="882" y="292" type="line"/>
      <point x="992" y="370"/>
      <point x="1084" y="484"/>
      <point x="1104" y="618" type="curve" smooth="yes"/>
      <point x="1164" y="1046"/>
      <point x="414" y="1002"/>
      <point x="460" y="1328" type="curve" smooth="yes"/>
      <point x="478" y="1464"/>
      <point x="632" y="1510"/>
      <point x="790" y="1510" type="curve" smooth="yes"/>
      <point x="964" y="1512"/>
      <point x="1062" y="1468"/>
      <point x="1102" y="1438" type="curve"/>
      <point x="1154" y="1562" type="line"/>
      <point x="1102" y="1596"/>
      <point x="992" y="1634"/>
      <point x="810" y="1634" type="curve" smooth="yes"/>
      <point x="608" y="1634"/>
      <point x="342" y="1568"/>
    </contour>
    <contour>
      <point x="1028" y="136" type="curve" smooth="yes"/>
      <point x="1082" y="528"/>
      <point x="324" y="456"/>
      <point x="372" y="792" type="curve" smooth="yes"/>
      <point x="386" y="890"/>
      <point x="466" y="1000"/>
      <point x="510" y="1046" type="curve"/>
      <point x="438" y="1092" type="line"/>
      <point x="332" y="1016"/>
      <point x="236" y="900"/>
      <point x="218" y="764" type="curve" smooth="yes"/>
      <point x="162" y="364"/>
      <point x="916" y="406"/>
      <point x="876" y="122" type="curve" smooth="yes"/>
      <point x="856" y="-16"/>
      <point x="692" y="-64"/>
      <point x="526" y="-66" type="curve" smooth="yes"/>
      <point x="338" y="-66"/>
      <point x="202" y="-12"/>
      <point x="156" y="26" type="curve"/>
      <point x="106" y="-98" type="line"/>
      <point x="162" y="-140"/>
      <point x="314" y="-188"/>
      <point x="504" y="-188" type="curve" smooth="yes"/>
      <point x="716" y="-188"/>
      <point x="992" y="-116"/>
    </contour>
  </outline>
</glyph>
<glyph name="dieresis" format="2">
  <advance width="790"/>
  <unicode hex="00A8"/>
  <note>
dieresis
</note>
  <outline>
    <contour>
      <point x="176" y="1376" type="curve" smooth="yes"/>
      <point x="240" y="1376"/>
      <point x="292" y="1430"/>
      <point x="292" y="1500" type="curve" smooth="yes"/>
      <point x="292" y="1550"/>
      <point x="256" y="1584"/>
      <point x="202" y="1584" type="curve" smooth="yes"/>
      <point x="144" y="1584"/>
      <point x="92" y="1528"/>
      <point x="92" y="1464" type="curve" smooth="yes"/>
      <point x="92" y="1414"/>
      <point x="130" y="1376"/>
    </contour>
    <contour>
      <point x="588" y="1376" type="curve" smooth="yes"/>
      <point x="650" y="1376"/>
      <point x="702" y="1430"/>
      <point x="702" y="1500" type="curve" smooth="yes"/>
      <point x="702" y="1550"/>
      <point x="668" y="1584"/>
      <point x="614" y="1584" type="curve" smooth="yes"/>
      <point x="552" y="1584"/>
      <point x="504" y="1530"/>
      <point x="504" y="1464" type="curve" smooth="yes"/>
      <point x="504" y="1414"/>
      <point x="540" y="1376"/>
    </contour>
  </outline>
</glyph>
<glyph name="copyright" format="2">
  <advance width="2084"/>
  <unicode hex="00A9"/>
  <outline>
    <contour>
      <point x="200" y="942" type="curve" smooth="yes"/>
      <point x="200" y="472"/>
      <point x="572" y="92"/>
      <point x="1042" y="92" type="curve" smooth="yes"/>
      <point x="1510" y="92"/>
      <point x="1884" y="472"/>
      <point x="1884" y="942" type="curve" smooth="yes"/>
      <point x="1884" y="1412"/>
      <point x="1510" y="1788"/>
      <point x="1042" y="1788" type="curve" smooth="yes"/>
      <point x="572" y="1788"/>
      <point x="200" y="1412"/>
    </contour>
    <contour>
      <point x="306" y="942" type="curve" smooth="yes"/>
      <point x="306" y="1356"/>
      <point x="624" y="1694"/>
      <point x="1042" y="1694" type="curve" smooth="yes"/>
      <point x="1458" y="1694"/>
      <point x="1776" y="1356"/>
      <point x="1776" y="942" type="curve" smooth="yes"/>
      <point x="1776" y="526"/>
      <point x="1458" y="190"/>
      <point x="1042" y="190" type="curve" smooth="yes"/>
      <point x="624" y="190"/>
      <point x="306" y="526"/>
    </contour>
    <contour>
      <point x="612" y="938" type="curve" smooth="yes"/>
      <point x="612" y="688"/>
      <point x="778" y="470"/>
      <point x="1046" y="470" type="curve" smooth="yes"/>
      <point x="1174" y="470"/>
      <point x="1286" y="510"/>
      <point x="1344" y="558" type="curve"/>
      <point x="1310" y="652" type="line"/>
      <point x="1260" y="622"/>
      <point x="1174" y="586"/>
      <point x="1066" y="586" type="curve" smooth="yes"/>
      <point x="876" y="586"/>
      <point x="756" y="732"/>
      <point x="756" y="950" type="curve" smooth="yes"/>
      <point x="756" y="1156"/>
      <point x="876" y="1300"/>
      <point x="1076" y="1300" type="curve" smooth="yes"/>
      <point x="1180" y="1300"/>
      <point x="1250" y="1268"/>
      <point x="1300" y="1234" type="curve"/>
      <point x="1326" y="1354" type="line"/>
      <point x="1290" y="1378"/>
      <point x="1216" y="1416"/>
      <point x="1088" y="1416" type="curve" smooth="yes"/>
      <point x="780" y="1416"/>
      <point x="612" y="1212"/>
    </contour>
  </outline>
</glyph>
<glyph name="ordfeminine" format="2">
  <advance width="834"/>
  <unicode hex="00AA"/>
  <note>
ordfeminine
</note>
  <outline>
    <contour>
      <point x="334" y="726" type="curve" smooth="yes"/>
      <point x="448" y="726"/>
      <point x="528" y="782"/>
      <point x="594" y="862" type="curve"/>
      <point x="568" y="726" type="line"/>
      <point x="692" y="726" type="line"/>
      <point x="834" y="1532" type="line"/>
      <point x="758" y="1512" type="line"/>
      <point x="712" y="1528"/>
      <point x="648" y="1540"/>
      <point x="594" y="1540" type="curve" smooth="yes"/>
      <point x="412" y="1540"/>
      <point x="254" y="1424"/>
      <point x="168" y="1264" type="curve" smooth="yes"/>
      <point x="124" y="1182"/>
      <point x="102" y="1100"/>
      <point x="102" y="1016" type="curve" smooth="yes"/>
      <point x="102" y="832"/>
      <point x="182" y="726"/>
    </contour>
    <contour>
      <point x="386" y="814" type="curve" smooth="yes"/>
      <point x="276" y="814"/>
      <point x="232" y="888"/>
      <point x="232" y="1026" type="curve" smooth="yes"/>
      <point x="232" y="1164"/>
      <point x="296" y="1312"/>
      <point x="400" y="1398" type="curve" smooth="yes"/>
      <point x="452" y="1440"/>
      <point x="510" y="1462"/>
      <point x="576" y="1462" type="curve" smooth="yes"/>
      <point x="610" y="1462"/>
      <point x="656" y="1448"/>
      <point x="682" y="1424" type="curve"/>
      <point x="598" y="942" type="line"/>
      <point x="534" y="872"/>
      <point x="456" y="814"/>
    </contour>
  </outline>
</glyph>
<glyph name="logicalnot" format="2">
  <advance width="1338"/>
  <unicode hex="00AC"/>
  <note>
logicalnot
</note>
  <outline>
    <contour>
      <point x="968" y="314" type="line"/>
      <point x="1100" y="314" type="line"/>
      <point x="1158" y="816" type="line"/>
      <point x="220" y="816" type="line"/>
      <point x="208" y="702" type="line"/>
      <point x="1014" y="702" type="line"/>
    </contour>
  </outline>
</glyph>
<glyph name="macron" format="2">
  <advance width="600"/>
  <unicode hex="00AF"/>
  <note>
macron
</note>
  <outline>
    <contour>
      <point x="44" y="1400" type="line"/>
      <point x="542" y="1400" type="line"/>
      <point x="546" y="1512" type="line"/>
      <point x="48" y="1512" type="line"/>
    </contour>
  </outline>
</glyph>
<glyph name="degree" format="2">
  <advance width="878"/>
  <unicode hex="00B0"/>
  <note>
degree
</note>
  <outline>
    <contour>
      <point x="452" y="932" type="curve" smooth="yes"/>
      <point x="574" y="932"/>
      <point x="682" y="992"/>
      <point x="740" y="1090" type="curve" smooth="yes"/>
      <point x="768" y="1140"/>
      <point x="782" y="1194"/>
      <point x="782" y="1254" type="curve" smooth="yes"/>
      <point x="782" y="1366"/>
      <point x="726" y="1466"/>
      <point x="630" y="1522" type="curve" smooth="yes"/>
      <point x="582" y="1548"/>
      <point x="528" y="1562"/>
      <point x="470" y="1562" type="curve" smooth="yes"/>
      <point x="348" y="1562"/>
      <point x="242" y="1502"/>
      <point x="186" y="1406" type="curve" smooth="yes"/>
      <point x="158" y="1358"/>
      <point x="144" y="1304"/>
      <point x="144" y="1244" type="curve" smooth="yes"/>
      <point x="144" y="1132"/>
      <point x="200" y="1030"/>
      <point x="296" y="974" type="curve" smooth="yes"/>
      <point x="342" y="946"/>
      <point x="394" y="932"/>
    </contour>
    <contour>
      <point x="458" y="1024" type="curve" smooth="yes"/>
      <point x="340" y="1024"/>
      <point x="250" y="1120"/>
      <point x="250" y="1244" type="curve" smooth="yes"/>
      <point x="250" y="1372"/>
      <point x="338" y="1472"/>
      <point x="466" y="1472" type="curve" smooth="yes"/>
      <point x="588" y="1472"/>
      <point x="676" y="1380"/>
      <point x="676" y="1254" type="curve" smooth="yes"/>
      <point x="676" y="1124"/>
      <point x="586" y="1024"/>
    </contour>
  </outline>
</glyph>
<glyph name="plusminus" format="2">
  <advance width="1334"/>
  <unicode hex="00B1"/>
  <note>
plusminus
</note>
  <outline>
    <contour>
      <point x="558" y="288" type="line"/>
      <point x="694" y="288" type="line"/>
      <point x="722" y="524" type="line"/>
      <point x="736" y="700" type="line"/>
      <point x="864" y="696" type="line"/>
      <point x="1114" y="696" type="line"/>
      <point x="1126" y="814" type="line"/>
      <point x="876" y="814" type="line"/>
      <point x="748" y="806" type="line"/>
      <point x="776" y="982" type="line"/>
      <point x="802" y="1206" type="line"/>
      <point x="668" y="1206" type="line"/>
      <point x="642" y="982" type="line"/>
      <point x="626" y="804" type="line"/>
      <point x="470" y="814" type="line"/>
      <point x="250" y="814" type="line"/>
      <point x="238" y="696" type="line"/>
      <point x="458" y="696" type="line"/>
      <point x="614" y="700" type="line"/>
      <point x="586" y="524" type="line"/>
    </contour>
    <contour>
      <point x="168" y="30" type="line"/>
      <point x="1016" y="30" type="line"/>
      <point x="1030" y="142" type="line"/>
      <point x="180" y="142" type="line"/>
    </contour>
  </outline>
</glyph>
<glyph name="acute" format="2">
  <advance width="546"/>
  <unicode hex="00B4"/>
  <note>
acute
</note>
  <outline>
    <contour>
      <point x="118" y="1220" type="line"/>
      <point x="210" y="1272"/>
      <point x="418" y="1480"/>
      <point x="470" y="1562" type="curve"/>
      <point x="358" y="1664" type="line"/>
      <point x="56" y="1274" type="line"/>
    </contour>
  </outline>
</glyph>
<glyph name="micro" format="2">
  <advance width="1322"/>
  <unicode hex="00B5"/>
  <note>
uni00B5
</note>
  <outline>
    <contour>
      <point x="126" y="-364" type="line"/>
      <point x="264" y="-364" type="line"/>
      <point x="334" y="98" type="line"/>
      <point x="350" y="28"/>
      <point x="446" y="-18"/>
      <point x="522" y="-18" type="curve" smooth="yes"/>
      <point x="674" y="-18"/>
      <point x="766" y="38"/>
      <point x="856" y="132" type="curve"/>
      <point x="856" y="30"/>
      <point x="906" y="-18"/>
      <point x="986" y="-18" type="curve" smooth="yes"/>
      <point x="1080" y="-18"/>
      <point x="1176" y="64"/>
      <point x="1206" y="108" type="curve"/>
      <point x="1158" y="192" type="line"/>
      <point x="1112" y="138"/>
      <point x="1072" y="112"/>
      <point x="1038" y="112" type="curve" smooth="yes"/>
      <point x="998" y="112"/>
      <point x="994" y="172"/>
      <point x="1000" y="220" type="curve"/>
      <point x="1040" y="518"/>
      <point x="1082" y="816"/>
      <point x="1122" y="1114" type="curve"/>
      <point x="978" y="1114" type="line"/>
      <point x="862" y="290" type="line"/>
      <point x="798" y="210"/>
      <point x="670" y="112"/>
      <point x="562" y="112" type="curve" smooth="yes"/>
      <point x="456" y="112"/>
      <point x="376" y="166"/>
      <point x="376" y="292" type="curve" smooth="yes"/>
      <point x="376" y="344"/>
      <point x="452" y="844"/>
      <point x="464" y="944" type="curve"/>
      <point x="476" y="1034"/>
      <point x="452" y="1124"/>
      <point x="358" y="1124" type="curve" smooth="yes"/>
      <point x="260" y="1124"/>
      <point x="164" y="1058"/>
      <point x="134" y="1014" type="curve"/>
      <point x="184" y="928" type="line"/>
      <point x="222" y="966"/>
      <point x="256" y="984"/>
      <point x="286" y="984" type="curve" smooth="yes"/>
      <point x="318" y="984"/>
      <point x="320" y="934"/>
      <point x="310" y="874" type="curve"/>
    </contour>
  </outline>
</glyph>
<glyph name="paragraph" format="2">
  <advance width="1192"/>
  <unicode hex="00B6"/>
  <note>
paragraph
</note>
  <outline>
    <contour>
      <point x="378" y="0" type="line"/>
      <point x="522" y="0" type="line"/>
      <point x="706" y="1416" type="line"/>
      <point x="936" y="1412" type="line"/>
      <point x="762" y="0" type="line"/>
      <point x="904" y="0" type="line"/>
      <point x="1082" y="1414" type="line"/>
      <point x="1248" y="1438" type="line"/>
      <point x="1254" y="1516" type="line"/>
      <point x="1020" y="1516" type="line" smooth="yes"/>
      <point x="948" y="1516"/>
      <point x="774" y="1534"/>
      <point x="654" y="1534" type="curve" smooth="yes"/>
      <point x="284" y="1534"/>
      <point x="116" y="1374"/>
      <point x="116" y="1102" type="curve" smooth="yes"/>
      <point x="116" y="886"/>
      <point x="258" y="762"/>
      <point x="480" y="756" type="curve"/>
    </contour>
  </outline>
</glyph>
<glyph name="cedilla" format="2">
  <unicode hex="00B8"/>
  <note>
cedilla
</note>
  <outline>
    <contour>
      <point x="146" y="-454" type="curve" smooth="yes"/>
      <point x="300" y="-454"/>
      <point x="418" y="-374"/>
      <point x="418" y="-176" type="curve" smooth="yes"/>
      <point x="418" y="-92"/>
      <point x="396" y="-26"/>
      <point x="366" y="22" type="curve"/>
      <point x="326" y="26" type="line"/>
      <point x="268" y="22" type="line"/>
      <point x="278" y="-12"/>
      <point x="290" y="-68"/>
      <point x="290" y="-142" type="curve" smooth="yes"/>
      <point x="290" y="-268"/>
      <point x="218" y="-332"/>
      <point x="108" y="-332" type="curve" smooth="yes"/>
      <point x="74" y="-332"/>
      <point x="44" y="-326"/>
      <point x="22" y="-314" type="curve"/>
      <point x="2" y="-426" type="line"/>
      <point x="24" y="-442"/>
      <point x="92" y="-454"/>
    </contour>
  </outline>
</glyph>
<glyph name="ordmasculine" format="2">
  <advance width="788"/>
  <unicode hex="00BA"/>
  <note>
ordmasculine
</note>
  <outline>
    <contour>
      <point x="418" y="716" type="curve" smooth="yes"/>
      <point x="662" y="716"/>
      <point x="840" y="922"/>
      <point x="840" y="1190" type="curve" smooth="yes"/>
      <point x="840" y="1396"/>
      <point x="720" y="1552"/>
      <point x="522" y="1552" type="curve" smooth="yes"/>
      <point x="286" y="1552"/>
      <point x="98" y="1334"/>
      <point x="98" y="1074" type="curve" smooth="yes"/>
      <point x="98" y="872"/>
      <point x="226" y="716"/>
    </contour>
    <contour>
      <point x="420" y="810" type="curve" smooth="yes"/>
      <point x="304" y="810"/>
      <point x="236" y="932"/>
      <point x="236" y="1086" type="curve" smooth="yes"/>
      <point x="236" y="1268"/>
      <point x="336" y="1462"/>
      <point x="518" y="1462" type="curve" smooth="yes"/>
      <point x="640" y="1462"/>
      <point x="702" y="1348"/>
      <point x="702" y="1178" type="curve" smooth="yes"/>
      <point x="702" y="986"/>
      <point x="612" y="810"/>
    </contour>
  </outline>
</glyph>
<glyph name="guillemetright" format="2">
  <advance width="1712"/>
  <unicode hex="00BB"/>
  <note>
guillemotright
</note>
  <outline>
    <contour>
      <point x="872" y="148" type="line"/>
      <point x="1550" y="554" type="line"/>
      <point x="1566" y="670" type="line"/>
      <point x="996" y="1060" type="line"/>
      <point x="944" y="978" type="line"/>
      <point x="1386" y="610" type="line"/>
      <point x="842" y="236" type="line"/>
    </contour>
    <contour>
      <point x="212" y="148" type="line"/>
      <point x="890" y="554" type="line"/>
      <point x="906" y="670" type="line"/>
      <point x="336" y="1060" type="line"/>
      <point x="284" y="978" type="line"/>
      <point x="726" y="610" type="line"/>
      <point x="182" y="236" type="line"/>
    </contour>
  </outline>
</glyph>
<glyph name="questiondown" format="2">
  <advance width="840"/>
  <unicode hex="00BF"/>
  <note>
questiondown
</note>
  <outline>
    <contour>
      <point x="648" y="866" type="curve"/>
      <point x="518" y="866" type="line"/>
      <point x="536" y="810"/>
      <point x="536" y="770"/>
      <point x="534" y="720" type="curve" smooth="yes"/>
      <point x="530" y="612"/>
      <point x="428" y="560"/>
      <point x="308" y="488" type="curve" smooth="yes"/>
      <point x="134" y="384"/>
      <point x="16" y="230"/>
      <point x="16" y="32" type="curve" smooth="yes"/>
      <point x="16" y="-218"/>
      <point x="166" y="-358"/>
      <point x="436" y="-358" type="curve" smooth="yes"/>
      <point x="552" y="-358"/>
      <point x="644" y="-336"/>
      <point x="670" y="-306" type="curve"/>
      <point x="692" y="-200" type="line"/>
      <point x="622" y="-224"/>
      <point x="564" y="-238"/>
      <point x="482" y="-238" type="curve" smooth="yes"/>
      <point x="276" y="-238"/>
      <point x="152" y="-136"/>
      <point x="152" y="50" type="curve" smooth="yes"/>
      <point x="152" y="178"/>
      <point x="224" y="312"/>
      <point x="392" y="408" type="curve" smooth="yes"/>
      <point x="528" y="486"/>
      <point x="668" y="572"/>
      <point x="668" y="706" type="curve" smooth="yes"/>
      <point x="668" y="804"/>
      <point x="648" y="834"/>
    </contour>
    <contour>
      <point x="622" y="1392" type="curve" smooth="yes"/>
      <point x="548" y="1392"/>
      <point x="506" y="1348"/>
      <point x="506" y="1262" type="curve" smooth="yes"/>
      <point x="506" y="1212"/>
      <point x="534" y="1178"/>
      <point x="592" y="1178" type="curve" smooth="yes"/>
      <point x="662" y="1178"/>
      <point x="710" y="1234"/>
      <point x="710" y="1306" type="curve" smooth="yes"/>
      <point x="710" y="1360"/>
      <point x="672" y="1392"/>
    </contour>
  </outline>
</glyph>
<glyph name="AE" format="2">
  <advance width="1740"/>
  <unicode hex="00C6"/>
  <note>
AE
</note>
  <anchor x="796" y="0" name="bottom"/>
  <anchor x="994" y="1494" name="top"/>
  <outline>
    <contour>
      <point x="-104" y="0" type="line"/>
      <point x="54" y="0" type="line"/>
      <point x="300" y="448" type="line"/>
      <point x="806" y="448" type="line"/>
      <point x="750" y="0" type="line"/>
      <point x="1620" y="0" type="line"/>
      <point x="1630" y="124" type="line"/>
      <point x="910" y="112" type="line"/>
      <point x="986" y="710" type="line"/>
      <point x="1454" y="700" type="line"/>
      <point x="1462" y="824" type="line"/>
      <point x="1000" y="818" type="line"/>
      <point x="1072" y="1384" type="line"/>
      <point x="1670" y="1376" type="line"/>
      <point x="1676" y="1494" type="line"/>
      <point x="402" y="1494" type="line"/>
      <point x="392" y="1418" type="line"/>
      <point x="682" y="1402" type="line"/>
    </contour>
    <contour>
      <point x="362" y="562" type="line"/>
      <point x="816" y="1392" type="line"/>
      <point x="924" y="1386" type="line"/>
      <point x="822" y="562" type="line"/>
    </contour>
  </outline>
</glyph>
<glyph name="multiply" format="2">
  <advance width="1338"/>
  <unicode hex="00D7"/>
  <note>
multiply
</note>
  <outline>
    <contour>
      <point x="316" y="320" type="line"/>
      <point x="688" y="672" type="line"/>
      <point x="976" y="322" type="line"/>
      <point x="1074" y="414" type="line"/>
      <point x="772" y="746" type="line"/>
      <point x="1156" y="1084" type="line"/>
      <point x="1078" y="1176" type="line"/>
      <point x="706" y="822" type="line"/>
      <point x="418" y="1170" type="line"/>
      <point x="320" y="1078" type="line"/>
      <point x="622" y="748" type="line"/>
      <point x="238" y="414" type="line"/>
    </contour>
  </outline>
</glyph>
<glyph name="Oslash" format="2">
  <advance width="1346"/>
  <unicode hex="00D8"/>
  <note>
Oslash
</note>
  <anchor x="798" y="1494" name="top"/>
  <outline>
    <contour>
      <point x="122" y="-120" type="line"/>
      <point x="278" y="112" type="line"/>
      <point x="358" y="30"/>
      <point x="464" y="-16"/>
      <point x="590" y="-16" type="curve" smooth="yes"/>
      <point x="852" y="-16"/>
      <point x="1068" y="152"/>
      <point x="1184" y="424" type="curve" smooth="yes"/>
      <point x="1242" y="558"/>
      <point x="1270" y="708"/>
      <point x="1270" y="872" type="curve" smooth="yes"/>
      <point x="1270" y="1070"/>
      <point x="1222" y="1242"/>
      <point x="1126" y="1356" type="curve"/>
      <point x="1282" y="1584" type="line"/>
      <point x="1212" y="1620" type="line"/>
      <point x="1072" y="1414" type="line"/>
      <point x="996" y="1480"/>
      <point x="904" y="1512"/>
      <point x="794" y="1512" type="curve" smooth="yes"/>
      <point x="538" y="1512"/>
      <point x="320" y="1348"/>
      <point x="200" y="1078" type="curve" smooth="yes"/>
      <point x="140" y="942"/>
      <point x="110" y="790"/>
      <point x="110" y="624" type="curve" smooth="yes"/>
      <point x="110" y="446"/>
      <point x="148" y="286"/>
      <point x="228" y="174" type="curve"/>
      <point x="54" y="-82" type="line"/>
    </contour>
    <contour>
      <point x="614" y="98" type="curve" smooth="yes"/>
      <point x="508" y="98"/>
      <point x="424" y="138"/>
      <point x="364" y="220" type="curve"/>
      <point x="1040" y="1238" type="line"/>
      <point x="1090" y="1146"/>
      <point x="1116" y="1016"/>
      <point x="1116" y="846" type="curve" smooth="yes"/>
      <point x="1116" y="574"/>
      <point x="1026" y="332"/>
      <point x="874" y="198" type="curve" smooth="yes"/>
      <point x="796" y="132"/>
      <point x="710" y="98"/>
    </contour>
    <contour>
      <point x="320" y="296" type="line"/>
      <point x="282" y="386"/>
      <point x="262" y="504"/>
      <point x="262" y="646" type="curve" smooth="yes"/>
      <point x="262" y="912"/>
      <point x="356" y="1156"/>
      <point x="510" y="1292" type="curve" smooth="yes"/>
      <point x="588" y="1360"/>
      <point x="674" y="1394"/>
      <point x="770" y="1394" type="curve" smooth="yes"/>
      <point x="862" y="1394"/>
      <point x="936" y="1364"/>
      <point x="992" y="1306" type="curve"/>
    </contour>
  </outline>
</glyph>
<glyph name="Thorn" format="2">
  <advance width="1166"/>
  <unicode hex="00DE"/>
  <note>
Thorn
</note>
  <outline>
    <contour>
      <point x="118" y="0" type="line"/>
      <point x="264" y="0" type="line"/>
      <point x="300" y="290" type="line"/>
      <point x="356" y="284"/>
      <point x="422" y="280"/>
      <point x="498" y="280" type="curve" smooth="yes"/>
      <point x="732" y="280"/>
      <point x="922" y="376"/>
      <point x="1024" y="550" type="curve" smooth="yes"/>
      <point x="1074" y="636"/>
      <point x="1100" y="738"/>
      <point x="1100" y="856" type="curve" smooth="yes"/>
      <point x="1100" y="1118"/>
      <point x="948" y="1250"/>
      <point x="660" y="1250" type="curve" smooth="yes"/>
      <point x="620" y="1250"/>
      <point x="480" y="1242"/>
      <point x="420" y="1236" type="curve"/>
      <point x="454" y="1494" type="line"/>
      <point x="306" y="1494" type="line"/>
    </contour>
    <contour>
      <point x="502" y="394" type="curve" smooth="yes"/>
      <point x="438" y="394"/>
      <point x="358" y="402"/>
      <point x="316" y="410" type="curve"/>
      <point x="406" y="1122" type="line"/>
      <point x="462" y="1128"/>
      <point x="588" y="1140"/>
      <point x="636" y="1140" type="curve" smooth="yes"/>
      <point x="852" y="1140"/>
      <point x="952" y="1038"/>
      <point x="952" y="860" type="curve" smooth="yes"/>
      <point x="952" y="564"/>
      <point x="796" y="396"/>
    </contour>
  </outline>
</glyph>
<glyph name="germandbls" format="2">
  <advance width="1152"/>
  <unicode hex="00DF"/>
  <note>
germandbls
</note>
  <outline>
    <contour>
      <point x="664" y="-16" type="curve" smooth="yes"/>
      <point x="880" y="-16"/>
      <point x="1048" y="94"/>
      <point x="1048" y="300" type="curve" smooth="yes"/>
      <point x="1048" y="426"/>
      <point x="1000" y="512"/>
      <point x="926" y="614" type="curve" smooth="yes"/>
      <point x="848" y="710"/>
      <point x="802" y="758"/>
      <point x="802" y="804" type="curve" smooth="yes"/>
      <point x="802" y="852"/>
      <point x="834" y="890"/>
      <point x="900" y="954" type="curve" smooth="yes"/>
      <point x="988" y="1046"/>
      <point x="1062" y="1128"/>
      <point x="1062" y="1270" type="curve" smooth="yes"/>
      <point x="1062" y="1448"/>
      <point x="944" y="1550"/>
      <point x="760" y="1550" type="curve" smooth="yes"/>
      <point x="398" y="1550"/>
      <point x="248" y="1310"/>
      <point x="198" y="908" type="curve" smooth="yes"/>
      <point x="84" y="2" type="line"/>
      <point x="228" y="2" type="line"/>
      <point x="334" y="864" type="line" smooth="yes"/>
      <point x="380" y="1192"/>
      <point x="466" y="1446"/>
      <point x="718" y="1446" type="curve" smooth="yes"/>
      <point x="848" y="1446"/>
      <point x="912" y="1368"/>
      <point x="912" y="1266" type="curve" smooth="yes"/>
      <point x="912" y="1146"/>
      <point x="844" y="1066"/>
      <point x="750" y="968" type="curve" smooth="yes"/>
      <point x="692" y="902"/>
      <point x="662" y="860"/>
      <point x="662" y="786" type="curve" smooth="yes"/>
      <point x="662" y="716"/>
      <point x="726" y="640"/>
      <point x="808" y="538" type="curve" smooth="yes"/>
      <point x="870" y="450"/>
      <point x="902" y="368"/>
      <point x="902" y="294" type="curve" smooth="yes"/>
      <point x="902" y="156"/>
      <point x="816" y="98"/>
      <point x="648" y="98" type="curve" smooth="yes"/>
      <point x="562" y="98"/>
      <point x="480" y="138"/>
      <point x="438" y="176" type="curve"/>
      <point x="418" y="36" type="line"/>
      <point x="466" y="10"/>
      <point x="570" y="-16"/>
    </contour>
  </outline>
</glyph>
<glyph name="ae" format="2">
  <advance width="1586"/>
  <unicode hex="00E6"/>
  <note>
ae
</note>
  <anchor x="720" y="0" name="bottom"/>
  <anchor x="868" y="1114" name="top"/>
  <outline>
    <contour>
      <point x="350" y="-16" type="curve" smooth="yes"/>
      <point x="494" y="-16"/>
      <point x="606" y="102"/>
      <point x="686" y="260" type="curve"/>
      <point x="732" y="94"/>
      <point x="852" y="-16"/>
      <point x="1046" y="-16" type="curve" smooth="yes"/>
      <point x="1180" y="-16"/>
      <point x="1386" y="98"/>
      <point x="1446" y="182" type="curve"/>
      <point x="1404" y="266" type="line"/>
      <point x="1294" y="156"/>
      <point x="1174" y="100"/>
      <point x="1064" y="100" type="curve" smooth="yes"/>
      <point x="892" y="100"/>
      <point x="802" y="258"/>
      <point x="820" y="432" type="curve"/>
      <point x="1124" y="448"/>
      <point x="1516" y="598"/>
      <point x="1516" y="884" type="curve" smooth="yes"/>
      <point x="1516" y="998"/>
      <point x="1446" y="1128"/>
      <point x="1244" y="1128" type="curve" smooth="yes"/>
      <point x="1146" y="1128"/>
      <point x="1056" y="1102"/>
      <point x="974" y="1052" type="curve"/>
      <point x="876" y="1114"/>
      <point x="794" y="1128"/>
      <point x="698" y="1128" type="curve" smooth="yes"/>
      <point x="324" y="1128"/>
      <point x="80" y="792"/>
      <point x="80" y="406" type="curve" smooth="yes"/>
      <point x="80" y="124"/>
      <point x="170" y="-16"/>
    </contour>
    <contour>
      <point x="382" y="98" type="curve" smooth="yes"/>
      <point x="260" y="98"/>
      <point x="230" y="248"/>
      <point x="230" y="422" type="curve" smooth="yes"/>
      <point x="230" y="710"/>
      <point x="390" y="1022"/>
      <point x="674" y="1022" type="curve" smooth="yes"/>
      <point x="738" y="1022"/>
      <point x="808" y="1002"/>
      <point x="872" y="968" type="curve"/>
      <point x="742" y="838"/>
      <point x="640" y="534"/>
      <point x="668" y="374" type="curve"/>
      <point x="580" y="214"/>
      <point x="488" y="98"/>
    </contour>
    <contour>
      <point x="826" y="538" type="curve"/>
      <point x="840" y="690"/>
      <point x="910" y="852"/>
      <point x="1024" y="948" type="curve" smooth="yes"/>
      <point x="1080" y="994"/>
      <point x="1142" y="1018"/>
      <point x="1212" y="1018" type="curve" smooth="yes"/>
      <point x="1314" y="1018"/>
      <point x="1370" y="970"/>
      <point x="1370" y="872" type="curve" smooth="yes"/>
      <point x="1370" y="676"/>
      <point x="1060" y="544"/>
    </contour>
  </outline>
</glyph>
<glyph name="eth" format="2">
  <advance width="1134"/>
  <unicode hex="00F0"/>
  <note>
eth
</note>
  <outline>
    <contour>
      <point x="478" y="-16" type="curve" smooth="yes"/>
      <point x="712" y="-16"/>
      <point x="888" y="150"/>
      <point x="976" y="414" type="curve" smooth="yes"/>
      <point x="1018" y="544"/>
      <point x="1040" y="690"/>
      <point x="1040" y="848" type="curve" smooth="yes"/>
      <point x="1040" y="1140"/>
      <point x="932" y="1366"/>
      <point x="702" y="1568" type="curve"/>
      <point x="708" y="1504" type="line"/>
      <point x="886" y="1706" type="line"/>
      <point x="812" y="1774" type="line"/>
      <point x="634" y="1568" type="line"/>
      <point x="696" y="1570" type="line"/>
      <point x="598" y="1636"/>
      <point x="456" y="1708"/>
      <point x="374" y="1728" type="curve"/>
      <point x="340" y="1638" type="line"/>
      <point x="416" y="1620"/>
      <point x="530" y="1558"/>
      <point x="628" y="1482" type="curve"/>
      <point x="632" y="1558" type="line"/>
      <point x="428" y="1344" type="line"/>
      <point x="508" y="1278" type="line"/>
      <point x="708" y="1500" type="line"/>
      <point x="628" y="1484" type="line"/>
      <point x="790" y="1350"/>
      <point x="868" y="1222"/>
      <point x="900" y="1016" type="curve"/>
      <point x="854" y="1088"/>
      <point x="744" y="1128"/>
      <point x="630" y="1128" type="curve" smooth="yes"/>
      <point x="300" y="1128"/>
      <point x="86" y="798"/>
      <point x="86" y="426" type="curve" smooth="yes"/>
      <point x="86" y="192"/>
      <point x="236" y="-16"/>
    </contour>
    <contour>
      <point x="498" y="86" type="curve" smooth="yes"/>
      <point x="368" y="86"/>
      <point x="244" y="286"/>
      <point x="244" y="418" type="curve" smooth="yes"/>
      <point x="244" y="632"/>
      <point x="306" y="826"/>
      <point x="422" y="938" type="curve" smooth="yes"/>
      <point x="480" y="994"/>
      <point x="548" y="1022"/>
      <point x="626" y="1022" type="curve" smooth="yes"/>
      <point x="776" y="1022"/>
      <point x="876" y="912"/>
      <point x="892" y="818" type="curve"/>
      <point x="892" y="512"/>
      <point x="772" y="86"/>
    </contour>
  </outline>
</glyph>
<glyph name="divide" format="2">
  <advance width="1306"/>
  <unicode hex="00F7"/>
  <note>
divide
</note>
  <outline>
    <contour>
      <point x="238" y="698" type="line"/>
      <point x="1086" y="698" type="line"/>
      <point x="1100" y="816" type="line"/>
      <point x="250" y="816" type="line"/>
    </contour>
    <component base="period" xOffset="432" yOffset="262"/>
    <component base="period" xOffset="528" yOffset="1074"/>
  </outline>
</glyph>
<glyph name="oslash" format="2">
  <advance width="1108"/>
  <unicode hex="00F8"/>
  <note>
oslash
</note>
  <outline>
    <contour>
      <point x="124" y="-124" type="line"/>
      <point x="270" y="90" type="line"/>
      <point x="314" y="132" type="line"/>
      <point x="830" y="946" type="line"/>
      <point x="874" y="998" type="line"/>
      <point x="1026" y="1230" type="line"/>
      <point x="958" y="1268" type="line"/>
      <point x="806" y="1034" type="line"/>
      <point x="768" y="992" type="line"/>
      <point x="270" y="200" type="line"/>
      <point x="222" y="156" type="line"/>
      <point x="56" y="-86" type="line"/>
    </contour>
    <component base="o"/>
  </outline>
</glyph>
<glyph name="thorn" format="2">
  <advance width="1132"/>
  <unicode hex="00FE"/>
  <note>
thorn
</note>
  <outline>
    <contour>
      <point x="20" y="-504" type="line"/>
      <point x="162" y="-504" type="line"/>
      <point x="222" y="-98" type="line"/>
      <point x="236" y="8" type="line"/>
      <point x="298" y="-8"/>
      <point x="356" y="-16"/>
      <point x="410" y="-16" type="curve" smooth="yes"/>
      <point x="676" y="-16"/>
      <point x="870" y="152"/>
      <point x="966" y="376" type="curve" smooth="yes"/>
      <point x="1012" y="486"/>
      <point x="1036" y="596"/>
      <point x="1036" y="706" type="curve" smooth="yes"/>
      <point x="1036" y="968"/>
      <point x="930" y="1128"/>
      <point x="724" y="1128" type="curve" smooth="yes"/>
      <point x="574" y="1128"/>
      <point x="438" y="1034"/>
      <point x="352" y="916" type="curve"/>
      <point x="386" y="1120" type="line"/>
      <point x="444" y="1598" type="line"/>
      <point x="306" y="1598" type="line"/>
      <point x="92" y="2" type="line"/>
    </contour>
    <contour>
      <point x="432" y="92" type="curve" smooth="yes"/>
      <point x="370" y="92"/>
      <point x="304" y="104"/>
      <point x="254" y="126" type="curve"/>
      <point x="340" y="766" type="line"/>
      <point x="416" y="888"/>
      <point x="550" y="1016"/>
      <point x="700" y="1016" type="curve" smooth="yes"/>
      <point x="820" y="1016"/>
      <point x="884" y="906"/>
      <point x="884" y="690" type="curve" smooth="yes"/>
      <point x="884" y="512"/>
      <point x="816" y="310"/>
      <point x="680" y="186" type="curve" smooth="yes"/>
      <point x="610" y="124"/>
      <point x="528" y="92"/>
    </contour>
  </outline>
</glyph>
<glyph name="dcaron" format="2">
  <advance width="1396"/>
  <unicode hex="010F"/>
  <note>
dcaron
</note>
  <outline>
    <contour>
      <point x="1276" y="992" type="line"/>
      <point x="1346" y="1090"/>
      <point x="1396" y="1256"/>
      <point x="1402" y="1394" type="curve" smooth="yes"/>
      <point x="1402" y="1474"/>
      <point x="1402" y="1558"/>
      <point x="1374" y="1618" type="curve"/>
      <point x="1244" y="1584" type="line"/>
      <point x="1238" y="1560" type="line"/>
      <point x="1254" y="1534"/>
      <point x="1266" y="1470"/>
      <point x="1266" y="1392" type="curve" smooth="yes"/>
      <point x="1266" y="1286"/>
      <point x="1242" y="1170"/>
      <point x="1196" y="1040" type="curve"/>
      <point x="1200" y="1020" type="line"/>
    </contour>
    <component base="d"/>
  </outline>
</glyph>
<glyph name="dcroat" format="2">
  <advance width="1122"/>
  <unicode hex="0111"/>
  <note>
dcroat
</note>
  <outline>
    <contour>
      <point x="614" y="1262" type="line"/>
      <point x="1182" y="1262" type="line"/>
      <point x="1196" y="1360" type="line"/>
      <point x="626" y="1360" type="line"/>
    </contour>
    <component base="d"/>
  </outline>
</glyph>
<glyph name="Hbar" format="2">
  <advance width="1376"/>
  <unicode hex="0126"/>
  <note>
Hbar
</note>
  <outline>
    <contour>
      <point x="118" y="0" type="line"/>
      <point x="264" y="0" type="line"/>
      <point x="340" y="596" type="line"/>
      <point x="1048" y="596" type="line"/>
      <point x="974" y="0" type="line"/>
      <point x="1122" y="0" type="line"/>
      <point x="1248" y="1012" type="line"/>
      <point x="1470" y="1012" type="line"/>
      <point x="1480" y="1124" type="line"/>
      <point x="1262" y="1124" type="line"/>
      <point x="1308" y="1494" type="line"/>
      <point x="1162" y="1494" type="line"/>
      <point x="1116" y="1124" type="line"/>
      <point x="406" y="1124" type="line"/>
      <point x="454" y="1494" type="line"/>
      <point x="306" y="1494" type="line"/>
      <point x="260" y="1124" type="line"/>
      <point x="66" y="1124" type="line"/>
      <point x="54" y="1012" type="line"/>
      <point x="246" y="1012" type="line"/>
    </contour>
    <contour>
      <point x="354" y="708" type="line"/>
      <point x="392" y="1012" type="line"/>
      <point x="1102" y="1012" type="line"/>
      <point x="1062" y="708" type="line"/>
    </contour>
  </outline>
</glyph>
<glyph name="hbar" format="2">
  <advance width="1170"/>
  <unicode hex="0127"/>
  <note>
hbar
</note>
  <outline>
    <contour>
      <point x="130" y="1262" type="line"/>
      <point x="698" y="1262" type="line"/>
      <point x="710" y="1360" type="line"/>
      <point x="142" y="1360" type="line"/>
    </contour>
    <component base="h"/>
  </outline>
</glyph>
<glyph name="idotless" format="2">
  <advance width="550"/>
  <unicode hex="0131"/>
  <note>
dotlessi
</note>
  <anchor x="202" y="0" name="bottom"/>
  <anchor x="274" y="0" name="ogonek"/>
  <anchor x="350" y="1114" name="top"/>
  <outline>
    <contour>
      <point x="130" y="0" type="line"/>
      <point x="274" y="0" type="line"/>
      <point x="426" y="1118" type="line"/>
      <point x="280" y="1118" type="line"/>
    </contour>
  </outline>
</glyph>
<glyph name="kgreenlandic" format="2">
  <advance width="1000"/>
  <unicode hex="0138"/>
  <note>
kgreenlandic
</note>
  <outline>
    <contour>
      <point x="776" y="0" type="line"/>
      <point x="944" y="0" type="line"/>
      <point x="534" y="588" type="line"/>
      <point x="742" y="694"/>
      <point x="968" y="900"/>
      <point x="984" y="1124" type="curve"/>
      <point x="844" y="1124" type="line"/>
      <point x="796" y="910"/>
      <point x="596" y="742"/>
      <point x="366" y="610" type="curve"/>
    </contour>
    <contour>
      <point x="82" y="0" type="line"/>
      <point x="226" y="0" type="line"/>
      <point x="376" y="1124" type="line"/>
      <point x="232" y="1124" type="line"/>
    </contour>
  </outline>
</glyph>
<glyph name="Lcaron" format="2">
  <advance width="956"/>
  <unicode hex="013D"/>
  <note>
Lcaron
</note>
  <outline>
    <contour>
      <point x="854" y="952" type="line"/>
      <point x="924" y="1050"/>
      <point x="974" y="1216"/>
      <point x="980" y="1354" type="curve" smooth="yes"/>
      <point x="980" y="1434"/>
      <point x="980" y="1518"/>
      <point x="952" y="1578" type="curve"/>
      <point x="822" y="1544" type="line"/>
      <point x="816" y="1520" type="line"/>
      <point x="832" y="1494"/>
      <point x="844" y="1430"/>
      <point x="844" y="1352" type="curve" smooth="yes"/>
      <point x="844" y="1246"/>
      <point x="820" y="1130"/>
      <point x="774" y="1000" type="curve"/>
      <point x="778" y="980" type="line"/>
    </contour>
    <component base="L"/>
  </outline>
</glyph>
<glyph name="lcaron" format="2">
  <advance width="774"/>
  <unicode hex="013E"/>
  <note>
lcaron
</note>
  <outline>
    <contour>
      <point x="724" y="992" type="line"/>
      <point x="794" y="1090"/>
      <point x="844" y="1256"/>
      <point x="850" y="1394" type="curve"/>
      <point x="850" y="1474"/>
      <point x="850" y="1558"/>
      <point x="822" y="1618" type="curve"/>
      <point x="692" y="1584" type="line"/>
      <point x="686" y="1560" type="line"/>
      <point x="702" y="1534"/>
      <point x="714" y="1470"/>
      <point x="714" y="1392" type="curve" smooth="yes"/>
      <point x="714" y="1286"/>
      <point x="690" y="1170"/>
      <point x="644" y="1040" type="curve"/>
      <point x="648" y="1020" type="line"/>
    </contour>
    <component base="l"/>
  </outline>
</glyph>
<glyph name="Lslash" format="2">
  <advance width="956"/>
  <unicode hex="0141"/>
  <note>
Lslash
</note>
  <outline>
    <contour>
      <point x="224" y="760" type="line"/>
      <point x="352" y="812" type="line"/>
      <point x="828" y="1018" type="line"/>
      <point x="802" y="1114" type="line"/>
      <point x="366" y="922" type="line"/>
      <point x="238" y="868" type="line"/>
      <point x="4" y="766" type="line"/>
      <point x="32" y="678" type="line"/>
    </contour>
    <component base="L"/>
  </outline>
</glyph>
<glyph name="lslash" format="2">
  <advance width="526"/>
  <unicode hex="0142"/>
  <note>
lslash
</note>
  <outline>
    <contour>
      <point x="106" y="2" type="line"/>
      <point x="252" y="2" type="line"/>
      <point x="380" y="944" type="line"/>
      <point x="558" y="1014" type="line"/>
      <point x="558" y="1124" type="line"/>
      <point x="396" y="1058" type="line"/>
      <point x="468" y="1598" type="line"/>
      <point x="324" y="1598" type="line"/>
      <point x="242" y="994" type="line"/>
      <point x="76" y="926" type="line"/>
      <point x="76" y="824" type="line"/>
      <point x="226" y="884" type="line"/>
    </contour>
  </outline>
</glyph>
<glyph name="Eng" format="2">
  <advance width="1364"/>
  <unicode hex="014A"/>
  <note>
Eng
</note>
  <outline>
    <contour>
      <point x="684" y="-308" type="line"/>
      <point x="910" y="-268"/>
      <point x="1076" y="-160"/>
      <point x="1110" y="0" type="curve" smooth="yes"/>
      <point x="1302" y="1494" type="line"/>
      <point x="1162" y="1494" type="line"/>
      <point x="1032" y="424" type="line"/>
      <point x="1010" y="192" type="line"/>
      <point x="940" y="394" type="line"/>
      <point x="460" y="1494" type="line"/>
      <point x="306" y="1494" type="line"/>
      <point x="118" y="0" type="line"/>
      <point x="256" y="0" type="line"/>
      <point x="386" y="1048" type="line"/>
      <point x="416" y="1330" type="line"/>
      <point x="486" y="1096" type="line"/>
      <point x="962" y="12" type="line"/>
      <point x="920" y="-102"/>
      <point x="804" y="-200"/>
      <point x="658" y="-242" type="curve"/>
    </contour>
  </outline>
</glyph>
<glyph name="eng" format="2">
  <advance width="1166"/>
  <unicode hex="014B"/>
  <note>
eng
</note>
  <outline>
    <contour>
      <point x="494" y="-506" type="curve" smooth="yes"/>
      <point x="716" y="-506"/>
      <point x="864" y="-336"/>
      <point x="918" y="0" type="curve" smooth="yes"/>
      <point x="950" y="194"/>
      <point x="972" y="358"/>
      <point x="1006" y="576" type="curve" smooth="yes"/>
      <point x="1022" y="694"/>
      <point x="1034" y="782"/>
      <point x="1036" y="842" type="curve" smooth="yes"/>
      <point x="1036" y="1042"/>
      <point x="966" y="1128"/>
      <point x="816" y="1128" type="curve" smooth="yes"/>
      <point x="658" y="1128"/>
      <point x="476" y="1010"/>
      <point x="350" y="852" type="curve"/>
      <point x="380" y="1114" type="line"/>
      <point x="242" y="1114" type="line"/>
      <point x="90" y="0" type="line"/>
      <point x="236" y="0" type="line"/>
      <point x="330" y="696" type="line"/>
      <point x="418" y="822"/>
      <point x="614" y="996"/>
      <point x="756" y="996" type="curve" smooth="yes"/>
      <point x="852" y="996"/>
      <point x="888" y="944"/>
      <point x="888" y="834" type="curve" smooth="yes"/>
      <point x="888" y="728"/>
      <point x="838" y="392"/>
      <point x="774" y="0" type="curve" smooth="yes"/>
      <point x="728" y="-280"/>
      <point x="650" y="-416"/>
      <point x="468" y="-416" type="curve" smooth="yes"/>
      <point x="444" y="-416"/>
      <point x="398" y="-410"/>
      <point x="376" y="-396" type="curve"/>
      <point x="350" y="-466" type="line"/>
      <point x="372" y="-490"/>
      <point x="430" y="-506"/>
    </contour>
  </outline>
</glyph>
<glyph name="OE" format="2">
  <advance width="2040"/>
  <unicode hex="0152"/>
  <outline>
    <contour>
      <point x="602" y="-16" type="curve" smooth="yes"/>
      <point x="820" y="-16"/>
      <point x="986" y="94"/>
      <point x="1106" y="300" type="curve"/>
      <point x="1066" y="0" type="line"/>
      <point x="1916" y="0" type="line"/>
      <point x="1926" y="124" type="line"/>
      <point x="1200" y="112" type="line"/>
      <point x="1272" y="710" type="line"/>
      <point x="1746" y="700" type="line"/>
      <point x="1754" y="824" type="line"/>
      <point x="1286" y="818" type="line"/>
      <point x="1354" y="1384" type="line"/>
      <point x="1968" y="1376" type="line"/>
      <point x="1974" y="1494" type="line"/>
      <point x="1248" y="1494" type="line"/>
      <point x="1212" y="1154" type="line"/>
      <point x="1166" y="1376"/>
      <point x="1026" y="1510"/>
      <point x="804" y="1510" type="curve" smooth="yes"/>
      <point x="384" y="1510"/>
      <point x="116" y="1094"/>
      <point x="116" y="624" type="curve" smooth="yes"/>
      <point x="116" y="272"/>
      <point x="276" y="-16"/>
    </contour>
    <contour>
      <point x="626" y="96" type="curve" smooth="yes"/>
      <point x="392" y="96"/>
      <point x="268" y="278"/>
      <point x="268" y="644" type="curve" smooth="yes"/>
      <point x="268" y="1010"/>
      <point x="462" y="1394"/>
      <point x="782" y="1394" type="curve" smooth="yes"/>
      <point x="1008" y="1394"/>
      <point x="1122" y="1212"/>
      <point x="1122" y="848" type="curve" smooth="yes"/>
      <point x="1122" y="476"/>
      <point x="950" y="96"/>
    </contour>
  </outline>
</glyph>
<glyph name="tcaron" format="2">
  <advance width="722"/>
  <unicode hex="0165"/>
  <note>
tcaron
</note>
  <outline>
    <contour>
      <point x="714" y="1220" type="line"/>
      <point x="784" y="1318"/>
      <point x="834" y="1484"/>
      <point x="840" y="1622" type="curve"/>
      <point x="840" y="1702"/>
      <point x="840" y="1786"/>
      <point x="812" y="1846" type="curve"/>
      <point x="682" y="1812" type="line"/>
      <point x="676" y="1788" type="line"/>
      <point x="692" y="1762"/>
      <point x="704" y="1698"/>
      <point x="704" y="1620" type="curve" smooth="yes"/>
      <point x="704" y="1514"/>
      <point x="680" y="1398"/>
      <point x="634" y="1268" type="curve"/>
      <point x="638" y="1248" type="line"/>
    </contour>
    <component base="t"/>
  </outline>
</glyph>
<glyph name="Tbar" format="2">
  <advance width="1096"/>
  <unicode hex="0166"/>
  <note>
Tbar
</note>
  <outline>
    <contour>
      <point x="400" y="0" type="line"/>
      <point x="546" y="0" type="line"/>
      <point x="636" y="716" type="line"/>
      <point x="938" y="716" type="line"/>
      <point x="952" y="814" type="line"/>
      <point x="650" y="814" type="line"/>
      <point x="722" y="1386" type="line"/>
      <point x="1154" y="1376" type="line"/>
      <point x="1170" y="1494" type="line"/>
      <point x="152" y="1494" type="line"/>
      <point x="134" y="1376" type="line"/>
      <point x="576" y="1386" type="line"/>
      <point x="502" y="814" type="line"/>
      <point x="226" y="814" type="line"/>
      <point x="214" y="716" type="line"/>
      <point x="490" y="716" type="line"/>
    </contour>
  </outline>
</glyph>
<glyph name="tbar" format="2">
  <advance width="722"/>
  <unicode hex="0167"/>
  <note>
tbar
</note>
  <outline>
    <contour>
      <point x="660" y="738" type="line"/>
      <point x="98" y="738" type="line"/>
      <point x="86" y="628" type="line"/>
      <point x="648" y="628" type="line"/>
    </contour>
    <component base="t"/>
  </outline>
</glyph>
<glyph name="Schwa" format="2">
  <advance width="1312"/>
  <unicode hex="018F"/>
  <anchor x="520" y="0" name="bottom"/>
  <anchor x="716" y="1494" name="top"/>
  <outline>
    <contour>
      <point x="580" y="-16" type="curve" smooth="yes"/>
      <point x="1000" y="-16"/>
      <point x="1252" y="398"/>
      <point x="1252" y="872" type="curve" smooth="yes"/>
      <point x="1252" y="1212"/>
      <point x="1110" y="1510"/>
      <point x="672" y="1510" type="curve" smooth="yes"/>
      <point x="524" y="1510"/>
      <point x="376" y="1478"/>
      <point x="300" y="1444" type="curve"/>
      <point x="314" y="1310" type="line"/>
      <point x="396" y="1352"/>
      <point x="522" y="1388"/>
      <point x="642" y="1390" type="curve" smooth="yes"/>
      <point x="992" y="1394"/>
      <point x="1098" y="1206"/>
      <point x="1098" y="844" type="curve" smooth="yes"/>
      <point x="1098" y="476"/>
      <point x="926" y="96"/>
      <point x="604" y="96" type="curve" smooth="yes"/>
      <point x="370" y="96"/>
      <point x="214" y="312"/>
      <point x="258" y="676" type="curve"/>
      <point x="1124" y="676" type="line"/>
      <point x="1138" y="794" type="line"/>
      <point x="138" y="794" type="line"/>
      <point x="132" y="770"/>
      <point x="108" y="706"/>
      <point x="108" y="592" type="curve" smooth="yes"/>
      <point x="108" y="272"/>
      <point x="258" y="-16"/>
    </contour>
  </outline>
</glyph>
<glyph name="florin" format="2">
  <advance width="1034"/>
  <unicode hex="0192"/>
  <note>
florin
</note>
  <outline>
    <contour>
      <point x="250" y="-348" type="line"/>
      <point x="398" y="-348" type="line"/>
      <point x="576" y="996" type="line"/>
      <point x="870" y="996" type="line"/>
      <point x="880" y="1114" type="line"/>
      <point x="590" y="1114" type="line"/>
      <point x="606" y="1242" type="line" smooth="yes"/>
      <point x="626" y="1398"/>
      <point x="720" y="1522"/>
      <point x="842" y="1522" type="curve" smooth="yes"/>
      <point x="916" y="1522"/>
      <point x="950" y="1514"/>
      <point x="986" y="1496" type="curve"/>
      <point x="994" y="1622" type="line"/>
      <point x="952" y="1634"/>
      <point x="894" y="1638"/>
      <point x="846" y="1638" type="curve" smooth="yes"/>
      <point x="666" y="1638"/>
      <point x="488" y="1480"/>
      <point x="456" y="1200" type="curve" smooth="yes"/>
      <point x="446" y="1114" type="line"/>
      <point x="202" y="1074" type="line"/>
      <point x="192" y="996" type="line"/>
      <point x="430" y="996" type="line"/>
    </contour>
  </outline>
</glyph>
<glyph name="Ohorn" format="2">
  <advance width="1346"/>
  <unicode hex="01A0"/>
  <anchor x="758" y="1494" name="top"/>
  <outline>
    <contour>
      <point x="978" y="1342" type="line"/>
      <point x="1282" y="1342"/>
      <point x="1420" y="1496"/>
      <point x="1420" y="1708" type="curve" smooth="yes"/>
      <point x="1420" y="1722"/>
      <point x="1418" y="1736"/>
      <point x="1416" y="1752" type="curve"/>
      <point x="1276" y="1752" type="line"/>
      <point x="1278" y="1744"/>
      <point x="1284" y="1720"/>
      <point x="1284" y="1698" type="curve" smooth="yes"/>
      <point x="1284" y="1638"/>
      <point x="1278" y="1456"/>
      <point x="994" y="1456" type="curve"/>
    </contour>
    <component base="O"/>
  </outline>
</glyph>
<glyph name="Ezh" format="2">
  <advance width="1016"/>
  <unicode hex="01B7"/>
  <anchor x="674" y="1494" name="top"/>
  <outline>
    <contour>
      <point x="332" y="-14" type="curve" smooth="yes"/>
      <point x="752" y="-8"/>
      <point x="960" y="216"/>
      <point x="960" y="498" type="curve" smooth="yes"/>
      <point x="960" y="696"/>
      <point x="764" y="876"/>
      <point x="516" y="852" type="curve"/>
      <point x="1038" y="1340" type="line"/>
      <point x="1064" y="1496" type="line"/>
      <point x="218" y="1494" type="line"/>
      <point x="202" y="1376" type="line"/>
      <point x="930" y="1384" type="line"/>
      <point x="790" y="1274" type="line"/>
      <point x="310" y="812" type="line"/>
      <point x="294" y="666" type="line"/>
      <point x="422" y="756" type="line"/>
      <point x="668" y="778"/>
      <point x="816" y="654"/>
      <point x="816" y="472" type="curve" smooth="yes"/>
      <point x="816" y="298"/>
      <point x="652" y="100"/>
      <point x="326" y="100" type="curve" smooth="yes"/>
      <point x="244" y="100"/>
      <point x="156" y="104"/>
      <point x="100" y="116" type="curve"/>
      <point x="84" y="10" type="line"/>
      <point x="154" y="-6"/>
      <point x="214" y="-16"/>
    </contour>
  </outline>
</glyph>
<glyph name="jdotless" format="2">
  <advance width="562"/>
  <unicode hex="0237"/>
  <note>
uni0237
</note>
  <anchor x="136" y="-546" name="bottom"/>
  <anchor x="368" y="1114" name="top"/>
  <outline>
    <contour>
      <point x="-106" y="-502" type="curve" smooth="yes"/>
      <point x="104" y="-502"/>
      <point x="242" y="-318"/>
      <point x="284" y="4" type="curve" smooth="yes"/>
      <point x="434" y="1118" type="line"/>
      <point x="288" y="1118" type="line"/>
      <point x="146" y="58" type="line" smooth="yes"/>
      <point x="114" y="-192"/>
      <point x="62" y="-402"/>
      <point x="-126" y="-402" type="curve" smooth="yes"/>
      <point x="-152" y="-402"/>
      <point x="-186" y="-392"/>
      <point x="-200" y="-382" type="curve"/>
      <point x="-238" y="-466" type="line"/>
      <point x="-212" y="-488"/>
      <point x="-164" y="-502"/>
    </contour>
  </outline>
</glyph>
<glyph name="schwa" format="2">
  <advance width="1006"/>
  <unicode hex="0259"/>
  <anchor x="348" y="0" name="bottom"/>
  <anchor x="370" y="1094" name="ogonek"/>
  <anchor x="516" y="1114" name="top"/>
  <outline>
    <contour>
      <point x="538" y="1130" type="curve" smooth="yes"/>
      <point x="406" y="1130"/>
      <point x="200" y="1014"/>
      <point x="140" y="932" type="curve"/>
      <point x="182" y="848" type="line"/>
      <point x="288" y="958"/>
      <point x="412" y="1014"/>
      <point x="522" y="1014" type="curve" smooth="yes"/>
      <point x="698" y="1014"/>
      <point x="766" y="882"/>
      <point x="766" y="714" type="curve" smooth="yes"/>
      <point x="766" y="700"/>
      <point x="766" y="688"/>
      <point x="764" y="682" type="curve"/>
      <point x="412" y="646"/>
      <point x="70" y="496"/>
      <point x="70" y="230" type="curve" smooth="yes"/>
      <point x="70" y="76"/>
      <point x="196" y="-14"/>
      <point x="342" y="-14" type="curve" smooth="yes"/>
      <point x="560" y="-14"/>
      <point x="738" y="116"/>
      <point x="838" y="328" type="curve" smooth="yes"/>
      <point x="888" y="434"/>
      <point x="916" y="554"/>
      <point x="918" y="684" type="curve" smooth="yes"/>
      <point x="924" y="838"/>
      <point x="872" y="980"/>
      <point x="758" y="1066" type="curve" smooth="yes"/>
      <point x="700" y="1108"/>
      <point x="628" y="1130"/>
    </contour>
    <contour>
      <point x="760" y="576" type="curve"/>
      <point x="746" y="424"/>
      <point x="674" y="262"/>
      <point x="560" y="166" type="curve" smooth="yes"/>
      <point x="504" y="120"/>
      <point x="442" y="96"/>
      <point x="374" y="96" type="curve" smooth="yes"/>
      <point x="272" y="96"/>
      <point x="214" y="144"/>
      <point x="214" y="242" type="curve" smooth="yes"/>
      <point x="214" y="440"/>
      <point x="528" y="570"/>
    </contour>
  </outline>
</glyph>
<glyph name="ezh" format="2">
  <advance width="900"/>
  <unicode hex="0292"/>
  <anchor x="356" y="0" name="bottom"/>
  <anchor x="430" y="558" name="center"/>
  <anchor x="516" y="1114" name="top"/>
  <outline>
    <contour>
      <point x="190" y="-294" type="curve" smooth="yes"/>
      <point x="546" y="-294"/>
      <point x="796" y="-94"/>
      <point x="796" y="202" type="curve" smooth="yes"/>
      <point x="796" y="374"/>
      <point x="660" y="502"/>
      <point x="450" y="502" type="curve"/>
      <point x="892" y="1052" type="line"/>
      <point x="860" y="1114" type="line"/>
      <point x="158" y="1114" type="line"/>
      <point x="140" y="998" type="line"/>
      <point x="710" y="998" type="line"/>
      <point x="540" y="806" type="line"/>
      <point x="282" y="482" type="line"/>
      <point x="368" y="408" type="line"/>
      <point x="530" y="420"/>
      <point x="642" y="352"/>
      <point x="642" y="180" type="curve" smooth="yes"/>
      <point x="642" y="-48"/>
      <point x="448" y="-182"/>
      <point x="176" y="-182" type="curve" smooth="yes"/>
      <point x="110" y="-182"/>
      <point x="60" y="-182"/>
      <point x="4" y="-172" type="curve"/>
      <point x="-10" y="-286" type="line"/>
      <point x="56" y="-288"/>
      <point x="120" y="-294"/>
    </contour>
  </outline>
</glyph>
<glyph name="commaturnedmod" format="2">
  <unicode hex="02BB"/>
  <anchor x="76" y="1114" name="_top"/>
  <anchor x="132" y="1560" name="top"/>
  <outline>
    <contour>
      <point x="134" y="1784" type="line"/>
      <point x="34" y="1718"/>
      <point x="-14" y="1638"/>
      <point x="-14" y="1520" type="curve" smooth="yes"/>
      <point x="-14" y="1424"/>
      <point x="28" y="1360"/>
      <point x="102" y="1310" type="curve"/>
      <point x="210" y="1394" type="line"/>
      <point x="214" y="1436" type="line"/>
      <point x="172" y="1452"/>
      <point x="142" y="1506"/>
      <point x="142" y="1562" type="curve" smooth="yes"/>
      <point x="142" y="1610"/>
      <point x="144" y="1672"/>
      <point x="200" y="1712" type="curve"/>
      <point x="202" y="1732" type="line"/>
    </contour>
  </outline>
</glyph>
<glyph name="apostrophemod" format="2">
  <unicode hex="02BC"/>
  <anchor x="76" y="1114" name="_top"/>
  <anchor x="132" y="1560" name="top"/>
  <outline>
    <contour>
      <point x="66" y="1310" type="line"/>
      <point x="166" y="1376"/>
      <point x="214" y="1456"/>
      <point x="214" y="1574" type="curve" smooth="yes"/>
      <point x="214" y="1670"/>
      <point x="172" y="1734"/>
      <point x="98" y="1784" type="curve"/>
      <point x="-10" y="1700" type="line"/>
      <point x="-14" y="1658" type="line"/>
      <point x="28" y="1642"/>
      <point x="58" y="1588"/>
      <point x="58" y="1532" type="curve" smooth="yes"/>
      <point x="58" y="1484"/>
      <point x="56" y="1422"/>
      <point x="0" y="1382" type="curve"/>
      <point x="-2" y="1362" type="line"/>
    </contour>
  </outline>
</glyph>
<glyph name="ringhalfright" format="2">
  <advance width="456"/>
  <unicode hex="02BE"/>
  <outline>
    <contour>
      <point x="237" y="1300" type="line"/>
      <point x="413" y="1300"/>
      <point x="541" y="1396"/>
      <point x="539" y="1564" type="curve" smooth="yes"/>
      <point x="537" y="1744"/>
      <point x="385" y="1814"/>
      <point x="237" y="1814" type="curve"/>
      <point x="237" y="1722" type="line"/>
      <point x="327" y="1722"/>
      <point x="423" y="1682"/>
      <point x="423" y="1564" type="curve" smooth="yes"/>
      <point x="423" y="1464"/>
      <point x="355" y="1396"/>
      <point x="237" y="1396" type="curve"/>
    </contour>
  </outline>
</glyph>
<glyph name="ringhalfleft" format="2">
  <unicode hex="02BF"/>
  <outline>
    <contour>
      <point x="0" y="1300" type="curve"/>
      <point x="0" y="1396" type="line"/>
      <point x="-118" y="1396"/>
      <point x="-186" y="1464"/>
      <point x="-186" y="1564" type="curve" smooth="yes"/>
      <point x="-186" y="1682"/>
      <point x="-90" y="1722"/>
      <point x="0" y="1722" type="curve"/>
      <point x="0" y="1814" type="line"/>
      <point x="-148" y="1814"/>
      <point x="-300" y="1744"/>
      <point x="-302" y="1564" type="curve" smooth="yes"/>
      <point x="-304" y="1396"/>
      <point x="-176" y="1300"/>
    </contour>
  </outline>
</glyph>
<glyph name="circumflex" format="2">
  <advance width="776"/>
  <unicode hex="02C6"/>
  <note>
circumflex
</note>
  <outline>
    <contour>
      <point x="152" y="1246" type="line"/>
      <point x="478" y="1538" type="line"/>
      <point x="690" y="1250" type="line"/>
      <point x="762" y="1302" type="line"/>
      <point x="564" y="1670" type="line"/>
      <point x="430" y="1670" type="line"/>
      <point x="94" y="1302" type="line"/>
    </contour>
  </outline>
</glyph>
<glyph name="caron" format="2">
  <advance width="776"/>
  <unicode hex="02C7"/>
  <note>
caron
</note>
  <outline>
    <contour>
      <point x="314" y="1254" type="line"/>
      <point x="446" y="1254" type="line"/>
      <point x="774" y="1576" type="line"/>
      <point x="712" y="1640" type="line"/>
      <point x="386" y="1368" type="line"/>
      <point x="144" y="1640" type="line"/>
      <point x="78" y="1576" type="line"/>
    </contour>
  </outline>
</glyph>
<glyph name="verticallinemod" format="2">
  <unicode hex="02C8"/>
  <anchor x="76" y="1114" name="_top"/>
  <anchor x="132" y="1560" name="top"/>
  <outline>
    <contour>
      <point x="-54" y="1374" type="line"/>
      <point x="52" y="1374" type="line"/>
      <point x="90" y="2080" type="line"/>
      <point x="-90" y="2080" type="line"/>
    </contour>
  </outline>
</glyph>
<glyph name="secondtonechinese" format="2">
  <unicode hex="02CA"/>
  <outline>
    <contour>
      <point x="-34" y="1284" type="line"/>
      <point x="52" y="1340"/>
      <point x="262" y="1540"/>
      <point x="330" y="1638" type="curve"/>
      <point x="212" y="1740" type="line"/>
      <point x="112" y="1600"/>
      <point x="0" y="1478"/>
      <point x="-118" y="1350" type="curve"/>
    </contour>
  </outline>
</glyph>
<glyph name="verticallinelowmod" format="2">
  <unicode hex="02CC"/>
  <outline>
    <contour>
      <point x="-54" y="-516" type="line"/>
      <point x="52" y="-516" type="line"/>
      <point x="90" y="190" type="line"/>
      <point x="-90" y="190" type="line"/>
    </contour>
  </outline>
</glyph>
<glyph name="breve" format="2">
  <advance width="700"/>
  <unicode hex="02D8"/>
  <note>
breve
</note>
  <outline>
    <contour>
      <point x="340" y="1274" type="curve" smooth="yes"/>
      <point x="518" y="1274"/>
      <point x="666" y="1430"/>
      <point x="666" y="1610" type="curve"/>
      <point x="568" y="1610" type="line"/>
      <point x="552" y="1504"/>
      <point x="472" y="1384"/>
      <point x="344" y="1384" type="curve" smooth="yes"/>
      <point x="222" y="1384"/>
      <point x="152" y="1488"/>
      <point x="152" y="1610" type="curve"/>
      <point x="52" y="1610" type="line"/>
      <point x="32" y="1430"/>
      <point x="166" y="1274"/>
    </contour>
  </outline>
</glyph>
<glyph name="dotaccent" format="2">
  <advance width="378"/>
  <unicode hex="02D9"/>
  <note>
dotaccent
</note>
  <outline>
    <contour>
      <point x="144" y="1372" type="curve" smooth="yes"/>
      <point x="204" y="1372"/>
      <point x="258" y="1430"/>
      <point x="258" y="1496" type="curve" smooth="yes"/>
      <point x="258" y="1546"/>
      <point x="222" y="1582"/>
      <point x="168" y="1582" type="curve" smooth="yes"/>
      <point x="110" y="1582"/>
      <point x="60" y="1526"/>
      <point x="60" y="1462" type="curve" smooth="yes"/>
      <point x="60" y="1408"/>
      <point x="96" y="1372"/>
    </contour>
  </outline>
</glyph>
<glyph name="ring" format="2">
  <advance width="706"/>
  <unicode hex="02DA"/>
  <note>
ring
</note>
  <outline>
    <contour>
      <point x="370" y="1228" type="curve" smooth="yes"/>
      <point x="488" y="1228"/>
      <point x="590" y="1268"/>
      <point x="650" y="1348" type="curve" smooth="yes"/>
      <point x="680" y="1388"/>
      <point x="694" y="1438"/>
      <point x="694" y="1496" type="curve" smooth="yes"/>
      <point x="694" y="1648"/>
      <point x="592" y="1740"/>
      <point x="430" y="1740" type="curve" smooth="yes"/>
      <point x="324" y="1740"/>
      <point x="212" y="1698"/>
      <point x="146" y="1618" type="curve" smooth="yes"/>
      <point x="112" y="1576"/>
      <point x="96" y="1528"/>
      <point x="96" y="1470" type="curve" smooth="yes"/>
      <point x="96" y="1318"/>
      <point x="196" y="1228"/>
    </contour>
    <contour>
      <point x="376" y="1310" type="curve" smooth="yes"/>
      <point x="276" y="1310"/>
      <point x="202" y="1374"/>
      <point x="202" y="1464" type="curve" smooth="yes"/>
      <point x="202" y="1600"/>
      <point x="300" y="1658"/>
      <point x="418" y="1658" type="curve" smooth="yes"/>
      <point x="522" y="1658"/>
      <point x="588" y="1598"/>
      <point x="588" y="1508" type="curve" smooth="yes"/>
      <point x="588" y="1366"/>
      <point x="498" y="1310"/>
    </contour>
  </outline>
</glyph>
<glyph name="ogonek" format="2">
  <advance width="476"/>
  <unicode hex="02DB"/>
  <note>
ogonek
</note>
  <outline>
    <contour>
      <point x="196" y="-420" type="curve" smooth="yes"/>
      <point x="298" y="-420"/>
      <point x="366" y="-378"/>
      <point x="420" y="-328" type="curve"/>
      <point x="382" y="-252" type="line"/>
      <point x="332" y="-290"/>
      <point x="282" y="-310"/>
      <point x="228" y="-310" type="curve" smooth="yes"/>
      <point x="186" y="-310"/>
      <point x="154" y="-288"/>
      <point x="154" y="-240" type="curve" smooth="yes"/>
      <point x="154" y="-162"/>
      <point x="256" y="-80"/>
      <point x="378" y="0" type="curve"/>
      <point x="334" y="44" type="line"/>
      <point x="258" y="0" type="line" smooth="yes"/>
      <point x="128" y="-74"/>
      <point x="10" y="-166"/>
      <point x="10" y="-284" type="curve" smooth="yes"/>
      <point x="10" y="-358"/>
      <point x="88" y="-420"/>
    </contour>
  </outline>
</glyph>
<glyph name="tilde" format="2">
  <advance width="760"/>
  <unicode hex="02DC"/>
  <note>
tilde
</note>
  <outline>
    <contour>
      <point x="624" y="1270" type="curve" smooth="yes"/>
      <point x="716" y="1270"/>
      <point x="812" y="1346"/>
      <point x="836" y="1438" type="curve"/>
      <point x="778" y="1506" type="line"/>
      <point x="756" y="1472"/>
      <point x="710" y="1392"/>
      <point x="640" y="1392" type="curve" smooth="yes"/>
      <point x="602" y="1392"/>
      <point x="580" y="1412"/>
      <point x="538" y="1452" type="curve" smooth="yes"/>
      <point x="484" y="1504"/>
      <point x="432" y="1532"/>
      <point x="368" y="1532" type="curve" smooth="yes"/>
      <point x="274" y="1532"/>
      <point x="188" y="1454"/>
      <point x="148" y="1370" type="curve"/>
      <point x="210" y="1306" type="line"/>
      <point x="248" y="1366"/>
      <point x="296" y="1412"/>
      <point x="350" y="1412" type="curve" smooth="yes"/>
      <point x="394" y="1412"/>
      <point x="416" y="1392"/>
      <point x="458" y="1350" type="curve" smooth="yes"/>
      <point x="502" y="1306"/>
      <point x="558" y="1270"/>
    </contour>
  </outline>
</glyph>
<glyph name="hungarumlaut" format="2">
  <advance width="896"/>
  <unicode hex="02DD"/>
  <note>
hungarumlaut
</note>
  <outline>
    <contour>
      <point x="534" y="1220" type="line"/>
      <point x="614" y="1284"/>
      <point x="772" y="1494"/>
      <point x="812" y="1580" type="curve"/>
      <point x="706" y="1666" type="line"/>
      <point x="462" y="1262" type="line"/>
    </contour>
    <contour>
      <point x="118" y="1220" type="line"/>
      <point x="204" y="1290"/>
      <point x="334" y="1466"/>
      <point x="388" y="1580" type="curve"/>
      <point x="280" y="1666" type="line"/>
      <point x="48" y="1262" type="line"/>
    </contour>
  </outline>
</glyph>
<glyph name="gravecomb" format="2">
  <unicode hex="0300"/>
  <note>
grave
</note>
  <anchor x="74" y="1114" name="_top"/>
  <anchor x="134" y="1576" name="top"/>
  <outline>
    <contour>
      <point x="214" y="1316" type="curve"/>
      <point x="278" y="1370" type="line"/>
      <point x="-10" y="1758" type="line"/>
      <point x="-124" y="1656" type="line"/>
      <point x="-62" y="1558"/>
      <point x="110" y="1392"/>
    </contour>
  </outline>
</glyph>
<glyph name="acutecomb" format="2">
  <unicode hex="0301"/>
  <note>
acute
</note>
  <anchor x="74" y="1114" name="_top"/>
  <anchor x="66" y="1458" name="top"/>
  <outline>
    <contour>
      <point x="66" y="1316" type="line"/>
      <point x="160" y="1368"/>
      <point x="368" y="1576"/>
      <point x="420" y="1658" type="curve"/>
      <point x="308" y="1760" type="line"/>
      <point x="4" y="1370" type="line"/>
    </contour>
  </outline>
</glyph>
<glyph name="circumflexcomb" format="2">
  <unicode hex="0302"/>
  <note>
circumflex
</note>
  <anchor x="74" y="1114" name="_top"/>
  <anchor x="134" y="1576" name="top"/>
  <outline>
    <contour>
      <point x="-206" y="1240" type="line"/>
      <point x="120" y="1532" type="line"/>
      <point x="332" y="1244" type="line"/>
      <point x="404" y="1296" type="line"/>
      <point x="206" y="1664" type="line"/>
      <point x="72" y="1664" type="line"/>
      <point x="-264" y="1296" type="line"/>
    </contour>
  </outline>
</glyph>
<glyph name="tildecomb" format="2">
  <unicode hex="0303"/>
  <note>
tilde
</note>
  <anchor x="74" y="1114" name="_top"/>
  <anchor x="120" y="1462" name="top"/>
  <outline>
    <contour>
      <point x="226" y="1266" type="curve" smooth="yes"/>
      <point x="318" y="1266"/>
      <point x="414" y="1342"/>
      <point x="438" y="1434" type="curve"/>
      <point x="380" y="1502" type="line"/>
      <point x="358" y="1468"/>
      <point x="312" y="1388"/>
      <point x="242" y="1388" type="curve" smooth="yes"/>
      <point x="204" y="1388"/>
      <point x="182" y="1408"/>
      <point x="140" y="1448" type="curve" smooth="yes"/>
      <point x="86" y="1500"/>
      <point x="34" y="1528"/>
      <point x="-30" y="1528" type="curve" smooth="yes"/>
      <point x="-124" y="1528"/>
      <point x="-210" y="1450"/>
      <point x="-250" y="1366" type="curve"/>
      <point x="-188" y="1302" type="line"/>
      <point x="-150" y="1362"/>
      <point x="-102" y="1408"/>
      <point x="-48" y="1408" type="curve" smooth="yes"/>
      <point x="-4" y="1408"/>
      <point x="18" y="1388"/>
      <point x="60" y="1346" type="curve" smooth="yes"/>
      <point x="104" y="1302"/>
      <point x="160" y="1266"/>
    </contour>
  </outline>
</glyph>
<glyph name="macroncomb" format="2">
  <unicode hex="0304"/>
  <note>
macron
</note>
  <anchor x="74" y="1114" name="_top"/>
  <anchor x="114" y="1400" name="top"/>
  <outline>
    <contour>
      <point x="-144" y="1332" type="line"/>
      <point x="356" y="1332" type="line"/>
      <point x="368" y="1444" type="line"/>
      <point x="-132" y="1444" type="line"/>
    </contour>
  </outline>
</glyph>
<glyph name="brevecomb" format="2">
  <unicode hex="0306"/>
  <note>
breve
</note>
  <anchor x="74" y="1114" name="_top"/>
  <anchor x="134" y="1576" name="top"/>
  <outline>
    <contour>
      <point x="90" y="1264" type="curve" smooth="yes"/>
      <point x="280" y="1264"/>
      <point x="416" y="1412"/>
      <point x="416" y="1600" type="curve"/>
      <point x="318" y="1600" type="line"/>
      <point x="302" y="1494"/>
      <point x="242" y="1374"/>
      <point x="94" y="1374" type="curve" smooth="yes"/>
      <point x="-48" y="1374"/>
      <point x="-86" y="1478"/>
      <point x="-86" y="1600" type="curve"/>
      <point x="-186" y="1600" type="line"/>
      <point x="-212" y="1430"/>
      <point x="-104" y="1264"/>
    </contour>
  </outline>
</glyph>
<glyph name="dotaccentcomb" format="2">
  <unicode hex="0307"/>
  <note>
dotaccent
</note>
  <anchor x="74" y="1114" name="_top"/>
  <anchor x="134" y="1538" name="top"/>
  <outline>
    <contour>
      <point x="104" y="1310" type="curve" smooth="yes"/>
      <point x="164" y="1310"/>
      <point x="218" y="1368"/>
      <point x="218" y="1434" type="curve" smooth="yes"/>
      <point x="218" y="1484"/>
      <point x="182" y="1520"/>
      <point x="128" y="1520" type="curve" smooth="yes"/>
      <point x="70" y="1520"/>
      <point x="20" y="1464"/>
      <point x="20" y="1400" type="curve" smooth="yes"/>
      <point x="20" y="1346"/>
      <point x="56" y="1310"/>
    </contour>
  </outline>
</glyph>
<glyph name="dieresiscomb" format="2">
  <unicode hex="0308"/>
  <note>
dieresis
</note>
  <anchor x="74" y="1114" name="_top"/>
  <anchor x="120" y="1460" name="top"/>
  <outline>
    <contour>
      <point x="-112" y="1324" type="curve" smooth="yes"/>
      <point x="-48" y="1324"/>
      <point x="4" y="1378"/>
      <point x="4" y="1448" type="curve" smooth="yes"/>
      <point x="4" y="1498"/>
      <point x="-32" y="1532"/>
      <point x="-86" y="1532" type="curve" smooth="yes"/>
      <point x="-144" y="1532"/>
      <point x="-196" y="1476"/>
      <point x="-196" y="1412" type="curve" smooth="yes"/>
      <point x="-196" y="1362"/>
      <point x="-158" y="1324"/>
    </contour>
    <contour>
      <point x="300" y="1324" type="curve" smooth="yes"/>
      <point x="362" y="1324"/>
      <point x="414" y="1378"/>
      <point x="414" y="1448" type="curve" smooth="yes"/>
      <point x="414" y="1498"/>
      <point x="380" y="1532"/>
      <point x="326" y="1532" type="curve" smooth="yes"/>
      <point x="264" y="1532"/>
      <point x="216" y="1478"/>
      <point x="216" y="1412" type="curve" smooth="yes"/>
      <point x="216" y="1362"/>
      <point x="252" y="1324"/>
    </contour>
  </outline>
</glyph>
<glyph name="hookabovecomb" format="2">
  <unicode hex="0309"/>
  <anchor x="74" y="1114" name="_top"/>
  <anchor x="134" y="1576" name="top"/>
  <outline>
    <contour>
      <point x="50" y="1266" type="curve"/>
      <point x="146" y="1266" type="line"/>
      <point x="134" y="1316"/>
      <point x="158" y="1358"/>
      <point x="176" y="1372" type="curve" smooth="yes"/>
      <point x="238" y="1420"/>
      <point x="320" y="1450"/>
      <point x="332" y="1562" type="curve" smooth="yes"/>
      <point x="344" y="1678"/>
      <point x="264" y="1748"/>
      <point x="132" y="1748" type="curve" smooth="yes"/>
      <point x="82" y="1748"/>
      <point x="26" y="1734"/>
      <point x="-12" y="1718" type="curve"/>
      <point x="-18" y="1608" type="line"/>
      <point x="6" y="1620"/>
      <point x="40" y="1628"/>
      <point x="72" y="1628" type="curve" smooth="yes"/>
      <point x="154" y="1628"/>
      <point x="188" y="1594"/>
      <point x="182" y="1534" type="curve"/>
      <point x="172" y="1462"/>
      <point x="48" y="1450"/>
      <point x="34" y="1352" type="curve"/>
      <point x="30" y="1316"/>
      <point x="42" y="1294"/>
    </contour>
  </outline>
</glyph>
<glyph name="ringcomb" format="2">
  <unicode hex="030A"/>
  <note>
ring
</note>
  <anchor x="74" y="1114" name="_top"/>
  <anchor x="240" y="1470" name="top"/>
  <outline>
    <contour>
      <point x="96" y="1228" type="curve" smooth="yes"/>
      <point x="214" y="1228"/>
      <point x="316" y="1268"/>
      <point x="376" y="1348" type="curve" smooth="yes"/>
      <point x="406" y="1388"/>
      <point x="420" y="1438"/>
      <point x="420" y="1496" type="curve" smooth="yes"/>
      <point x="420" y="1648"/>
      <point x="318" y="1740"/>
      <point x="156" y="1740" type="curve" smooth="yes"/>
      <point x="50" y="1740"/>
      <point x="-62" y="1698"/>
      <point x="-128" y="1618" type="curve" smooth="yes"/>
      <point x="-162" y="1576"/>
      <point x="-178" y="1528"/>
      <point x="-178" y="1470" type="curve" smooth="yes"/>
      <point x="-178" y="1318"/>
      <point x="-78" y="1228"/>
    </contour>
    <contour>
      <point x="102" y="1310" type="curve" smooth="yes"/>
      <point x="2" y="1310"/>
      <point x="-72" y="1374"/>
      <point x="-72" y="1464" type="curve" smooth="yes"/>
      <point x="-72" y="1600"/>
      <point x="26" y="1658"/>
      <point x="144" y="1658" type="curve" smooth="yes"/>
      <point x="248" y="1658"/>
      <point x="314" y="1598"/>
      <point x="314" y="1508" type="curve" smooth="yes"/>
      <point x="314" y="1366"/>
      <point x="224" y="1310"/>
    </contour>
  </outline>
</glyph>
<glyph name="hungarumlautcomb" format="2">
  <unicode hex="030B"/>
  <note>
hungarumlaut
</note>
  <anchor x="74" y="1114" name="_top"/>
  <anchor x="134" y="1576" name="top"/>
  <outline>
    <contour>
      <point x="238" y="1220" type="line"/>
      <point x="318" y="1284"/>
      <point x="476" y="1494"/>
      <point x="516" y="1580" type="curve"/>
      <point x="410" y="1666" type="line"/>
      <point x="166" y="1262" type="line"/>
    </contour>
    <contour>
      <point x="-180" y="1220" type="line"/>
      <point x="-94" y="1290"/>
      <point x="38" y="1466"/>
      <point x="92" y="1580" type="curve"/>
      <point x="-18" y="1666" type="line"/>
      <point x="-250" y="1262" type="line"/>
    </contour>
  </outline>
</glyph>
<glyph name="caroncomb" format="2">
  <unicode hex="030C"/>
  <note>
caron
</note>
  <anchor x="74" y="1114" name="_top"/>
  <anchor x="130" y="1576" name="top"/>
  <outline>
    <contour>
      <point x="38" y="1300" type="line"/>
      <point x="170" y="1300" type="line"/>
      <point x="498" y="1622" type="line"/>
      <point x="436" y="1686" type="line"/>
      <point x="110" y="1414" type="line"/>
      <point x="-132" y="1686" type="line"/>
      <point x="-198" y="1622" type="line"/>
    </contour>
  </outline>
</glyph>
<glyph name="dblgravecomb" format="2">
  <unicode hex="030F"/>
  <anchor x="74" y="1114" name="_top"/>
  <anchor x="136" y="1578" name="top"/>
  <outline>
    <contour>
      <point x="-78" y="1280" type="curve"/>
      <point x="-14" y="1318" type="line"/>
      <point x="-258" y="1712" type="line"/>
      <point x="-356" y="1640" type="line"/>
      <point x="-316" y="1554"/>
      <point x="-158" y="1344"/>
    </contour>
    <contour>
      <point x="340" y="1280" type="curve"/>
      <point x="402" y="1318" type="line"/>
      <point x="170" y="1712" type="line"/>
      <point x="68" y="1640" type="line"/>
      <point x="122" y="1526"/>
      <point x="254" y="1350"/>
    </contour>
  </outline>
</glyph>
<glyph name="breveinvertedcomb" format="2">
  <unicode hex="0311"/>
  <note>
breve
</note>
  <anchor x="74" y="1114" name="_top"/>
  <anchor x="136" y="1578" name="top"/>
  <outline>
    <contour>
      <point x="104" y="1632" type="curve" smooth="yes"/>
      <point x="-66" y="1632"/>
      <point x="-222" y="1484"/>
      <point x="-222" y="1296" type="curve"/>
      <point x="-124" y="1296" type="line"/>
      <point x="-108" y="1402"/>
      <point x="-28" y="1522"/>
      <point x="100" y="1522" type="curve" smooth="yes"/>
      <point x="222" y="1522"/>
      <point x="292" y="1418"/>
      <point x="292" y="1296" type="curve"/>
      <point x="392" y="1296" type="line"/>
      <point x="418" y="1466"/>
      <point x="278" y="1632"/>
    </contour>
  </outline>
</glyph>
<glyph name="commaturnedabovecomb" format="2">
  <unicode hex="0312"/>
  <note>
uni0326
</note>
  <anchor x="74" y="1114" name="_top"/>
  <anchor x="134" y="1576" name="top"/>
  <outline>
    <contour>
      <point x="134" y="1784" type="line"/>
      <point x="34" y="1718"/>
      <point x="-14" y="1638"/>
      <point x="-14" y="1520" type="curve" smooth="yes"/>
      <point x="-14" y="1424"/>
      <point x="28" y="1360"/>
      <point x="102" y="1310" type="curve"/>
      <point x="210" y="1394" type="line"/>
      <point x="214" y="1436" type="line"/>
      <point x="172" y="1452"/>
      <point x="142" y="1506"/>
      <point x="142" y="1562" type="curve" smooth="yes"/>
      <point x="142" y="1610"/>
      <point x="144" y="1672"/>
      <point x="200" y="1712" type="curve"/>
      <point x="202" y="1732" type="line"/>
    </contour>
  </outline>
</glyph>
<glyph name="horncomb" format="2">
  <unicode hex="031B"/>
  <outline>
    <contour>
      <point x="-36" y="996" type="line"/>
      <point x="268" y="996"/>
      <point x="448" y="1116"/>
      <point x="448" y="1328" type="curve" smooth="yes"/>
      <point x="448" y="1342"/>
      <point x="446" y="1356"/>
      <point x="444" y="1372" type="curve"/>
      <point x="304" y="1372" type="line"/>
      <point x="306" y="1364"/>
      <point x="304" y="1352"/>
      <point x="302" y="1338" type="curve" smooth="yes"/>
      <point x="290" y="1256"/>
      <point x="280" y="1110"/>
      <point x="-20" y="1110" type="curve"/>
    </contour>
  </outline>
</glyph>
<glyph name="dieresisbelowcomb" format="2">
  <unicode hex="0324"/>
  <anchor x="0" y="0" name="_bottom"/>
  <anchor x="-52" y="-398" name="bottom"/>
  <outline>
    <contour>
      <point x="-264" y="-432" type="curve" smooth="yes"/>
      <point x="-200" y="-432"/>
      <point x="-148" y="-378"/>
      <point x="-148" y="-308" type="curve" smooth="yes"/>
      <point x="-148" y="-258"/>
      <point x="-184" y="-224"/>
      <point x="-238" y="-224" type="curve" smooth="yes"/>
      <point x="-296" y="-224"/>
      <point x="-348" y="-280"/>
      <point x="-348" y="-344" type="curve" smooth="yes"/>
      <point x="-348" y="-394"/>
      <point x="-310" y="-432"/>
    </contour>
    <contour>
      <point x="148" y="-432" type="curve" smooth="yes"/>
      <point x="210" y="-432"/>
      <point x="262" y="-378"/>
      <point x="262" y="-308" type="curve" smooth="yes"/>
      <point x="262" y="-258"/>
      <point x="228" y="-224"/>
      <point x="174" y="-224" type="curve" smooth="yes"/>
      <point x="112" y="-224"/>
      <point x="64" y="-278"/>
      <point x="64" y="-344" type="curve" smooth="yes"/>
      <point x="64" y="-394"/>
      <point x="100" y="-432"/>
    </contour>
  </outline>
</glyph>
